<svg width="250" height="250" viewBox="0 0 250 250" fill="none" xmlns="http://www.w3.org/2000/svg">
<path d="M125 238.765C182.664 238.765 229.41 211.777 229.41 178.485C229.41 145.193 182.664 118.205 125 118.205C67.336 118.205 20.59 145.193 20.59 178.485C20.59 211.777 67.336 238.765 125 238.765Z" fill="#F5F5F5"/>
<path d="M141.385 220.7C153.856 220.7 163.965 214.864 163.965 207.665C163.965 200.466 153.856 194.63 141.385 194.63C128.914 194.63 118.805 200.466 118.805 207.665C118.805 214.864 128.914 220.7 141.385 220.7Z" fill="#E0E0E0"/>
<path d="M129.65 163.525L69.255 198.4C67.555 199.4 64.59 199.26 62.625 198.125L41.185 185.745C39.225 184.615 39.01 182.9 40.685 181.92L101.08 147.045C102.78 146.045 105.745 146.185 107.71 147.32L129.15 159.7C131.135 160.83 131.35 162.545 129.65 163.525Z" fill="#E0E0E0"/>
<path d="M194.68 175.7L199.44 178.465C199.44 178.465 197.04 170.805 198.37 163.095C198.691 161.28 199.347 159.54 200.305 157.965C200.68 157.185 203.55 152.38 201.025 150.16C198.5 147.94 192.575 152.355 192.84 164.225C192.967 168.112 193.585 171.968 194.68 175.7Z" fill="#22B0A2"/>
<path opacity="0.5" d="M194.68 175.7L199.44 178.465C199.44 178.465 197.04 170.805 198.37 163.095C198.691 161.28 199.347 159.54 200.305 157.965C200.68 157.185 203.55 152.38 201.025 150.16C198.5 147.94 192.575 152.355 192.84 164.225C192.967 168.112 193.585 171.968 194.68 175.7Z" fill="black"/>
<path d="M196.895 177.205C196.85 177.205 196.806 177.191 196.77 177.165C196.733 177.139 196.705 177.102 196.69 177.06C196.69 177.01 194.875 172.015 194.97 164.005C195.065 155.995 199.3 151.645 199.345 151.605C199.365 151.585 199.388 151.569 199.414 151.558C199.439 151.548 199.467 151.542 199.495 151.542C199.523 151.542 199.551 151.548 199.576 151.558C199.602 151.569 199.625 151.585 199.645 151.605C199.665 151.625 199.681 151.649 199.692 151.675C199.703 151.701 199.708 151.729 199.708 151.758C199.708 151.786 199.703 151.814 199.692 151.84C199.681 151.866 199.665 151.89 199.645 151.91C199.605 151.95 195.495 156.135 195.4 164.01C195.305 171.885 197.08 176.865 197.095 176.915C197.105 176.941 197.11 176.969 197.11 176.997C197.109 177.026 197.103 177.053 197.091 177.079C197.079 177.105 197.062 177.128 197.042 177.147C197.021 177.166 196.997 177.181 196.97 177.19L196.895 177.205Z" fill="white"/>
<path d="M198.37 177.86L206.23 182.5C206.23 182.5 209.83 181.97 209.56 178.58C209.29 175.19 207.825 174.395 209.645 172.905C211.465 171.415 211.935 171.32 211.845 169.86C211.755 168.4 210.78 167.765 210.315 167.19C209.85 166.615 208.57 165.395 209.475 163.64C210.38 161.885 211.605 160.18 209.785 159.37C208.695 158.87 206.865 159.495 205.655 160.78C204.445 162.065 203.44 162.995 202.295 163.28C201.15 163.565 198.75 163.6 198.83 165.58C198.91 167.56 199.425 168.245 198.945 169.12C198.04 170.775 194.175 171.67 198.37 177.86Z" fill="#22B0A2"/>
<path opacity="0.2" d="M198.37 177.86L206.23 182.5C206.23 182.5 209.83 181.97 209.56 178.58C209.29 175.19 207.825 174.395 209.645 172.905C211.465 171.415 211.935 171.32 211.845 169.86C211.755 168.4 210.78 167.765 210.315 167.19C209.85 166.615 208.57 165.395 209.475 163.64C210.38 161.885 211.605 160.18 209.785 159.37C208.695 158.87 206.865 159.495 205.655 160.78C204.445 162.065 203.44 162.995 202.295 163.28C201.15 163.565 198.75 163.6 198.83 165.58C198.91 167.56 199.425 168.245 198.945 169.12C198.04 170.775 194.175 171.67 198.37 177.86Z" fill="black"/>
<path d="M201.57 179.96C201.515 179.96 201.463 179.94 201.423 179.902C201.383 179.865 201.359 179.814 201.355 179.76C201.355 179.645 200.495 167.925 208.635 160.23C208.677 160.191 208.732 160.17 208.79 160.172C208.847 160.174 208.901 160.198 208.94 160.24C208.979 160.282 209 160.337 208.998 160.395C208.996 160.452 208.972 160.506 208.93 160.545C200.93 168.095 201.78 179.61 201.79 179.725C201.794 179.783 201.776 179.84 201.738 179.883C201.701 179.927 201.647 179.955 201.59 179.96H201.57Z" fill="white"/>
<path d="M203 169.915C202.945 169.915 202.893 169.895 202.853 169.857C202.813 169.82 202.789 169.769 202.785 169.715C202.724 168.815 202.481 167.937 202.07 167.134C201.659 166.332 201.089 165.621 200.395 165.045C200.372 165.028 200.353 165.007 200.338 164.983C200.323 164.959 200.313 164.932 200.309 164.904C200.304 164.875 200.305 164.847 200.312 164.819C200.319 164.791 200.331 164.765 200.347 164.742C200.364 164.719 200.385 164.7 200.41 164.685C200.434 164.67 200.461 164.66 200.489 164.656C200.517 164.652 200.546 164.653 200.573 164.659C200.601 164.666 200.627 164.678 200.65 164.695C201.4 165.306 202.015 166.066 202.456 166.926C202.898 167.787 203.156 168.73 203.215 169.695C203.219 169.751 203.201 169.807 203.165 169.85C203.128 169.893 203.076 169.92 203.02 169.925L203 169.915Z" fill="white"/>
<path d="M202.4 171.915C202.346 171.916 202.295 171.896 202.255 171.86C202.216 171.819 202.194 171.764 202.194 171.707C202.194 171.651 202.216 171.596 202.255 171.555C202.34 171.46 204.39 169.245 209.13 169.895C209.186 169.905 209.236 169.936 209.271 169.981C209.305 170.027 209.321 170.083 209.315 170.14C209.306 170.197 209.276 170.248 209.23 170.282C209.184 170.317 209.127 170.332 209.07 170.325C204.57 169.71 202.595 171.825 202.57 171.825C202.552 171.853 202.526 171.876 202.497 171.892C202.467 171.908 202.434 171.915 202.4 171.915Z" fill="white"/>
<path d="M50.56 168.97L48.215 173.945C48.215 173.945 45.84 166.275 40.37 160.68C39.0792 159.365 37.5527 158.305 35.87 157.555C35.125 157.125 30.035 154.795 30.87 151.555C31.705 148.315 39.07 148.555 45.59 158.49C47.6818 161.76 49.3517 165.281 50.56 168.97Z" fill="#22B0A2"/>
<path opacity="0.5" d="M50.56 168.97L48.215 173.945C48.215 173.945 45.84 166.275 40.37 160.68C39.0792 159.365 37.5527 158.305 35.87 157.555C35.125 157.125 30.035 154.795 30.87 151.555C31.705 148.315 39.07 148.555 45.59 158.49C47.6818 161.76 49.3517 165.281 50.56 168.97Z" fill="black"/>
<path d="M49.47 171.5C49.4224 171.5 49.3762 171.484 49.3383 171.455C49.3005 171.426 49.273 171.386 49.26 171.34C49.26 171.29 47.91 166.225 43.335 159.75C38.76 153.275 33.035 152.205 33 152.195C32.9721 152.19 32.9453 152.18 32.9214 152.165C32.8974 152.149 32.8767 152.13 32.8605 152.106C32.8442 152.083 32.8327 152.057 32.8266 152.029C32.8205 152.002 32.82 151.973 32.825 151.945C32.836 151.889 32.8681 151.84 32.9147 151.807C32.9613 151.774 33.0188 151.761 33.075 151.77C33.135 151.77 39.075 152.92 43.715 159.5C48.355 166.08 49.715 171.18 49.715 171.23C49.7288 171.286 49.7203 171.345 49.6914 171.394C49.6624 171.444 49.6153 171.48 49.56 171.495L49.47 171.5Z" fill="white"/>
<path d="M48.75 172.845L44.9 181.11C44.9 181.11 41.635 182.715 39.94 179.77C38.245 176.825 38.99 175.34 36.65 175.145C34.31 174.95 33.86 175.145 33.105 173.89C32.35 172.635 32.795 171.555 32.85 170.82C32.905 170.085 33.275 168.35 31.53 167.415C29.785 166.48 27.81 165.78 28.855 164.08C29.475 163.08 31.325 162.525 33.055 162.9C34.785 163.275 36.13 163.465 37.245 163.06C38.36 162.655 40.345 161.315 41.405 162.99C42.465 164.665 42.405 165.52 43.32 165.99C45 166.82 48.69 165.36 48.75 172.845Z" fill="#22B0A2"/>
<path opacity="0.2" d="M48.75 172.845L44.9 181.11C44.9 181.11 41.635 182.715 39.94 179.77C38.245 176.825 38.99 175.34 36.65 175.145C34.31 174.95 33.86 175.145 33.105 173.89C32.35 172.635 32.795 171.555 32.85 170.82C32.905 170.085 33.275 168.35 31.53 167.415C29.785 166.48 27.81 165.78 28.855 164.08C29.475 163.08 31.325 162.525 33.055 162.9C34.785 163.275 36.13 163.465 37.245 163.06C38.36 162.655 40.345 161.315 41.405 162.99C42.465 164.665 42.405 165.52 43.32 165.99C45 166.82 48.69 165.36 48.75 172.845Z" fill="black"/>
<path d="M47.18 176.425C47.1421 176.425 47.1049 176.415 47.0723 176.395C47.0398 176.376 47.013 176.348 46.995 176.315C46.935 176.215 41.09 166.26 30.23 164.575C30.2016 164.571 30.1743 164.561 30.1498 164.546C30.1253 164.531 30.104 164.511 30.0872 164.488C30.0705 164.465 30.0585 164.438 30.0521 164.41C30.0457 164.382 30.045 164.353 30.05 164.325C30.0536 164.297 30.0629 164.27 30.0774 164.245C30.0918 164.221 30.111 164.199 30.1339 164.182C30.1569 164.166 30.1829 164.154 30.2106 164.147C30.2383 164.141 30.267 164.14 30.295 164.145C41.365 165.865 47.295 176 47.37 176.1C47.3881 176.133 47.3972 176.171 47.3967 176.208C47.3961 176.246 47.3857 176.283 47.3666 176.316C47.3475 176.349 47.3203 176.376 47.2876 176.395C47.2549 176.414 47.2178 176.424 47.18 176.425Z" fill="white"/>
<path d="M40.325 168.955C40.2865 168.955 40.2486 168.945 40.2153 168.925C40.1819 168.906 40.1543 168.878 40.135 168.845C39.6384 168.017 39.3186 167.095 39.1955 166.137C39.0725 165.18 39.1489 164.207 39.42 163.28C39.4295 163.253 39.4442 163.229 39.4631 163.208C39.4821 163.187 39.505 163.17 39.5306 163.158C39.5561 163.146 39.5838 163.139 39.612 163.138C39.6402 163.136 39.6684 163.141 39.695 163.15C39.7216 163.16 39.746 163.174 39.767 163.193C39.7879 163.212 39.8049 163.235 39.8169 163.261C39.829 163.286 39.8359 163.314 39.8373 163.342C39.8387 163.37 39.8345 163.398 39.825 163.425C39.5805 164.293 39.5143 165.202 39.6303 166.097C39.7463 166.991 40.0421 167.853 40.5 168.63C40.5143 168.655 40.5235 168.682 40.5272 168.71C40.5309 168.738 40.529 168.767 40.5215 168.794C40.5141 168.822 40.5013 168.847 40.4839 168.87C40.4664 168.892 40.4447 168.911 40.42 168.925C40.3915 168.943 40.3587 168.953 40.325 168.955Z" fill="white"/>
<path d="M35.53 172.755C35.5 172.755 35.4704 172.748 35.4429 172.736C35.4155 172.724 35.3907 172.707 35.37 172.685C35.3499 172.665 35.3339 172.641 35.323 172.615C35.3122 172.589 35.3065 172.561 35.3065 172.532C35.3065 172.504 35.3122 172.476 35.323 172.45C35.3339 172.424 35.3499 172.4 35.37 172.38C38.9 169.155 41.87 169.815 41.97 169.845C41.9976 169.851 42.0237 169.863 42.0467 169.88C42.0698 169.896 42.0893 169.917 42.1042 169.942C42.119 169.966 42.129 169.993 42.1334 170.021C42.1378 170.049 42.1367 170.077 42.13 170.105C42.1242 170.133 42.1127 170.159 42.0963 170.183C42.0798 170.206 42.0588 170.226 42.0345 170.241C42.0101 170.256 41.983 170.266 41.9547 170.27C41.9264 170.274 41.8976 170.272 41.87 170.265C41.84 170.265 39.01 169.64 35.66 172.7C35.6235 172.731 35.578 172.751 35.53 172.755Z" fill="white"/>
<path d="M48.805 68.25C48.8055 66.7941 49.1888 65.364 49.9162 64.1029C50.6437 62.8419 51.69 61.7942 52.95 61.065L105.71 30.605C106.062 30.402 106.455 30.2805 106.86 30.2494C107.265 30.2182 107.672 30.2782 108.051 30.425C108.43 30.5717 108.771 30.8015 109.05 31.0974C109.328 31.3933 109.537 31.7479 109.66 32.135C109.518 31.5148 109.253 30.9295 108.88 30.4141C108.508 29.8986 108.035 29.4636 107.49 29.135L107.3 29.025C105.987 28.2438 104.488 27.831 102.96 27.83C102.472 27.8253 101.991 27.9532 101.57 28.2L48.81 58.675C47.548 59.4024 46.5 60.4495 45.7714 61.7109C45.0429 62.9722 44.6595 64.4033 44.66 65.86V179.955C44.6606 180.432 44.7865 180.9 45.025 181.312C45.2635 181.725 45.6063 182.068 46.019 182.307C46.4317 182.545 46.8999 182.671 47.3765 182.671C47.8532 182.672 48.3217 182.547 48.735 182.31L48.805 182.27V68.25Z" fill="#37474F"/>
<path d="M105.64 154.24L52.88 184.7C52.4673 184.939 51.999 185.065 51.5221 185.065C51.0453 185.065 50.5767 184.94 50.1637 184.702C49.7506 184.464 49.4075 184.121 49.169 183.708C48.9305 183.295 48.805 182.827 48.805 182.35V68.2499C48.8055 66.7941 49.1887 65.364 49.9162 64.1029C50.6437 62.8418 51.6899 61.7942 52.95 61.0649L105.71 30.6049C106.123 30.3675 106.592 30.2428 107.068 30.2434C107.545 30.244 108.013 30.3699 108.426 30.6084C108.839 30.8469 109.181 31.1897 109.42 31.6024C109.659 32.0151 109.784 32.4833 109.785 32.9599V147.055C109.785 148.511 109.403 149.942 108.675 151.203C107.947 152.464 106.901 153.511 105.64 154.24Z" fill="#455A64"/>
<path d="M48.805 182.35V68.2499C48.8056 67.0069 49.0858 65.7799 49.625 64.6599L45.545 62.1599C44.9639 63.3157 44.6609 64.5913 44.66 65.8849V180.935C44.6601 181.387 44.7776 181.832 45.0011 182.226C45.2246 182.619 45.5464 182.948 45.935 183.18L48.04 184.43C48.7686 184.865 49.6014 185.095 50.45 185.095H51.5C51.1428 185.092 50.7897 185.018 50.461 184.878C50.1322 184.739 49.8342 184.535 49.584 184.281C49.3337 184.026 49.1361 183.724 49.0025 183.393C48.8688 183.061 48.8017 182.707 48.805 182.35Z" fill="#263238"/>
<path d="M103.825 41.575V137.5C103.824 138.786 103.485 140.049 102.842 141.163C102.198 142.277 101.274 143.201 100.16 143.845L53.57 170.74C53.2188 170.944 52.8211 171.054 52.415 171.06C52.5494 171.371 52.7481 171.65 52.998 171.878C53.248 172.107 53.5434 172.28 53.8651 172.387C54.1867 172.493 54.5272 172.53 54.8641 172.495C55.2011 172.46 55.5268 172.355 55.82 172.185L102.41 145.285C103.523 144.642 104.448 143.717 105.09 142.603C105.733 141.489 106.07 140.226 106.07 138.94V43.965C106.071 43.3554 105.839 42.7685 105.422 42.3242C105.005 41.88 104.433 41.6119 103.825 41.575Z" fill="#37474F"/>
<path d="M52.415 171.035C52.8211 171.029 53.2188 170.919 53.57 170.715L100.16 143.82C101.27 143.179 102.192 142.258 102.835 141.149C103.478 140.04 103.82 138.782 103.825 137.5V41.575C103.357 41.5789 102.896 41.6865 102.475 41.8899L55.885 68.785C54.7708 69.4277 53.8455 70.3524 53.2021 71.4662C52.5587 72.5801 52.22 73.8437 52.22 75.1299V170.08C52.2195 170.414 52.2876 170.744 52.42 171.05L52.415 171.035Z" fill="#22B0A2"/>
<g opacity="0.5">
<path d="M52.415 171.035C52.8211 171.029 53.2188 170.919 53.57 170.715L100.16 143.82C101.27 143.179 102.192 142.258 102.835 141.149C103.478 140.04 103.82 138.782 103.825 137.5V41.575C103.357 41.5789 102.896 41.6865 102.475 41.8899L55.885 68.785C54.7708 69.4277 53.8455 70.3524 53.2021 71.4662C52.5587 72.5801 52.22 73.8437 52.22 75.1299V170.08C52.2195 170.414 52.2876 170.744 52.42 171.05L52.415 171.035Z" fill="white"/>
</g>
<path d="M71.91 54.73C71.8941 55.0209 71.8103 55.304 71.6653 55.5567C71.5203 55.8094 71.3182 56.0245 71.075 56.185C70.61 56.45 70.235 56.235 70.235 55.685C70.2511 55.3936 70.3355 55.11 70.4814 54.8573C70.6273 54.6045 70.8307 54.3896 71.075 54.23C71.535 54 71.91 54.195 71.91 54.73Z" fill="#263238"/>
<path d="M75.035 52.93C75.0182 53.2212 74.9335 53.5045 74.7876 53.7571C74.6417 54.0098 74.4388 54.2248 74.195 54.385C73.73 54.65 73.355 54.435 73.355 53.885C73.3711 53.5936 73.4554 53.31 73.6014 53.0572C73.7473 52.8045 73.9507 52.5896 74.195 52.43C74.655 52.18 75.035 52.395 75.035 52.93Z" fill="#263238"/>
<path d="M87.63 46.6249L77.5 52.4999C77.095 52.7299 76.77 52.4999 76.77 51.9499C76.7742 51.6772 76.8425 51.4094 76.9693 51.1679C77.0961 50.9265 77.2779 50.7182 77.5 50.5599L87.645 44.7049C88.045 44.4699 88.37 44.7049 88.37 45.2499C88.3619 45.5208 88.2908 45.7862 88.1624 46.0248C88.0339 46.2635 87.8516 46.469 87.63 46.6249Z" fill="#263238"/>
<path d="M85.915 157.84C86.52 157.84 86.915 158.485 86.915 159.48C86.915 161.04 85.94 162.925 84.78 163.595L79.925 166.4C79.7081 166.535 79.4603 166.612 79.205 166.625C78.6 166.625 78.205 165.98 78.205 164.985C78.205 163.42 79.205 161.535 80.34 160.87L85.195 158.065C85.4134 157.929 85.663 157.852 85.92 157.84M85.92 157.425C85.5901 157.435 85.2688 157.533 84.99 157.71L80.135 160.51C78.84 161.255 77.79 163.26 77.79 165.01C77.79 166.295 78.375 167.065 79.205 167.065C79.535 167.055 79.8562 166.957 80.135 166.78L84.99 163.98C86.28 163.235 87.33 161.23 87.33 159.48C87.33 158.195 86.75 157.425 85.92 157.425Z" fill="#263238"/>
<path d="M59.095 81.855V189.355C59.095 191.305 59.81 192.61 60.9 193.04H60.93L65.58 195.585L65.55 191.455L65.05 79.99L60.145 77.49C59.4868 78.8531 59.1287 80.3416 59.095 81.855Z" fill="#E6E6E6"/>
<path d="M65.835 196L60.805 193.245C59.56 192.745 58.845 191.28 58.845 189.33V81.83C58.8716 80.2708 59.2349 78.7357 59.91 77.33L60.02 77.095L65.29 79.79V79.94L65.79 191.405L65.835 196ZM61.06 192.815L65.33 195.155V191.445L64.83 80.13L60.295 77.81C59.7213 79.0776 59.4117 80.4488 59.385 81.84V189.34C59.385 191.1 60 192.39 61.035 192.795L61.095 192.825L61.06 192.815Z" fill="#E6E6E6"/>
<path d="M60.135 77.5L65.04 80L117.54 49.455L121.04 47.415L116.195 44.685L116.06 44.605C115.285 44.14 114.275 44.17 113.16 44.815L63.47 73.5C61.9858 74.4725 60.8248 75.865 60.135 77.5Z" fill="#E0E0E0"/>
<path d="M65.04 80.245C64.9998 80.2446 64.9603 80.2342 64.925 80.215L60.02 77.715C59.9912 77.7011 59.9654 77.6817 59.9443 77.6577C59.9231 77.6338 59.9069 77.6059 59.8966 77.5756C59.8864 77.5453 59.8823 77.5133 59.8846 77.4814C59.8869 77.4496 59.8955 77.4185 59.91 77.39C60.6247 75.7139 61.82 74.2872 63.345 73.29L113.045 44.595C114.195 43.935 115.315 43.86 116.195 44.39H116.235L116.335 44.45L121.175 47.175C121.213 47.198 121.244 47.2302 121.266 47.2687C121.288 47.3072 121.3 47.3507 121.3 47.395C121.301 47.4388 121.29 47.482 121.268 47.5199C121.245 47.5578 121.213 47.589 121.175 47.61L65.175 80.195C65.1356 80.224 65.0888 80.2413 65.04 80.245ZM60.465 77.37L65.035 79.71L120.535 47.415L115.93 44.815L115.895 44.785C115.18 44.375 114.255 44.46 113.285 45.02L63.585 73.715C62.219 74.6123 61.1368 75.8801 60.465 77.37Z" fill="#E0E0E0"/>
<path d="M63.905 84.555V191.555C63.905 193.24 64.445 194.45 65.3 195.02L65.585 195.175C66.33 195.525 67.265 195.45 68.28 194.86L92.305 181L118 165.55C119.316 164.727 120.406 163.588 121.17 162.238C121.935 160.887 122.351 159.367 122.38 157.815V50.815C122.38 49.185 121.88 48.005 121.07 47.41C120.933 47.3075 120.784 47.2235 120.625 47.16C120.191 47.0067 119.728 46.9576 119.272 47.0167C118.816 47.0758 118.38 47.2413 118 47.5L68.3 76.68C66.8978 77.4139 65.7637 78.5725 65.06 79.99C64.3386 81.4062 63.9439 82.9661 63.905 84.555Z" fill="#FAFAFA"/>
<path d="M118 165.55C107.775 171.65 81.17 187.525 68 195.46C67.6071 195.695 67.1589 195.822 66.7011 195.827C66.2432 195.833 65.7921 195.717 65.3937 195.491C64.9953 195.266 64.6638 194.938 64.433 194.543C64.2023 194.147 64.0804 193.698 64.08 193.24V83.21C64.08 81.9575 64.4076 80.7267 65.0304 79.6399C65.6531 78.5532 66.5493 77.6483 67.63 77.015L118.22 47.355C118.613 47.1257 119.06 47.0041 119.515 47.0022C119.97 47.0004 120.417 47.1184 120.812 47.3445C121.207 47.5706 121.535 47.8967 121.764 48.29C121.993 48.6833 122.114 49.13 122.115 49.585V158.265C122.116 159.731 121.737 161.172 121.016 162.449C120.295 163.725 119.256 164.794 118 165.55Z" fill="#FAFAFA"/>
<path d="M117.855 165.33C109.825 170.11 101.798 174.903 93.775 179.71L79.525 188.235L73.025 192.135L70.18 193.845C69.305 194.37 68.375 195.12 67.405 195.455C65.8 196.015 64.355 194.73 64.315 193.145C64.315 192.89 64.315 192.645 64.315 192.38V91.5C64.315 88.815 64.315 86.125 64.315 83.44C64.2966 82.1688 64.6178 80.9156 65.2454 79.8099C65.8729 78.7042 66.7841 77.786 67.885 77.15C69.045 76.465 70.21 75.79 71.385 75.11L87.715 65.5L107.09 54.145C110.765 51.995 114.43 49.825 118.09 47.685C119.23 47.025 120.665 47.09 121.46 48.285C121.741 48.7621 121.874 49.3123 121.84 49.865V157.845C121.89 159.336 121.547 160.814 120.845 162.131C120.143 163.447 119.106 164.556 117.84 165.345C117.565 165.515 117.815 165.95 118.09 165.78C119.422 164.955 120.515 163.797 121.262 162.421C122.01 161.044 122.384 159.496 122.35 157.93V57.555C122.35 54.945 122.375 52.33 122.35 49.715C122.363 49.1915 122.233 48.6744 121.974 48.2191C121.715 47.7638 121.338 47.3876 120.881 47.1306C120.425 46.8737 119.907 46.7458 119.384 46.7607C118.861 46.7755 118.351 46.9326 117.91 47.215C116.69 47.92 115.48 48.64 114.27 49.35L97.5 59.215L77.95 70.675C74.5 72.7 71 74.71 67.565 76.75C66.4086 77.4305 65.4524 78.4042 64.793 79.5728C64.1337 80.7414 63.7946 82.0633 63.81 83.405C63.81 84.305 63.81 85.205 63.81 86.105V192.72C63.81 192.89 63.81 193.065 63.81 193.22C63.8154 193.667 63.9252 194.107 64.1307 194.504C64.3361 194.901 64.6316 195.245 64.9934 195.508C65.3553 195.77 65.7735 195.945 66.2148 196.017C66.656 196.09 67.1081 196.058 67.535 195.925C68.48 195.61 69.37 194.9 70.22 194.39L73.12 192.645L79.62 188.755C89.0733 183.088 98.535 177.432 108.005 171.785L118.12 165.75C118.38 165.6 118.13 165.165 117.855 165.33Z" fill="#EBEBEB"/>
<path d="M67.61 77L118.22 47.355C118.613 47.1257 119.06 47.0041 119.515 47.0022C119.97 47.0004 120.417 47.1184 120.812 47.3445C121.207 47.5706 121.535 47.8967 121.764 48.29C121.993 48.6833 122.114 49.13 122.115 49.585V54.36L64.075 87.86V83.2C64.0726 81.9481 64.3975 80.7173 65.0176 79.6297C65.6377 78.5421 66.5314 77.6356 67.61 77Z" fill="#EBEBEB"/>
<path d="M102.38 103.028C107.512 94.1394 107.512 84.5314 102.38 81.5684C97.2483 78.6054 88.9275 83.4094 83.7954 92.2985C78.6633 101.188 78.6633 110.796 83.7954 113.759C88.9275 116.722 97.2482 111.918 102.38 103.028Z" fill="#22B0A2"/>
<path opacity="0.5" d="M102.38 103.028C107.512 94.1394 107.512 84.5314 102.38 81.5684C97.2483 78.6054 88.9275 83.4094 83.7954 92.2985C78.6633 101.188 78.6633 110.796 83.7954 113.759C88.9275 116.722 97.2482 111.918 102.38 103.028Z" fill="white"/>
<path d="M90.73 97.72C90.6525 97.72 90.5758 97.7047 90.5042 97.675C90.4327 97.6454 90.3676 97.6019 90.3128 97.5472C90.258 97.4924 90.2146 97.4273 90.1849 97.3557C90.1553 97.2842 90.14 97.2074 90.14 97.13V93.245C90.1832 92.3232 90.4463 91.4252 90.9073 90.6258C91.3683 89.8265 92.0139 89.149 92.79 88.65C93.1042 88.3911 93.4899 88.2342 93.8956 88.2004C94.3013 88.1666 94.7077 88.2574 95.0604 88.4606C95.4132 88.6639 95.6955 88.97 95.8696 89.338C96.0438 89.7059 96.1015 90.1183 96.035 90.52V94.41C96.035 94.5664 95.9729 94.7165 95.8622 94.8272C95.7516 94.9378 95.6015 95 95.445 95C95.2885 95 95.1385 94.9378 95.0278 94.8272C94.9172 94.7165 94.855 94.5664 94.855 94.41V90.5C94.9331 90.3046 94.9377 90.0875 94.8681 89.889C94.7984 89.6904 94.6591 89.5239 94.4761 89.4202C94.293 89.3164 94.0786 89.2825 93.8724 89.3248C93.6663 89.3671 93.4825 89.4826 93.355 89.65C92.76 90.0474 92.2646 90.5767 91.9073 91.1968C91.55 91.8168 91.3405 92.5108 91.295 93.225V97.11C91.3004 97.2656 91.2441 97.4171 91.1382 97.5314C91.0324 97.6457 90.8856 97.7135 90.73 97.72Z" fill="#37474F"/>
<path d="M97.85 91.905C97.7118 91.8477 97.5614 91.8264 97.4128 91.843C97.2641 91.8596 97.1221 91.9136 97 92L89.14 96.54C88.7952 96.7564 88.5099 97.0554 88.31 97.41C87.9955 97.9205 87.8229 98.5056 87.81 99.105V105.91C87.7924 106.101 87.8183 106.293 87.8859 106.472C87.9534 106.652 88.0608 106.813 88.2 106.945C88.2425 106.978 88.2897 107.005 88.34 107.025C88.4731 107.075 88.6162 107.091 88.7572 107.074C88.8982 107.057 89.0329 107.005 89.15 106.925L97 102.38C97.4095 102.088 97.7446 101.703 97.9782 101.258C98.2118 100.812 98.3375 100.318 98.345 99.815V93C98.3726 92.7895 98.3409 92.5754 98.2535 92.382C98.166 92.1885 98.0263 92.0233 97.85 91.905Z" fill="#22B0A2"/>
<path d="M94 99L94.76 101.18L92.095 102.715L92.76 100.025L92.855 99.6449C92.405 99.6449 92.095 99.3099 92.095 98.6999C92.0984 98.4516 92.1406 98.2053 92.22 97.97C92.4276 97.3202 92.8533 96.762 93.425 96.3899C94.16 95.9649 94.76 96.31 94.76 97.16C94.7235 97.8419 94.4554 98.491 94 99Z" fill="#455A64"/>
<path d="M92.74 99.9999L92.835 99.6199C92.385 99.6199 92.075 99.2849 92.075 98.6749C92.0784 98.4266 92.1206 98.1803 92.2 97.9449L94 98.9999L94.76 101.18L92.74 99.9999Z" fill="#37474F"/>
<path d="M112.5 122.83L73.7 145.215C72.095 146.14 70.795 145.155 70.795 143.02V137.145C70.795 135.005 72.095 132.52 73.7 131.595L112.5 109.21C114.105 108.285 115.405 109.265 115.405 111.405V117.28C115.38 119.42 114.08 121.9 112.5 122.83Z" fill="#22B0A2"/>
<path d="M80.675 131.065H79.925V137.28H80.675V131.065Z" fill="#FAFAFA"/>
<path d="M83.1317 132.841L77.7246 135.948L78.0996 136.601L83.5067 133.493L83.1317 132.841Z" fill="#FAFAFA"/>
<path d="M78.5812 132.756L78.2062 133.405L82.0124 135.603L82.3874 134.953L78.5812 132.756Z" fill="#FAFAFA"/>
<path d="M82.411 130.344L78.6035 136.969L79.256 137.344L83.0635 130.719L82.411 130.344Z" fill="#FAFAFA"/>
<path d="M93.46 124.105H92.71V130.32H93.46V124.105Z" fill="#FAFAFA"/>
<path d="M95.5848 125.345L90.2025 128.452L90.5775 129.102L95.9598 125.994L95.5848 125.345Z" fill="#FAFAFA"/>
<path d="M91.3712 125.794L90.9962 126.443L94.8023 128.641L95.1773 127.991L91.3712 125.794Z" fill="#FAFAFA"/>
<path d="M95.1689 123.329L91.3615 129.954L92.014 130.329L95.8214 123.704L95.1689 123.329Z" fill="#FAFAFA"/>
<path d="M106.245 117.14H105.495V123.355H106.245V117.14Z" fill="#FAFAFA"/>
<path d="M108.805 118.856L103.398 121.964L103.773 122.616L109.18 119.509L108.805 118.856Z" fill="#FAFAFA"/>
<path d="M104.157 118.829L103.782 119.479L107.588 121.676L107.963 121.027L104.157 118.829Z" fill="#FAFAFA"/>
<path d="M107.45 116.757L103.642 123.352L104.292 123.727L108.099 117.132L107.45 116.757Z" fill="#FAFAFA"/>
<path d="M113.625 130.92C114.125 130.92 114.38 131.695 114.38 132.465V138.34C114.38 140.125 113.275 142.27 111.975 143.025L73.2 165.41C73.0032 165.535 72.7779 165.609 72.545 165.625C72.045 165.625 71.795 164.85 71.795 164.08V158.205C71.795 156.42 72.895 154.275 74.2 153.52L113 131.135C113.195 131.01 113.419 130.936 113.65 130.92M113.65 129.92C113.243 129.935 112.846 130.056 112.5 130.27L73.7 152.655C72.095 153.58 70.795 156.065 70.795 158.205V164.08C70.795 165.67 71.515 166.625 72.545 166.625C72.9539 166.611 73.352 166.49 73.7 166.275L112.5 143.89C114.105 142.965 115.405 140.48 115.405 138.34V132.465C115.405 130.875 114.68 129.92 113.65 129.92Z" fill="#22B0A2"/>
<path d="M95.626 147.402V148.723L92.3143 150.627V149.305L95.626 147.402ZM93.0661 147.353L94.5913 146.477V152.39C94.5913 152.553 94.6128 152.667 94.6558 152.733C94.6987 152.797 94.7584 152.824 94.8348 152.816C94.9136 152.807 95.0043 152.772 95.1069 152.713C95.1785 152.672 95.2501 152.624 95.3217 152.569C95.3933 152.512 95.4482 152.468 95.4864 152.437L95.7263 153.609C95.6499 153.68 95.5425 153.773 95.4041 153.889C95.2656 154.007 95.0973 154.127 94.8992 154.249C94.5317 154.477 94.2094 154.606 93.9326 154.635C93.6581 154.664 93.4444 154.586 93.2917 154.401C93.1389 154.216 93.0637 153.915 93.0661 153.498V147.353ZM95.2071 168.109C94.6415 168.434 94.1545 168.582 93.7464 168.552C93.3406 168.519 93.0279 168.321 92.8083 167.96C92.5888 167.596 92.479 167.08 92.479 166.411C92.479 165.758 92.5888 165.123 92.8083 164.504C93.0279 163.885 93.337 163.323 93.7356 162.819C94.1366 162.313 94.6068 161.905 95.1463 161.595C95.5091 161.387 95.8468 161.26 96.1595 161.215C96.4746 161.166 96.7491 161.208 96.983 161.341C97.2193 161.472 97.4031 161.702 97.5343 162.031C97.6656 162.358 97.7312 162.791 97.7312 163.33V163.814L93.0876 166.482V165.392L96.2956 163.548C96.2956 163.295 96.2478 163.098 96.1523 162.958C96.0569 162.817 95.9244 162.74 95.7549 162.728C95.5878 162.711 95.3933 162.766 95.1713 162.894C94.9398 163.027 94.7345 163.207 94.5555 163.434C94.3789 163.656 94.2405 163.9 94.1402 164.164C94.04 164.425 93.9886 164.682 93.9863 164.933V165.97C93.9863 166.284 94.0364 166.526 94.1366 166.697C94.2393 166.867 94.3837 166.96 94.5698 166.977C94.756 166.994 94.9768 166.929 95.2322 166.782C95.4017 166.684 95.5568 166.568 95.6976 166.432C95.8385 166.296 95.959 166.144 96.0593 165.976C96.1595 165.808 96.2359 165.63 96.2884 165.44L97.699 164.736C97.6274 165.168 97.4806 165.594 97.2587 166.014C97.0391 166.429 96.755 166.818 96.4065 167.181C96.0604 167.539 95.6606 167.849 95.2071 168.109ZM92.7009 183.426V177.083L94.1796 176.233V177.34L94.2369 177.307C94.3371 176.856 94.5054 176.462 94.7417 176.125C94.978 175.785 95.2501 175.527 95.558 175.35C95.6344 175.306 95.7167 175.264 95.8051 175.225C95.8934 175.185 95.9709 175.156 96.0378 175.136V176.697C95.9662 176.714 95.8671 176.749 95.7406 176.802C95.6141 176.855 95.4983 176.912 95.3933 176.973C95.169 177.102 94.9685 177.273 94.7918 177.488C94.6176 177.698 94.4791 177.932 94.3765 178.189C94.2763 178.445 94.2261 178.702 94.2261 178.961V182.549L92.7009 183.426Z" fill="#22B0A2"/>
<path d="M170.695 64.155C170.718 64.5507 170.835 64.9352 171.036 65.2768C171.236 65.6185 171.516 65.9075 171.85 66.12C172.49 66.48 173.005 66.185 173.005 65.465C172.982 65.0694 172.865 64.6849 172.664 64.3432C172.464 64.0016 172.184 63.7126 171.85 63.5C171.215 63.14 170.695 63.43 170.695 64.155Z" fill="#455A64"/>
<path d="M155.21 68.81C154.194 68.7762 153.203 68.4799 152.335 67.95L148.67 65.875C148.64 65.86 148.612 65.8389 148.59 65.8131C148.568 65.7872 148.552 65.7571 148.542 65.7247C148.532 65.6922 148.528 65.658 148.532 65.6242C148.536 65.5904 148.546 65.5578 148.563 65.5281C148.579 65.4985 148.602 65.4726 148.629 65.452C148.656 65.4314 148.687 65.4165 148.72 65.4083C148.753 65.4 148.787 65.3986 148.821 65.4041C148.854 65.4095 148.886 65.4218 148.915 65.44L152.58 67.515C154.165 68.41 155.63 68.555 156.715 67.925C157.8 67.295 158.365 66 158.365 64.245C158.365 62.31 159.04 60.85 160.26 60.135C161.48 59.42 163.155 59.555 164.895 60.54L170.82 63.895C170.877 63.9285 170.918 63.9826 170.936 64.0459C170.954 64.1093 170.946 64.1771 170.915 64.235C170.882 64.2927 170.828 64.335 170.765 64.3528C170.701 64.3706 170.633 64.3624 170.575 64.33L164.65 61C163.07 60.105 161.6 59.96 160.515 60.595C159.43 61.23 158.865 62.52 158.865 64.27C158.865 66.21 158.19 67.67 156.97 68.38C156.432 68.6772 155.824 68.8256 155.21 68.81Z" fill="#455A64"/>
<path d="M147.155 64.7551C147.173 65.0748 147.267 65.3857 147.429 65.6615C147.592 65.9373 147.819 66.17 148.09 66.3401C148.59 66.6351 149.025 66.3951 149.025 65.8101C149.007 65.4903 148.913 65.1795 148.751 64.9036C148.588 64.6278 148.361 64.3951 148.09 64.2251C147.575 63.9301 147.155 64.1701 147.155 64.7551Z" fill="#455A64"/>
<path d="M206.295 59.44L181.795 45.57C181.538 45.3811 181.227 45.2793 180.908 45.2793C180.588 45.2793 180.277 45.3811 180.02 45.57L177.9 47.03L179.345 48.815V74.63C179.345 76.435 180.445 78.53 181.795 79.315L205.68 92.815L205.79 94.735L208.02 93.205C208.277 92.9654 208.476 92.6699 208.601 92.3413C208.725 92.0128 208.773 91.6599 208.74 91.31V64.125C208.75 62.32 207.65 60.225 206.295 59.44Z" fill="#22B0A2"/>
<path opacity="0.3" d="M206.295 59.44L181.795 45.57C181.538 45.3811 181.227 45.2793 180.908 45.2793C180.588 45.2793 180.277 45.3811 180.02 45.57L177.9 47.03L179.345 48.815V74.63C179.345 76.435 180.445 78.53 181.795 79.315L205.68 92.815L205.79 94.735L208.02 93.205C208.277 92.9654 208.476 92.6699 208.601 92.3413C208.725 92.0128 208.773 91.6599 208.74 91.31V64.125C208.75 62.32 207.65 60.225 206.295 59.44Z" fill="black"/>
<path d="M204.215 94.615L179.715 80.745C178.36 79.965 177.265 77.865 177.265 76.06V48.86C177.265 47.05 178.36 46.22 179.715 47.005L204.215 60.875C205.57 61.655 206.665 63.755 206.665 65.56V92.765C206.665 94.57 205.57 95.4 204.215 94.615Z" fill="#22B0A2"/>
<path d="M199.07 71.075C199.014 71.0758 198.96 71.058 198.916 71.0245C198.871 70.991 198.839 70.9437 198.825 70.89C198.303 68.9609 197.496 67.1206 196.43 65.43C196.394 65.3743 196.382 65.3066 196.396 65.242C196.41 65.1773 196.449 65.1208 196.505 65.085C196.533 65.0668 196.564 65.0545 196.596 65.0487C196.629 65.0429 196.662 65.0438 196.695 65.0513C196.727 65.0587 196.757 65.0727 196.784 65.0922C196.811 65.1118 196.833 65.1365 196.85 65.165C197.944 66.897 198.773 68.7828 199.31 70.76C199.326 70.8242 199.316 70.892 199.284 70.9496C199.251 71.0072 199.198 71.0503 199.135 71.07L199.07 71.075Z" fill="white"/>
<path d="M199.63 76.1601C199.563 76.155 199.501 76.1238 199.457 76.0732C199.413 76.0227 199.391 75.9569 199.395 75.8901C199.395 75.6251 199.425 75.3451 199.425 75.0601C199.422 74.2052 199.347 73.3522 199.2 72.5101C199.189 72.4438 199.204 72.3757 199.243 72.3209C199.282 72.266 199.341 72.2288 199.408 72.2176C199.474 72.2063 199.542 72.2218 199.597 72.2608C199.652 72.2997 199.689 72.3588 199.7 72.4251C199.853 73.2952 199.932 74.1767 199.935 75.0601C199.935 75.3551 199.935 75.6451 199.905 75.9251C199.902 75.9586 199.893 75.9913 199.878 76.0213C199.863 76.0513 199.842 76.0779 199.816 76.0998C199.791 76.1216 199.761 76.1382 199.729 76.1485C199.697 76.1589 199.664 76.1628 199.63 76.1601Z" fill="white"/>
<path d="M184.335 67.86C184.273 67.8602 184.214 67.8372 184.168 67.7955C184.123 67.7537 184.095 67.6965 184.09 67.635C184.05 67.2 184.03 66.765 184.03 66.345C184.03 63.92 184.685 61.92 185.875 60.705C185.898 60.6817 185.925 60.6632 185.955 60.6506C185.985 60.638 186.017 60.6315 186.05 60.6315C186.083 60.6315 186.115 60.638 186.145 60.6506C186.175 60.6632 186.202 60.6817 186.225 60.705C186.248 60.7282 186.267 60.7559 186.28 60.7864C186.292 60.8168 186.299 60.8495 186.299 60.8825C186.299 60.9155 186.292 60.9482 186.28 60.9786C186.267 61.0091 186.248 61.0368 186.225 61.06C185.13 62.18 184.525 64.06 184.525 66.35C184.525 66.755 184.525 67.175 184.58 67.595C184.583 67.6276 184.58 67.6605 184.571 67.6919C184.561 67.7233 184.546 67.7524 184.525 67.7776C184.504 67.8027 184.478 67.8234 184.449 67.8385C184.42 67.8535 184.388 67.8625 184.355 67.865L184.335 67.86Z" fill="white"/>
<path d="M195.395 63.815C195.358 63.8155 195.321 63.8076 195.287 63.792C195.254 63.7765 195.224 63.7536 195.2 63.725C194.274 62.5454 193.136 61.5484 191.845 60.785C190.185 59.845 188.625 59.665 187.345 60.285C187.285 60.3124 187.217 60.3152 187.155 60.2927C187.094 60.2703 187.043 60.2244 187.015 60.165C187.001 60.1352 186.992 60.1028 186.991 60.0697C186.989 60.0367 186.994 60.0036 187.005 59.9725C187.016 59.9413 187.033 59.9127 187.056 59.8882C187.078 59.8638 187.105 59.844 187.135 59.83C188.575 59.165 190.29 59.33 192.1 60.375C193.445 61.1709 194.632 62.2083 195.6 63.435C195.641 63.4862 195.661 63.5517 195.654 63.6172C195.648 63.6828 195.616 63.7431 195.565 63.785C195.514 63.8149 195.453 63.8255 195.395 63.815Z" fill="white"/>
<path d="M186.06 68.055C185.995 68.0551 185.933 68.0301 185.887 67.9854C185.84 67.9406 185.813 67.8796 185.81 67.815C185.81 67.66 185.81 67.505 185.81 67.35C185.81 65.575 186.245 64.125 187.07 63.16C187.091 63.1347 187.116 63.1137 187.145 63.0985C187.174 63.0832 187.206 63.0739 187.239 63.0711C187.271 63.0683 187.304 63.0721 187.335 63.0822C187.366 63.0923 187.395 63.1086 187.42 63.13C187.47 63.1736 187.502 63.2351 187.507 63.3014C187.513 63.3677 187.492 63.4336 187.45 63.485C186.705 64.36 186.31 65.695 186.31 67.35C186.31 67.495 186.31 67.645 186.31 67.79C186.311 67.8228 186.306 67.8556 186.295 67.8865C186.284 67.9173 186.266 67.9456 186.244 67.9698C186.222 67.9939 186.195 68.0134 186.165 68.0272C186.135 68.041 186.103 68.0487 186.07 68.05L186.06 68.055Z" fill="white"/>
<path d="M188 62.9051C187.945 62.9056 187.891 62.888 187.847 62.855C187.803 62.822 187.772 62.7754 187.757 62.7224C187.742 62.6694 187.745 62.6131 187.766 62.562C187.786 62.511 187.823 62.4681 187.87 62.4401C188.511 62.0591 189.261 61.9042 190 62.0001C190.065 62.0064 190.126 62.0383 190.168 62.0889C190.21 62.1394 190.231 62.2045 190.225 62.2701C190.217 62.336 190.184 62.3963 190.133 62.4384C190.082 62.4804 190.016 62.5007 189.95 62.4951C189.32 62.42 188.683 62.5572 188.14 62.8851C188.096 62.9036 188.048 62.9105 188 62.9051Z" fill="white"/>
<path d="M199.07 79.375C199.02 79.3751 198.971 79.3604 198.929 79.3329C198.887 79.3053 198.855 79.266 198.835 79.22L198.545 78.495C197.964 77.093 197.657 75.5926 197.64 74.075C197.64 69.835 195.04 64.93 191.845 63.12C191.816 63.1039 191.791 63.0823 191.771 63.0564C191.751 63.0304 191.736 63.0007 191.728 62.969C191.72 62.9373 191.718 62.9042 191.722 62.8718C191.727 62.8393 191.738 62.8081 191.755 62.78C191.771 62.751 191.792 62.7254 191.818 62.7048C191.843 62.6842 191.873 62.669 191.905 62.6602C191.937 62.6513 191.97 62.6489 192.002 62.6532C192.035 62.6574 192.067 62.6683 192.095 62.685C195.425 64.575 198.14 69.685 198.14 74.055C198.153 75.5146 198.448 76.9578 199.01 78.305L199.3 79.03C199.313 79.0601 199.32 79.0926 199.32 79.1254C199.32 79.1582 199.314 79.1908 199.301 79.2211C199.289 79.2514 199.27 79.2789 199.247 79.3019C199.223 79.3249 199.196 79.3429 199.165 79.355C199.135 79.3683 199.103 79.3751 199.07 79.375Z" fill="white"/>
<path d="M187.59 76.5C187.539 76.4999 187.488 76.4841 187.446 76.4546C187.404 76.425 187.372 76.3833 187.355 76.335C186.547 73.9724 186.025 71.5216 185.8 69.035C185.797 69.0017 185.801 68.9683 185.812 68.9366C185.822 68.9049 185.839 68.8756 185.861 68.8504C185.882 68.8253 185.909 68.8048 185.939 68.7901C185.969 68.7754 186.002 68.7669 186.035 68.765C186.101 68.7634 186.165 68.7868 186.214 68.8304C186.263 68.874 186.294 68.9346 186.3 69C186.513 71.4395 187.017 73.8448 187.8 76.165C187.812 76.1958 187.817 76.2287 187.816 76.2616C187.815 76.2946 187.807 76.327 187.793 76.3569C187.779 76.3868 187.759 76.4136 187.735 76.4356C187.71 76.4576 187.681 76.4744 187.65 76.485C187.631 76.4926 187.611 76.4976 187.59 76.5Z" fill="white"/>
<path d="M197.6 81.06C197.549 81.0611 197.499 81.0463 197.457 81.0176C197.415 80.9889 197.383 80.9478 197.365 80.9L196.695 79.1C196.019 77.3432 195.656 75.4819 195.62 73.6V71.635C195.62 69.3 193.945 66.455 191.885 65.29C190.925 64.745 190.035 64.65 189.385 65.03C188.735 65.41 188.385 66.195 188.385 67.26V69C188.44 71.8266 189.006 74.6199 190.055 77.245L190.88 79.395C190.892 79.4259 190.898 79.4588 190.897 79.4919C190.896 79.525 190.889 79.5576 190.875 79.5878C190.862 79.6181 190.843 79.6453 190.818 79.668C190.794 79.6907 190.766 79.7084 190.735 79.72C190.673 79.7428 190.605 79.7404 190.545 79.7132C190.485 79.6861 190.439 79.6364 190.415 79.575L189.59 77.425C188.524 74.7412 187.952 71.8872 187.9 69V67.265C187.9 66.015 188.335 65.07 189.135 64.605C189.935 64.14 191.01 64.225 192.135 64.86C194.33 66.105 196.135 69.145 196.135 71.64V73.605C196.17 75.4275 196.523 77.2297 197.18 78.93L197.845 80.725C197.857 80.7555 197.863 80.7881 197.862 80.8208C197.861 80.8536 197.854 80.8858 197.84 80.9157C197.827 80.9455 197.807 80.9723 197.783 80.9945C197.759 81.0168 197.731 81.0339 197.7 81.045L197.6 81.06Z" fill="white"/>
<path d="M195.395 81.775C195.342 81.7753 195.289 81.7585 195.246 81.727C195.203 81.6955 195.171 81.651 195.155 81.6L194.805 80.42C194.167 78.3488 193.831 76.1968 193.805 74.03V71C193.766 70.3136 193.565 69.6464 193.217 69.0534C192.869 68.4604 192.385 67.9588 191.805 67.59C191.624 67.4574 191.412 67.3747 191.189 67.3502C190.966 67.3256 190.74 67.36 190.535 67.45C190.359 67.5775 190.221 67.7492 190.133 67.9476C190.045 68.1461 190.011 68.3642 190.035 68.58C190.035 71.96 191.065 75.855 192.93 79.55L193.635 80.945C193.65 80.9745 193.659 81.0067 193.661 81.0396C193.663 81.0726 193.659 81.1057 193.649 81.137C193.638 81.1684 193.622 81.1973 193.6 81.2223C193.578 81.2472 193.552 81.2677 193.522 81.2825C193.493 81.2972 193.461 81.306 193.428 81.3084C193.395 81.3107 193.362 81.3066 193.33 81.2961C193.299 81.2857 193.27 81.2692 193.245 81.2475C193.22 81.2259 193.2 81.1995 193.185 81.17L192.485 79.775C190.58 76.01 189.535 72.035 189.535 68.58C189.507 68.2767 189.561 67.9715 189.691 67.6962C189.821 67.4209 190.023 67.1856 190.275 67.015C190.555 66.8798 190.866 66.8215 191.176 66.8461C191.487 66.8707 191.785 66.9773 192.04 67.155C192.695 67.5702 193.243 68.1354 193.637 68.804C194.03 69.4726 194.26 70.2253 194.305 71V74.04C194.328 76.1593 194.656 78.2644 195.28 80.29L195.63 81.465C195.64 81.4965 195.643 81.5297 195.64 81.5625C195.637 81.5954 195.627 81.6272 195.611 81.6562C195.595 81.6852 195.574 81.7106 195.548 81.731C195.522 81.7514 195.492 81.7664 195.46 81.775C195.439 81.7791 195.416 81.7791 195.395 81.775Z" fill="white"/>
<path d="M192.59 76.5C192.533 76.4994 192.478 76.4799 192.434 76.4446C192.39 76.4093 192.358 76.3602 192.345 76.305L192.115 75.235C191.895 74.2062 191.785 73.1571 191.785 72.105V69.29C191.785 69.2237 191.811 69.1601 191.858 69.1133C191.905 69.0664 191.969 69.04 192.035 69.04C192.101 69.04 192.165 69.0664 192.212 69.1133C192.259 69.1601 192.285 69.2237 192.285 69.29V72.105C192.288 73.1134 192.395 74.1187 192.605 75.105L192.835 76.175C192.842 76.2069 192.843 76.2399 192.838 76.2721C192.832 76.3044 192.82 76.3351 192.802 76.3626C192.784 76.3901 192.761 76.4138 192.734 76.4322C192.707 76.4507 192.677 76.4635 192.645 76.47L192.59 76.5Z" fill="white"/>
<path d="M184.88 71.075C184.818 71.0742 184.759 71.0509 184.713 71.0095C184.667 70.9681 184.637 70.9114 184.63 70.85L184.485 69.39C184.479 69.3239 184.5 69.2582 184.542 69.2068C184.584 69.1555 184.644 69.1225 184.71 69.115C184.743 69.1108 184.776 69.1134 184.808 69.1226C184.84 69.1318 184.87 69.1474 184.896 69.1684C184.922 69.1895 184.943 69.2155 184.958 69.245C184.973 69.2745 184.983 69.3068 184.985 69.34L185.13 70.8C185.133 70.8328 185.13 70.866 185.121 70.8977C185.111 70.9294 185.096 70.9588 185.075 70.9844C185.054 71.01 185.028 71.0311 184.999 71.0467C184.97 71.0622 184.938 71.0718 184.905 71.075H184.88Z" fill="white"/>
<path d="M206.295 105.77L181.795 91.895C181.538 91.7061 181.227 91.6042 180.908 91.6042C180.588 91.6042 180.277 91.7061 180.02 91.895L177.9 93.355L179.345 95.14V120.955C179.345 122.76 180.445 124.855 181.795 125.64L205.68 139.14L205.79 141.06L208.02 139.535C208.277 139.294 208.476 138.998 208.601 138.669C208.725 138.339 208.773 137.986 208.74 137.635V110.435C208.75 108.645 207.65 106.55 206.295 105.77Z" fill="#22B0A2"/>
<path opacity="0.3" d="M206.295 105.77L181.795 91.895C181.538 91.7061 181.227 91.6042 180.908 91.6042C180.588 91.6042 180.277 91.7061 180.02 91.895L177.9 93.355L179.345 95.14V120.955C179.345 122.76 180.445 124.855 181.795 125.64L205.68 139.14L205.79 141.06L208.02 139.535C208.277 139.294 208.476 138.998 208.601 138.669C208.725 138.339 208.773 137.986 208.74 137.635V110.435C208.75 108.645 207.65 106.55 206.295 105.77Z" fill="black"/>
<path d="M204.215 140.94L179.715 127.07C178.36 126.29 177.265 124.195 177.265 122.385V95.1849C177.265 93.3799 178.36 92.5499 179.715 93.3299L204.215 107.2C205.57 107.985 206.665 110.08 206.665 111.885V139.09C206.665 140.895 205.57 141.725 204.215 140.94Z" fill="#22B0A2"/>
<path d="M182.725 102.775C182.659 102.775 182.595 102.749 182.548 102.702C182.501 102.655 182.475 102.591 182.475 102.525V100.84C182.474 100.673 182.517 100.508 182.6 100.363C182.684 100.218 182.805 100.098 182.95 100.015C183.101 99.9242 183.274 99.8762 183.45 99.8762C183.626 99.8762 183.799 99.9242 183.95 100.015L185.715 101.015C185.773 101.048 185.816 101.102 185.835 101.166C185.853 101.23 185.845 101.299 185.813 101.358C185.78 101.416 185.726 101.459 185.661 101.477C185.597 101.495 185.528 101.488 185.47 101.455L183.7 100.455C183.624 100.411 183.538 100.388 183.45 100.388C183.362 100.388 183.276 100.411 183.2 100.455C183.131 100.494 183.073 100.55 183.034 100.619C182.994 100.688 182.974 100.766 182.975 100.845V102.53C182.974 102.595 182.947 102.658 182.9 102.704C182.853 102.749 182.79 102.775 182.725 102.775Z" fill="white"/>
<path d="M185.565 125.96C185.523 125.96 185.482 125.949 185.445 125.93L183.795 124.995C183.401 124.768 183.073 124.441 182.846 124.046C182.618 123.652 182.499 123.205 182.5 122.75V121.195C182.5 121.129 182.526 121.065 182.573 121.018C182.62 120.971 182.684 120.945 182.75 120.945C182.816 120.945 182.88 120.971 182.927 121.018C182.974 121.065 183 121.129 183 121.195V122.75C183.002 123.119 183.101 123.481 183.288 123.799C183.475 124.117 183.743 124.379 184.065 124.56L185.715 125.495C185.762 125.523 185.798 125.565 185.819 125.616C185.84 125.666 185.843 125.722 185.829 125.775C185.815 125.828 185.784 125.874 185.741 125.908C185.697 125.941 185.645 125.959 185.59 125.96H185.565Z" fill="white"/>
<path d="M200.5 134.315C200.325 134.318 200.152 134.273 200 134.185L198.235 133.185C198.177 133.152 198.135 133.098 198.117 133.035C198.099 132.971 198.108 132.903 198.14 132.845C198.173 132.788 198.228 132.747 198.291 132.729C198.354 132.711 198.422 132.719 198.48 132.75L200.25 133.75C200.326 133.794 200.412 133.817 200.5 133.817C200.588 133.817 200.674 133.794 200.75 133.75C200.819 133.711 200.877 133.655 200.916 133.586C200.956 133.517 200.976 133.439 200.975 133.36V131.675C200.975 131.609 201.001 131.545 201.048 131.498C201.095 131.451 201.159 131.425 201.225 131.425C201.291 131.425 201.355 131.451 201.402 131.498C201.449 131.545 201.475 131.609 201.475 131.675V133.36C201.476 133.527 201.433 133.69 201.349 133.835C201.266 133.979 201.145 134.098 201 134.18C200.849 134.27 200.676 134.316 200.5 134.315Z" fill="white"/>
<path d="M201.215 113.25C201.149 113.25 201.085 113.224 201.038 113.177C200.991 113.13 200.965 113.066 200.965 113V111.445C200.964 111.077 200.864 110.715 200.677 110.398C200.49 110.081 200.222 109.819 199.9 109.64L198.25 108.705C198.192 108.671 198.15 108.616 198.132 108.552C198.114 108.487 198.122 108.418 198.155 108.36C198.171 108.331 198.193 108.306 198.219 108.286C198.245 108.266 198.274 108.251 198.306 108.243C198.338 108.235 198.371 108.233 198.403 108.237C198.436 108.242 198.467 108.253 198.495 108.27L200.145 109.205C200.543 109.428 200.875 109.753 201.107 110.147C201.339 110.54 201.462 110.988 201.465 111.445V113C201.465 113.066 201.439 113.13 201.392 113.177C201.345 113.224 201.281 113.25 201.215 113.25Z" fill="white"/>
<path d="M184.94 111.185C184.996 114.024 185.402 116.845 186.15 119.585C188.05 126.755 195.545 131.16 197.605 126.305C198.573 123.916 199.047 121.357 199 118.78C199 114.38 195.85 109.03 191.97 106.83C188 104.585 184.885 106.67 184.94 111.185Z" fill="white"/>
<path d="M191.72 115.19V119.9L189.675 118.37L191.72 115.19Z" fill="#E0E0E0"/>
<path d="M187.915 112.375C187.928 112.606 187.996 112.83 188.112 113.03C188.229 113.23 188.391 113.399 188.585 113.525C188.96 113.735 189.26 113.565 189.26 113.14C189.247 112.909 189.179 112.685 189.061 112.486C188.944 112.286 188.781 112.118 188.585 111.995C188.215 111.785 187.915 111.955 187.915 112.375Z" fill="#E0E0E0"/>
<path d="M194.175 115.965C194.189 116.196 194.258 116.419 194.375 116.618C194.492 116.817 194.655 116.986 194.85 117.11C195.225 117.32 195.525 117.15 195.525 116.73C195.512 116.498 195.444 116.273 195.326 116.073C195.209 115.873 195.046 115.704 194.85 115.58C194.5 115.37 194.175 115.54 194.175 115.965Z" fill="#E0E0E0"/>
<path d="M191.045 122.205L193.33 121.82C193.33 121.82 192.845 124.26 191.045 122.205Z" fill="#E0E0E0"/>
<path d="M170.695 107.86C170.719 108.255 170.836 108.638 171.037 108.979C171.237 109.32 171.516 109.608 171.85 109.82C172.49 110.185 173.005 109.89 173.005 109.17C172.982 108.774 172.865 108.39 172.664 108.048C172.464 107.707 172.184 107.418 171.85 107.205C171.215 106.84 170.695 107.135 170.695 107.86Z" fill="#455A64"/>
<path d="M170.74 108.405C170.697 108.405 170.654 108.394 170.615 108.375L164.695 105C161.23 103.04 158.41 98.245 158.41 94.32C158.41 90.55 155.705 85.955 152.38 84.07L148.67 81.97C148.612 81.9374 148.57 81.8833 148.552 81.8196C148.534 81.7559 148.543 81.6877 148.575 81.63C148.591 81.6009 148.612 81.5754 148.638 81.5548C148.663 81.5342 148.693 81.519 148.725 81.5101C148.757 81.5013 148.79 81.4989 148.822 81.5032C148.855 81.5074 148.887 81.5182 148.915 81.535L152.625 83.635C156.09 85.6 158.91 90.39 158.91 94.32C158.91 98.085 161.615 102.68 164.94 104.565L170.865 107.925C170.923 107.958 170.965 108.012 170.983 108.075C171.001 108.139 170.992 108.207 170.96 108.265C170.939 108.306 170.907 108.34 170.869 108.365C170.83 108.389 170.786 108.403 170.74 108.405Z" fill="#455A64"/>
<path d="M147.155 80.77C147.174 81.09 147.269 81.4009 147.431 81.6773C147.594 81.9537 147.82 82.1876 148.09 82.36C148.59 82.65 149.025 82.415 149.025 81.83C149.006 81.5099 148.911 81.199 148.749 80.9226C148.586 80.6463 148.36 80.4123 148.09 80.24C147.575 79.95 147.155 80.185 147.155 80.77Z" fill="#455A64"/>
<path d="M154.19 126.6C154.19 126.6 157.835 126.355 159.9 131.42C161.185 134.57 162.75 139.42 163.75 142.67C164.054 143.651 164.061 144.701 163.771 145.686C163.481 146.671 162.907 147.549 162.12 148.21L155.765 153.545L153.5 149.41C154.821 147.648 156.273 145.988 157.845 144.445L153.5 131.42L154.19 126.6Z" fill="#FFA8A7"/>
<path d="M155.87 142.07C155.87 142.07 161.66 142.835 163.105 138.37C163.105 138.37 160.605 131.835 159.485 129.665C158.365 127.495 156.025 125.915 154.19 126.6C152.355 127.285 155.87 142.07 155.87 142.07Z" fill="#22B0A2"/>
<path opacity="0.4" d="M155.87 142.07C155.87 142.07 161.66 142.835 163.105 138.37C163.105 138.37 160.605 131.835 159.485 129.665C158.365 127.495 156.025 125.915 154.19 126.6C152.355 127.285 155.87 142.07 155.87 142.07Z" fill="white"/>
<path d="M152 200.7C152 200.7 149.25 198.345 148.18 198.235C147.11 198.125 145.26 199.955 146.825 203.13C147.26 204.015 149.03 204.97 150.135 206.665C151.24 208.36 152.23 209.635 153.925 209.4C155.62 209.165 155.84 208.215 155.73 207.11C155.587 206.099 155.385 205.097 155.125 204.11L152 200.7Z" fill="#37474F"/>
<path d="M154 208.895C152.255 209.135 151.23 207.82 150.09 206.075C148.95 204.33 147.13 203.34 146.68 202.43C146.5 202.066 146.353 201.686 146.24 201.295C146.323 201.935 146.516 202.556 146.81 203.13C147.245 204.015 149.015 204.97 150.12 206.665C151.225 208.36 152.215 209.635 153.91 209.4C155.21 209.225 155.64 208.62 155.72 207.85C155.5 208.37 155.025 208.76 154 208.895Z" fill="#263238"/>
<path d="M150.54 203.73C150.496 203.731 150.452 203.719 150.415 203.695C150.384 203.679 150.357 203.656 150.334 203.629C150.312 203.602 150.295 203.571 150.285 203.538C150.275 203.504 150.271 203.469 150.275 203.434C150.278 203.4 150.288 203.366 150.305 203.335C150.865 202.343 151.794 201.614 152.89 201.305C152.957 201.295 153.026 201.31 153.083 201.349C153.139 201.387 153.179 201.445 153.194 201.512C153.209 201.578 153.199 201.648 153.164 201.707C153.13 201.766 153.075 201.81 153.01 201.83C152.067 202.105 151.266 202.734 150.775 203.585C150.752 203.628 150.719 203.664 150.677 203.69C150.636 203.715 150.589 203.729 150.54 203.73Z" fill="#EBEBEB"/>
<path d="M149.5 202.78C149.457 202.78 149.414 202.769 149.375 202.75C149.344 202.734 149.317 202.711 149.294 202.684C149.272 202.657 149.255 202.626 149.245 202.593C149.235 202.559 149.231 202.524 149.235 202.489C149.238 202.455 149.248 202.421 149.265 202.39C149.542 201.898 149.913 201.465 150.358 201.117C150.802 200.768 151.311 200.511 151.855 200.36C151.891 200.341 151.931 200.331 151.971 200.33C152.012 200.329 152.052 200.338 152.088 200.354C152.125 200.371 152.157 200.397 152.183 200.428C152.208 200.459 152.226 200.496 152.236 200.536C152.245 200.575 152.245 200.616 152.235 200.655C152.226 200.695 152.208 200.732 152.182 200.763C152.157 200.794 152.124 200.819 152.087 200.836C152.051 200.853 152.01 200.861 151.97 200.86C151.027 201.138 150.227 201.768 149.735 202.62C149.716 202.667 149.683 202.707 149.641 202.735C149.6 202.763 149.55 202.779 149.5 202.78Z" fill="#EBEBEB"/>
<path d="M148.335 201.835C148.292 201.835 148.249 201.824 148.21 201.805C148.147 201.771 148.1 201.714 148.08 201.645C148.059 201.577 148.066 201.503 148.1 201.44C148.661 200.449 149.593 199.721 150.69 199.415C150.724 199.407 150.76 199.406 150.794 199.411C150.829 199.417 150.862 199.43 150.892 199.448C150.922 199.467 150.947 199.491 150.968 199.52C150.988 199.548 151.002 199.581 151.01 199.615C151.025 199.685 151.012 199.757 150.973 199.817C150.935 199.877 150.874 199.919 150.805 199.935C149.862 200.213 149.062 200.844 148.57 201.695C148.548 201.738 148.514 201.774 148.472 201.798C148.431 201.823 148.383 201.836 148.335 201.835Z" fill="#EBEBEB"/>
<path d="M137.365 208.425C137.365 208.425 133.68 207.23 132.58 207.56C131.48 207.89 130.405 210.46 133.255 212.955C134.045 213.645 136.185 213.865 137.975 215.085C139.765 216.305 141.265 217.15 142.845 216.225C144.425 215.3 144.295 214.225 144.01 213.085C143.655 211.615 143.365 210.545 143.365 210.545L137.365 208.425Z" fill="#37474F"/>
<path d="M142.725 215.69C141.1 216.645 139.545 215.77 137.725 214.51C135.905 213.25 133.675 213.01 132.86 212.315C132.53 212.028 132.227 211.712 131.955 211.37C132.3 211.971 132.747 212.507 133.275 212.955C134.065 213.645 136.205 213.865 137.995 215.085C139.785 216.305 141.285 217.15 142.865 216.225C144.07 215.52 144.25 214.725 144.015 213.95C144 214.555 143.66 215.14 142.725 215.69Z" fill="#263238"/>
<path d="M136.5 211.83H136.475C136.404 211.822 136.339 211.787 136.294 211.732C136.249 211.677 136.228 211.606 136.235 211.535C136.38 210.331 136.997 209.234 137.95 208.485C137.978 208.465 138.01 208.45 138.044 208.442C138.078 208.434 138.113 208.433 138.147 208.438C138.182 208.444 138.215 208.456 138.244 208.475C138.274 208.493 138.3 208.517 138.32 208.545C138.361 208.603 138.378 208.675 138.367 208.745C138.356 208.815 138.317 208.878 138.26 208.92C137.436 209.585 136.899 210.54 136.76 211.59C136.754 211.655 136.724 211.715 136.676 211.76C136.628 211.804 136.565 211.829 136.5 211.83Z" fill="#EBEBEB"/>
<path d="M138 212.325C137.93 212.317 137.866 212.283 137.821 212.229C137.776 212.175 137.754 212.105 137.76 212.035C137.907 210.831 138.523 209.733 139.475 208.98C139.533 208.939 139.606 208.923 139.676 208.935C139.746 208.947 139.809 208.987 139.85 209.045C139.87 209.074 139.884 209.106 139.892 209.14C139.9 209.174 139.9 209.209 139.894 209.244C139.888 209.278 139.876 209.311 139.857 209.34C139.838 209.37 139.814 209.395 139.785 209.415C138.959 210.078 138.421 211.035 138.285 212.085C138.279 212.155 138.245 212.219 138.192 212.264C138.138 212.309 138.07 212.331 138 212.325Z" fill="#EBEBEB"/>
<path d="M135.08 211.315H135.055C134.985 211.307 134.921 211.273 134.876 211.219C134.831 211.165 134.809 211.095 134.815 211.025C134.959 209.82 135.576 208.721 136.53 207.97C136.588 207.929 136.659 207.912 136.729 207.924C136.799 207.936 136.861 207.975 136.903 208.032C136.944 208.09 136.96 208.162 136.948 208.232C136.937 208.302 136.898 208.364 136.84 208.405C136.014 209.068 135.476 210.025 135.34 211.075C135.334 211.14 135.304 211.2 135.256 211.245C135.208 211.289 135.145 211.314 135.08 211.315Z" fill="#EBEBEB"/>
<path d="M155.3 201.4C155.63 197.75 156.345 192.03 156.645 189.355C157.049 185.974 156.951 182.552 156.355 179.2C156.202 178.41 156.163 177.601 156.24 176.8C156.965 169.53 157.435 157.745 157.035 155.155L146.83 157.315C146.83 157.315 148.08 173.85 148.63 179.35C149.18 184.85 151.23 201.45 151.23 201.45C151.839 201.84 152.549 202.043 153.272 202.034C153.996 202.025 154.701 201.805 155.3 201.4Z" fill="#455A64"/>
<path d="M153.83 205.155C154.112 205.089 154.375 204.961 154.6 204.779C154.825 204.597 155.006 204.367 155.13 204.105C155.13 203.53 155.195 202.57 155.3 201.4C154.701 201.805 153.996 202.025 153.272 202.034C152.549 202.043 151.839 201.84 151.23 201.45L151.59 204.52C151.89 204.79 152.248 204.988 152.636 205.098C153.025 205.208 153.433 205.227 153.83 205.155Z" fill="#FFA8A7"/>
<path d="M143.82 207.82C144.235 202.29 145.04 191.585 145.145 189.9C145.223 188.041 145.106 186.179 144.795 184.345C144.614 183.353 144.614 182.337 144.795 181.345L149.295 156.455L136.96 156.275L136.155 182.35C136.146 182.684 136.159 183.018 136.195 183.35L138.81 207.655C138.81 207.655 141.36 209.8 143.82 207.82Z" fill="#455A64"/>
<path d="M141.76 212.38C142.144 212.336 142.51 212.196 142.826 211.975C143.142 211.753 143.398 211.456 143.57 211.11L143.82 207.82C141.36 209.82 138.82 207.665 138.82 207.665L139.21 211.305C139.21 211.305 139.78 212.565 141.76 212.38Z" fill="#FFA8A7"/>
<path d="M142.66 128.26L139.75 129.26L136.62 144.065L136.775 157.19C136.775 157.19 139.01 158.975 147.74 158.975C152.64 158.975 155.835 157.125 157.035 155.16L156.25 147.23C156.25 147.23 157.035 139.415 157.035 135.55C157.035 131.685 157.21 128.52 154.19 126.605L151.5 126.83L142.66 128.26Z" fill="#22B0A2"/>
<path opacity="0.2" d="M142.66 128.26L139.75 129.26L136.62 144.065L136.775 157.19C136.775 157.19 139.01 158.975 147.74 158.975C152.64 158.975 155.835 157.125 157.035 155.16L156.25 147.23C156.25 147.23 157.035 139.415 157.035 135.55C157.035 131.685 157.21 128.52 154.19 126.605L151.5 126.83L142.66 128.26Z" fill="white"/>
<path d="M139.5 115.535L138.045 118.42C138.024 118.462 138.012 118.508 138.011 118.555C138.009 118.601 138.017 118.648 138.036 118.691C138.054 118.734 138.081 118.773 138.115 118.805C138.15 118.837 138.19 118.861 138.235 118.875L139.96 119.455L139.5 115.535Z" fill="#F28F8F"/>
<path d="M141.5 110.7C141.5 110.7 139.29 111.89 139.29 118.7C139.29 122.455 139.55 124.85 141.5 124.7C143.45 124.55 149.07 123.815 149.07 123.815V110.7H141.5Z" fill="#FFA8A7"/>
<path d="M141.5 124.725C142.185 124.67 143.325 124.545 144.5 124.405V123.71C143.428 124.167 142.307 124.503 141.16 124.71C141.273 124.723 141.386 124.728 141.5 124.725Z" fill="#F28F8F"/>
<path d="M144.2 123.42V127.705H150.065V121.685L144.2 123.42Z" fill="#FFA8A7"/>
<path d="M144.2 126.075C144.2 126.075 146.31 126.825 148 126.53C149.69 126.235 150.065 125.205 150.065 125.205C150.065 125.205 150.615 125.16 151.5 126.825C151.155 127.447 150.662 127.974 150.065 128.36C149.467 128.746 148.784 128.977 148.075 129.035C146.236 129.153 144.392 128.889 142.66 128.26C142.66 128.26 143.5 125.86 144.2 126.075Z" fill="#22B0A2"/>
<path opacity="0.4" d="M144.2 126.075C144.2 126.075 146.31 126.825 148 126.53C149.69 126.235 150.065 125.205 150.065 125.205C150.065 125.205 150.615 125.16 151.5 126.825C151.155 127.447 150.662 127.974 150.065 128.36C149.467 128.746 148.784 128.977 148.075 129.035C146.236 129.153 144.392 128.889 142.66 128.26C142.66 128.26 143.5 125.86 144.2 126.075Z" fill="white"/>
<path d="M131.115 138.795L129.54 141.215C129.54 141.215 125.715 139.51 123.04 138.475C121.482 137.896 120.032 137.062 118.75 136.005C118.846 134.963 119.013 133.929 119.25 132.91C119.56 131.86 119.665 130.985 118.75 131.45C117.835 131.915 117.2 133.72 117.145 133.95C117.145 133.95 111.77 128.545 111.1 128.665C110.43 128.785 110.6 129.595 112.03 131.26L113.475 132.93C113.475 132.93 110.18 134.825 110.715 136.895C111.25 138.965 115.595 139.895 115.595 139.895C115.595 139.895 128.31 149.665 131.125 147.895C133.94 146.125 137.925 141.07 137.925 141.07L131.115 138.795Z" fill="#FFA8A7"/>
<path d="M140.905 128.875C140.905 128.875 143.255 130.805 141.725 134.795C140.195 138.785 136.29 143.605 136.29 143.605C136.29 143.605 132.2 142.33 130.62 139.025L135.78 130.95C136.146 130.375 136.642 129.894 137.229 129.547C137.815 129.199 138.475 128.995 139.155 128.95C139.645 128.92 140.225 128.895 140.905 128.875Z" fill="#22B0A2"/>
<path opacity="0.4" d="M140.905 128.875C140.905 128.875 143.255 130.805 141.725 134.795C140.195 138.785 136.29 143.605 136.29 143.605C136.29 143.605 132.2 142.33 130.62 139.025L135.78 130.95C136.146 130.375 136.642 129.894 137.229 129.547C137.815 129.199 138.475 128.995 139.155 128.95C139.645 128.92 140.225 128.895 140.905 128.875Z" fill="white"/>
<path d="M140.675 106.68C140.675 106.68 138.355 106.37 137.765 107.965C137.395 108.965 138.575 109.735 138.575 109.735C138.575 109.735 137.075 111.14 139.31 111.575C139.271 111.815 139.293 112.061 139.373 112.29C139.452 112.52 139.588 112.726 139.766 112.89C139.945 113.055 140.162 113.172 140.397 113.232C140.633 113.293 140.879 113.293 141.115 113.235C141.115 113.235 140.855 114.735 142.81 115.28C142.81 115.28 141.81 117.91 143.68 117.945H145.415L144.715 119.975C144.715 119.975 146.015 123.105 150.065 123.105C150.509 122.154 151.01 121.231 151.565 120.34C152.065 119.715 154.565 116.51 154.565 113.97C154.565 111.43 153.59 109.925 152.235 109.59C151.806 108.657 151.136 107.854 150.295 107.265C148.93 106.345 146.06 105.525 144.44 106.655C144.44 106.655 143.005 104.77 142.01 104.77C141.015 104.77 140.675 105.795 140.675 106.68Z" fill="#263238"/>
<path d="M143.68 117.945C143.68 117.945 143.51 115.28 145.755 115.28C148 115.28 147.47 119.975 144.715 119.975L143.68 117.945Z" fill="#FFA8A7"/>
</svg>
