<svg width="200" height="200" viewBox="0 0 200 200" fill="none" xmlns="http://www.w3.org/2000/svg">
<path d="M135.484 151.62H95.612V184.564H135.484V151.62Z" fill="#019267"/>
<path opacity="0.1" d="M135.484 151.62H95.612V184.564H135.484V151.62Z" fill="black"/>
<path d="M151.284 151.624H135.484V184.568H151.284V151.624Z" fill="#019267"/>
<path opacity="0.2" d="M151.284 151.624H135.484V184.568H151.284V151.624Z" fill="black"/>
<path d="M150.192 182.296C149.024 179.954 147.865 177.605 146.716 175.248L143.288 168.16L139.904 161.044C138.784 158.668 137.673 156.284 136.572 153.892C137.745 156.236 138.905 158.585 140.052 160.94L143.476 168.028L146.86 175.144C147.985 177.52 149.096 179.904 150.192 182.296Z" fill="#019267"/>
<path d="M150.192 153.892C149.093 156.292 147.983 158.676 146.86 161.044L143.476 168.16L140.052 175.248C138.903 177.602 137.743 179.952 136.572 182.296C137.673 179.896 138.784 177.512 139.904 175.144L143.288 168.028L146.716 160.944C147.865 158.584 149.024 156.233 150.192 153.892Z" fill="#019267"/>
<path d="M118.368 158.74H117.74H117.264L116.996 158.192L116.616 158.74L116.1 157.612L115.616 158.74H114.224H113.588L113.356 157.988L113.14 158.74H112.728V151.624H118.368V158.74Z" fill="white"/>
<path d="M137.888 118.68H108.14V151.62H137.888V118.68Z" fill="#019267"/>
<path d="M153.248 118.68H137.888V151.624H153.248V118.68Z" fill="#019267"/>
<path opacity="0.1" d="M153.248 118.68H137.888V151.624H153.248V118.68Z" fill="black"/>
<g opacity="0.1">
<path d="M135.708 149.352C133.524 147.008 131.359 144.658 129.212 142.304L122.8 135.2L116.484 128.084C114.388 125.708 112.313 123.324 110.26 120.932C112.447 123.276 114.612 125.626 116.756 127.984L123.156 135.068L129.472 142.184C131.576 144.57 133.655 146.96 135.708 149.352Z" fill="black"/>
<path d="M135.708 120.947C133.652 123.347 131.577 125.731 129.484 128.099L123.168 135.199L116.768 142.287C114.635 144.642 112.469 146.991 110.272 149.335C112.328 146.935 114.403 144.551 116.496 142.183L122.8 135.083L129.2 127.999C131.352 125.639 133.521 123.289 135.708 120.947Z" fill="black"/>
</g>
<path d="M151.088 146.048H148.396V149.848H151.088V146.048Z" fill="white"/>
<path d="M16.58 184.58L37.436 184.48L58.292 184.448L100 184.38L141.708 184.448L162.564 184.48L183.42 184.58L162.564 184.676L141.708 184.712L100 184.78L58.292 184.712L37.436 184.676L16.58 184.58Z" fill="#263238"/>
<path d="M115.888 71.1204C115.664 70.9764 115.44 70.8364 115.216 70.7004L115.372 70.4404L116.052 70.8684L115.888 71.1204Z" fill="#263238"/>
<path d="M106.12 111.201H105.832V110.901C106.366 110.913 106.9 110.893 107.432 110.841L107.464 111.141C107.028 111.173 106.572 111.201 106.12 111.201ZM109.088 110.873L109.024 110.581C109.544 110.463 110.055 110.307 110.552 110.113L110.66 110.393C110.148 110.589 109.623 110.747 109.088 110.865V110.873ZM112.14 109.673L111.992 109.413C112.452 109.144 112.889 108.839 113.3 108.501L113.492 108.729C113.069 109.082 112.616 109.399 112.14 109.677V109.673ZM114.672 107.593L114.452 107.389C114.811 106.994 115.141 106.575 115.44 106.133L115.688 106.301C115.381 106.758 115.042 107.193 114.672 107.601V107.593ZM116.504 104.877L116.232 104.749C116.46 104.267 116.646 103.767 116.788 103.253L117.076 103.333C116.931 103.864 116.739 104.382 116.504 104.881V104.877ZM117.368 101.709L117.068 101.685C117.068 101.469 117.096 101.249 117.096 101.037C117.095 100.74 117.077 100.444 117.044 100.149C116.733 100.128 116.423 100.089 116.116 100.033L116.168 99.7368C116.656 99.8249 117.152 99.8704 117.648 99.8728H117.752V100.173H117.644H117.344C117.376 100.462 117.392 100.753 117.392 101.045C117.396 101.261 117.384 101.489 117.368 101.713V101.709ZM119.396 99.9728L119.328 99.6808C119.843 99.559 120.341 99.3763 120.812 99.1368L120.948 99.4048C120.455 99.6561 119.934 99.8482 119.396 99.9768V99.9728ZM114.524 99.6008C114.007 99.4143 113.505 99.1869 113.024 98.9208L113.172 98.6608C113.638 98.918 114.123 99.1374 114.624 99.3168L114.524 99.6008ZM116.676 98.5448C116.501 98.0447 116.27 97.5657 115.988 97.1168L116.24 96.9568C116.536 97.4235 116.778 97.9228 116.96 98.4448L116.676 98.5448ZM122.324 98.4808L122.132 98.2528C122.538 97.91 122.909 97.5282 123.24 97.1128L123.472 97.3008C123.13 97.7356 122.746 98.135 122.324 98.4928V98.4808ZM111.668 98.0008L111.584 97.9208C111.188 97.573 110.873 97.143 110.66 96.6608L110.94 96.5488C111.135 96.9902 111.425 97.3834 111.788 97.7008L111.868 97.7728L111.668 98.0008ZM124.4 95.9568L124.144 95.8008C124.424 95.3368 124.684 94.8608 124.912 94.3928L125.184 94.5248C124.952 95.0008 124.688 95.4848 124.4 95.9568ZM114.992 95.8968C114.627 95.5429 114.224 95.2291 113.792 94.9608L113.732 94.9208L113.888 94.6648L113.952 94.7048C114.398 94.9862 114.812 95.3148 115.188 95.6848L114.992 95.8968ZM111.02 95.1248L110.772 94.9568C110.943 94.7161 111.17 94.5206 111.434 94.3868C111.697 94.2531 111.989 94.1851 112.284 94.1888V94.4888C112.038 94.4873 111.795 94.5442 111.576 94.6548C111.356 94.7653 111.165 94.9264 111.02 95.1248ZM125.82 93.0168L125.54 92.9128C125.725 92.4107 125.884 91.8994 126.016 91.3808L126.304 91.4528C126.175 91.9831 126.015 92.5054 125.824 93.0168H125.82ZM126.62 89.8448L126.32 89.8048C126.391 89.2742 126.433 88.74 126.444 88.2048H126.744C126.733 88.7533 126.692 89.3008 126.62 89.8448ZM126.388 86.6048C126.34 86.0678 126.264 85.5338 126.16 85.0048L126.456 84.9448C126.56 85.4806 126.638 86.0212 126.688 86.5648L126.388 86.6048ZM125.768 83.4608C125.616 82.9568 125.436 82.4488 125.228 81.9448L125.508 81.8328C125.716 82.3408 125.908 82.8608 126.056 83.3728L125.768 83.4608ZM124.568 80.4808C124.328 80.0128 124.06 79.5408 123.768 79.0768L124.024 78.9208C124.312 79.3888 124.584 79.8688 124.824 80.3448L124.568 80.4808ZM122.884 77.7368C122.576 77.3048 122.244 76.8768 121.9 76.4608L122.132 76.2688C122.48 76.6888 122.816 77.1248 123.128 77.5608L122.884 77.7368ZM120.836 75.2488C120.472 74.8488 120.088 74.4768 119.696 74.1088L119.9 73.8888C120.3 74.2648 120.7 74.6528 121.052 75.0448L120.836 75.2488ZM118.488 73.0368C118.088 72.6968 117.652 72.3608 117.224 72.0408L117.4 71.8008C117.836 72.1208 118.268 72.4608 118.68 72.8088L118.488 73.0368Z" fill="#263238"/>
<path d="M104.156 111.056C103.887 111.023 103.62 110.975 103.356 110.912L103.428 110.62C103.428 110.62 103.716 110.692 104.196 110.76L104.156 111.056Z" fill="#263238"/>
<path d="M100.12 110.461C99.932 112.061 103.2 112.957 103.448 110.861C103.696 108.765 100.308 108.849 100.12 110.461Z" fill="#263238"/>
<path d="M104.4 113.108C104.096 113.712 103.02 113.796 101.908 113.02C101.153 112.443 100.515 111.728 100.028 110.912C100.968 110.814 101.919 110.897 102.828 111.156C104.144 111.6 104.72 112.496 104.4 113.108Z" fill="#EBEBEB"/>
<path d="M100.04 110.912C100.672 111.196 101.292 111.504 101.912 111.808C102.532 112.112 103.144 112.436 103.748 112.772C103.116 112.488 102.496 112.18 101.876 111.876C101.256 111.572 100.644 111.248 100.04 110.912Z" fill="#263238"/>
<path d="M102.944 113.097C102.8 112.93 102.667 112.755 102.544 112.573C102.423 112.392 102.314 112.203 102.216 112.009C102.36 112.175 102.493 112.35 102.616 112.533C102.738 112.713 102.847 112.902 102.944 113.097Z" fill="#263238"/>
<path d="M101.6 111.692C101.82 111.635 102.043 111.589 102.268 111.556C102.495 111.524 102.723 111.504 102.952 111.496C102.509 111.606 102.056 111.672 101.6 111.692Z" fill="#263238"/>
<path d="M101.252 111.956C101.114 111.785 101.016 111.585 100.964 111.372C101.102 111.543 101.2 111.743 101.252 111.956Z" fill="#263238"/>
<path d="M104.928 108.92C104.772 108.26 103.748 107.932 102.488 108.428C101.618 108.815 100.831 109.365 100.168 110.048C101.067 110.359 102.018 110.495 102.968 110.448C104.316 110.336 105.088 109.6 104.928 108.92Z" fill="#EBEBEB"/>
<path d="M100.168 110.049C100.848 109.921 101.524 109.761 102.196 109.605C102.868 109.449 103.54 109.281 104.196 109.093C103.52 109.221 102.844 109.381 102.172 109.537C101.5 109.693 100.836 109.861 100.168 110.049Z" fill="#263238"/>
<path d="M103.5 108.593C103.326 108.717 103.159 108.85 103 108.993C102.841 109.142 102.69 109.3 102.548 109.465C102.724 109.343 102.891 109.21 103.048 109.065C103.208 108.916 103.359 108.759 103.5 108.593Z" fill="#263238"/>
<path d="M101.86 109.648C102.265 109.859 102.692 110.027 103.132 110.148C102.728 109.936 102.301 109.768 101.86 109.648Z" fill="#263238"/>
<path d="M101.6 109.312C101.513 109.378 101.434 109.453 101.364 109.536C101.295 109.622 101.235 109.715 101.184 109.812C101.271 109.746 101.35 109.669 101.42 109.584C101.493 109.503 101.553 109.411 101.6 109.312Z" fill="#263238"/>
<path d="M100.12 110.461C100.235 110.474 100.343 110.521 100.431 110.596C100.518 110.67 100.582 110.769 100.614 110.88C100.646 110.991 100.644 111.109 100.609 111.219C100.573 111.329 100.507 111.426 100.416 111.497C100.326 111.569 100.217 111.613 100.102 111.623C99.9866 111.632 99.8714 111.608 99.7704 111.552C99.6694 111.496 99.5871 111.412 99.534 111.309C99.4809 111.207 99.4593 111.091 99.472 110.977C99.4901 110.822 99.5683 110.682 99.6897 110.585C99.8111 110.488 99.9658 110.444 100.12 110.461Z" fill="#455A64"/>
<path d="M100.256 109.296C100.332 109.305 100.406 109.329 100.474 109.366C100.541 109.404 100.6 109.454 100.648 109.515C100.695 109.575 100.731 109.644 100.752 109.718C100.773 109.792 100.779 109.87 100.77 109.946C100.761 110.022 100.737 110.096 100.7 110.164C100.662 110.231 100.612 110.29 100.551 110.338C100.491 110.385 100.422 110.421 100.348 110.442C100.274 110.463 100.196 110.469 100.12 110.46C99.9657 110.442 99.8248 110.363 99.7284 110.241C99.632 110.12 99.588 109.964 99.606 109.81C99.624 109.656 99.7027 109.515 99.8246 109.418C99.9465 109.322 100.102 109.278 100.256 109.296Z" fill="#455A64"/>
<path d="M64 148.124C64 148.124 55.472 165.2 55.468 165.2C54.764 168.724 54.212 171.832 54.072 173.464C54.0699 173.473 54.0699 173.483 54.072 173.492C53.9982 173.87 54.0132 174.261 54.116 174.632C54.1139 174.641 54.1139 174.651 54.116 174.66C55.024 175.58 83.048 182.032 84.116 181.928C85.184 181.824 84.956 178.812 84.068 177.696C83.18 176.58 73.552 169.296 73.552 169.296L81.888 152.192L64 148.124Z" fill="#D3766A"/>
<path d="M83.692 181.944C82.64 182.048 55.036 175.592 54.132 174.676C54.1307 174.667 54.1307 174.657 54.132 174.648C54.0273 174.277 54.0109 173.887 54.084 173.508C54.0806 173.499 54.0806 173.489 54.084 173.48C54.22 171.848 54.776 168.74 55.476 165.212L57.516 161.124L75.2 165.972L73.568 169.324C73.568 169.324 82.768 176.592 83.66 177.724C84.552 178.856 84.748 181.844 83.692 181.944Z" fill="#EBEBEB"/>
<path d="M84.076 181.496C83.008 181.576 54.916 174.416 54.02 173.464C53.676 173.108 54.48 168.952 55.596 163.96L55.632 163.804L73.808 168.224L73.724 168.528C73.724 168.528 83.248 176.08 84.124 177.232C85 178.384 85.14 181.42 84.076 181.496Z" fill="#263238"/>
<path d="M84.032 180.324C79.328 179.004 60.224 174.108 55.472 173.156C55.432 173.156 55.424 173.176 55.472 173.188C60.108 174.6 79.252 179.34 84.024 180.388C84.116 180.424 84.132 180.352 84.032 180.324Z" fill="white"/>
<path d="M75.232 168.972C73.456 168.148 71.104 167.852 69.344 168.82C69.276 168.856 69.344 168.952 69.392 168.948C71.3196 168.827 73.2546 168.913 75.164 169.204C75.192 169.206 75.2198 169.198 75.2428 169.182C75.2658 169.166 75.2826 169.142 75.2905 169.115C75.2984 169.088 75.2969 169.06 75.2863 169.034C75.2756 169.008 75.2565 168.986 75.232 168.972Z" fill="white"/>
<path d="M76.368 170.125C74.596 169.305 72.244 169.009 70.48 169.973C70.412 170.009 70.48 170.105 70.532 170.105C72.4596 169.982 74.3948 170.067 76.304 170.361C76.3332 170.363 76.3624 170.356 76.3865 170.339C76.4106 170.322 76.428 170.298 76.4357 170.27C76.4434 170.241 76.4408 170.211 76.4284 170.185C76.416 170.158 76.3946 170.137 76.368 170.125Z" fill="white"/>
<path d="M77.508 171.281C75.732 170.457 73.38 170.161 71.62 171.125C71.552 171.165 71.62 171.261 71.672 171.257C73.5983 171.136 75.532 171.222 77.44 171.513C77.468 171.514 77.4958 171.506 77.5188 171.49C77.5418 171.474 77.5586 171.451 77.5665 171.424C77.5744 171.397 77.5729 171.368 77.5623 171.342C77.5517 171.316 77.5325 171.294 77.508 171.281Z" fill="white"/>
<path d="M84.76 180.6C85.212 180.92 84.672 182.58 84.276 182.624C83.88 182.668 53.284 174.724 52.8 174.472C52.316 174.22 52.98 172.404 53.6 172.472C54.22 172.54 84.76 180.6 84.76 180.6Z" fill="#019267"/>
<path d="M59.468 168.132C57.692 166.596 55.3 169.356 57.068 170.896C58.836 172.436 61.248 169.672 59.468 168.132Z" fill="white"/>
<path d="M57.568 159.76L78.064 164.928C78.064 164.928 97.168 130.452 96.74 121.688C96.152 109.6 81.96 72.4316 81.96 72.4316H64.968C64.968 72.4316 76.244 112.612 76.4 119.372C76.468 122.908 57.568 159.76 57.568 159.76Z" fill="#455A64"/>
<path d="M78.94 160.768C77.848 160.332 68.092 157.516 60.812 155.968C60.804 155.97 60.797 155.975 60.7921 155.982C60.7872 155.989 60.7845 155.997 60.7845 156.006C60.7845 156.014 60.7872 156.022 60.7921 156.029C60.797 156.036 60.804 156.041 60.812 156.044C63.104 156.844 77.568 160.656 78.924 160.844C78.956 160.856 78.988 160.8 78.94 160.768Z" fill="#263238"/>
<path d="M77.808 110.74C76.456 105.068 75.008 99.4117 73.488 93.7917C71.968 88.1717 70.34 82.4997 68.552 76.9237C68.336 76.2397 68.108 75.5637 67.888 74.8837C67.8816 74.862 67.8669 74.8436 67.847 74.8328C67.8271 74.8219 67.8038 74.8193 67.782 74.8257C67.7603 74.8321 67.7419 74.8468 67.7311 74.8667C67.7202 74.8866 67.7176 74.91 67.724 74.9317C69.324 80.4877 70.924 86.0317 72.44 91.6077C73.956 97.1837 75.4 102.776 76.76 108.408C77.1 109.8 77.432 111.188 77.756 112.584C78.1326 114.014 78.4238 115.466 78.628 116.932C78.7962 118.332 78.6998 119.751 78.344 121.116C77.958 122.457 77.4534 123.76 76.836 125.012C74.3853 130.332 71.936 135.653 69.488 140.976C67.04 146.312 66.644 147.528 64.288 152.908C63.996 153.576 63.704 154.244 63.424 154.908C63.424 154.952 63.468 154.992 63.492 154.944C66.172 149.672 66.584 148.404 69.092 143.036C71.6 137.668 74.092 132.236 76.58 126.832C77.7 124.392 79.016 121.904 79.184 119.176C79.352 116.328 78.456 113.472 77.808 110.74Z" fill="#263238"/>
<path d="M78.736 154.876L79.392 173.676C79.5 177.276 79.656 180.424 79.892 182.044C79.8901 182.053 79.8901 182.063 79.892 182.072C79.9054 182.456 80.0067 182.833 80.188 183.172L80.212 183.196C81.304 183.888 110.06 183.872 111.064 183.532C112.068 183.192 111.18 180.312 110.064 179.42C108.948 178.528 97.932 173.612 97.932 173.612L97.096 154.832L78.736 154.876Z" fill="#D3766A"/>
<path d="M79.256 169.828C79.256 169.828 79.392 173.676 79.392 173.688C79.5 177.288 79.656 180.436 79.892 182.056C79.8901 182.065 79.8901 182.075 79.892 182.084C79.9467 182.461 80.046 182.83 80.188 183.184L80.212 183.208C81.304 183.9 110.06 183.884 111.064 183.544C112.068 183.204 111.18 180.324 110.064 179.432C108.948 178.54 97.932 173.624 97.932 173.624L97.848 169.708L79.256 169.828Z" fill="#EBEBEB"/>
<path d="M111.08 183.512C110.064 183.836 81.08 183.388 79.984 182.668C79.584 182.4 79.384 178.176 79.312 173.068V172.908L98.016 172.988V173.308C98.016 173.308 109.036 178.44 110.152 179.356C111.268 180.272 112.1 183.2 111.08 183.512Z" fill="#263238"/>
<path d="M110.772 182.4C105.888 182.204 86.168 181.876 81.324 182.056C81.284 182.056 81.284 182.084 81.324 182.084C86.16 182.384 105.884 182.556 110.772 182.484C110.872 182.46 110.876 182.4 110.772 182.4Z" fill="white"/>
<path d="M99.576 173.38C97.66 172.98 95.3 173.248 93.812 174.58C93.752 174.632 93.812 174.712 93.892 174.696C95.7387 174.133 97.64 173.767 99.564 173.604C99.5872 173.597 99.6075 173.582 99.6224 173.563C99.6373 173.544 99.6459 173.521 99.6472 173.496C99.6485 173.472 99.6424 173.448 99.6297 173.427C99.617 173.406 99.5983 173.39 99.576 173.38Z" fill="white"/>
<path d="M100.952 174.237C99.032 173.837 96.676 174.109 95.188 175.457C95.128 175.509 95.188 175.589 95.264 175.569C97.1117 175.004 99.0146 174.64 100.94 174.481C100.969 174.477 100.996 174.463 101.016 174.442C101.035 174.42 101.047 174.393 101.049 174.364C101.05 174.334 101.041 174.306 101.023 174.282C101.006 174.259 100.98 174.243 100.952 174.237Z" fill="white"/>
<path d="M102.324 175.096C100.408 174.696 98.052 174.964 96.56 176.296C96.504 176.348 96.56 176.428 96.64 176.412C98.4868 175.849 100.388 175.483 102.312 175.32C102.335 175.313 102.356 175.298 102.37 175.279C102.385 175.26 102.394 175.236 102.395 175.212C102.397 175.188 102.39 175.164 102.378 175.143C102.365 175.122 102.346 175.106 102.324 175.096Z" fill="white"/>
<path d="M111.54 182.48C112.056 182.688 111.916 184.428 111.54 184.56C111.164 184.692 79.54 184.064 79.024 183.936C78.508 183.808 78.716 181.884 79.344 181.792C79.972 181.7 111.54 182.48 111.54 182.48Z" fill="#019267"/>
<path d="M84.048 176.22C81.964 175.136 80.276 178.376 82.364 179.46C84.452 180.544 86.136 177.304 84.048 176.22Z" fill="white"/>
<path d="M81.748 72.3998C81.672 72.7478 77.436 89.4958 76.908 89.8078C76.308 90.1638 92.3 111.68 94.196 122.244C95.396 129 98.196 168.38 98.196 168.38H77.804C77.804 168.38 75.804 134.936 75.14 123.916C74.88 119.64 58.84 99.8718 57.316 86.6918C56.836 82.5398 59.82 72.3838 59.82 72.3838L81.748 72.3998Z" fill="#455A64"/>
<path d="M77.288 152.468C77.048 146.928 76.828 141.376 76.424 135.844C76.196 132.708 75.748 129.672 75.436 126.548C75.436 126.384 75.288 126.344 75.292 126.512C75.436 132.076 75.896 137.58 76.192 143.14C76.488 148.7 76.772 149.996 77.088 155.54C77.264 158.676 77.42 161.812 77.664 164.944C77.6666 164.952 77.6717 164.959 77.6786 164.964C77.6854 164.969 77.6936 164.972 77.702 164.972C77.7104 164.972 77.7186 164.969 77.7255 164.964C77.7323 164.959 77.7374 164.952 77.74 164.944C77.752 159.376 77.532 158.028 77.288 152.468Z" fill="#263238"/>
<path d="M94.216 122.509C94.0416 121.045 93.7581 119.597 93.368 118.177C92.948 116.799 92.3947 115.466 91.716 114.197C90.328 111.533 88.748 108.957 87.224 106.369C85.7 103.781 84.112 101.137 82.504 98.5525C81.6 97.1019 80.692 95.6525 79.78 94.2045C78.852 92.7445 77.872 91.3125 76.916 89.8725C76.9086 89.8603 76.8966 89.8516 76.8827 89.8482C76.8689 89.8448 76.8542 89.8471 76.842 89.8545C76.8298 89.862 76.8211 89.8739 76.8177 89.8878C76.8143 89.9017 76.8166 89.9163 76.824 89.9285C78.384 92.5445 79.928 95.1645 81.488 97.7805C83.048 100.397 84.584 103.021 86.12 105.645C87.656 108.269 89.148 110.813 90.596 113.437C91.309 114.682 91.9229 115.982 92.432 117.325C92.9055 118.715 93.2497 120.147 93.46 121.601C94.004 124.989 94.448 128.401 95.128 131.757C95.1306 131.765 95.1357 131.772 95.1426 131.776C95.1494 131.781 95.1576 131.784 95.166 131.784C95.1744 131.784 95.1826 131.781 95.1895 131.776C95.1963 131.772 95.2014 131.765 95.204 131.757C94.992 128.669 94.624 125.577 94.216 122.509Z" fill="#263238"/>
<path d="M96.4 164.884C95.236 164.732 86.352 164.424 78.92 164.744C78.872 164.744 78.876 164.816 78.92 164.82C81.34 165.032 95.024 165.128 96.388 164.968C96.424 164.964 96.44 164.892 96.4 164.884Z" fill="#263238"/>
<path d="M79.568 88.6645C77.4904 89.4215 75.4827 90.3584 73.568 91.4645C73.5516 91.4719 73.5387 91.4856 73.5324 91.5024C73.526 91.5193 73.5266 91.538 73.534 91.5545C73.5414 91.5709 73.5551 91.5838 73.572 91.5901C73.5889 91.5965 73.6076 91.5959 73.624 91.5885C75.648 90.7165 77.716 89.8845 79.692 88.9045C79.7238 88.888 79.7478 88.8596 79.7587 88.8255C79.7696 88.7914 79.7665 88.7543 79.75 88.7225C79.7336 88.6907 79.7052 88.6667 79.671 88.6558C79.6369 88.6449 79.5998 88.648 79.568 88.6645Z" fill="#263238"/>
<path d="M80.18 74.8003C80.18 74.7323 80.052 74.7163 80.052 74.8003C80.0524 77.0606 79.9389 79.3195 79.712 81.5683C79.616 82.6123 78.776 88.3683 76.968 87.9683C76.664 87.8963 76.512 87.6003 76.464 87.1403C76.469 86.5432 76.5497 85.9492 76.704 85.3723C76.904 84.1723 77.064 82.9723 77.168 81.7363C77.3801 79.4653 77.3559 77.1784 77.096 74.9123C77.0926 74.8995 77.0851 74.8882 77.0746 74.8801C77.0641 74.8721 77.0512 74.8677 77.038 74.8677C77.0248 74.8677 77.0119 74.8721 77.0014 74.8801C76.9909 74.8882 76.9834 74.8995 76.98 74.9123C77.0324 78.0604 76.8479 81.2079 76.428 84.3283C76.2 85.8283 75.444 88.0883 77.016 88.3283C78.588 88.5683 79.648 84.7803 79.84 83.7443C80.3404 80.7903 80.4547 77.7838 80.18 74.8003Z" fill="#263238"/>
<path d="M77.016 88.0925C76.8558 88.483 76.7221 88.884 76.616 89.2925C76.5009 89.6063 76.4439 89.9384 76.448 90.2725C76.4499 90.2862 76.456 90.2989 76.4653 90.3091C76.4747 90.3192 76.4869 90.3262 76.5004 90.3293C76.5138 90.3323 76.5279 90.3312 76.5407 90.3261C76.5535 90.3209 76.5644 90.312 76.572 90.3005C76.761 90.0057 76.9027 89.6831 76.992 89.3445C77.132 88.9725 77.276 88.6085 77.392 88.2325C77.4106 88.1827 77.4086 88.1275 77.3864 88.0791C77.3643 88.0307 77.3239 87.9931 77.274 87.9745C77.2241 87.956 77.169 87.958 77.1206 87.9801C77.0722 88.0022 77.0346 88.0427 77.016 88.0925Z" fill="#263238"/>
<path d="M77.868 129.292C77.676 126.444 77.688 123.44 76.476 120.8C75.8323 119.514 75.0914 118.278 74.26 117.104C73.4333 115.84 72.6173 114.569 71.812 113.292C68.612 108.184 65.524 102.972 62.712 97.632C61.356 95.06 60.108 92.404 59.428 89.564C58.7649 86.5755 58.6389 83.4927 59.056 80.46C59.152 79.704 59.256 78.952 59.38 78.2C59.3804 78.1899 59.3773 78.1798 59.3711 78.1717C59.3649 78.1636 59.3562 78.1579 59.3462 78.1555C59.3363 78.1531 59.3259 78.1543 59.3167 78.1588C59.3076 78.1632 59.3002 78.1708 59.296 78.18C58.6379 81.064 58.4127 84.0298 58.628 86.98C58.9358 89.8007 59.7302 92.5467 60.976 95.096C62.216 97.78 63.692 100.364 65.148 102.936C66.6493 105.603 68.1947 108.231 69.784 110.82C71.384 113.404 73.032 115.936 74.684 118.48C75.5267 119.68 76.1834 121 76.632 122.396C76.9957 123.853 77.2049 125.344 77.256 126.844C77.656 133.14 79.256 154.072 79.824 160.336C79.892 161.136 79.964 161.936 80.04 162.736C80.0377 162.744 80.0374 162.753 80.039 162.762C80.0407 162.77 80.0442 162.778 80.0495 162.785C80.0547 162.792 80.0614 162.797 80.0692 162.801C80.0769 162.805 80.0854 162.807 80.094 162.807C80.1026 162.807 80.1111 162.805 80.1189 162.801C80.1266 162.797 80.1333 162.792 80.1385 162.785C80.1438 162.778 80.1473 162.77 80.149 162.762C80.1506 162.753 80.1503 162.744 80.148 162.736C79.908 156.448 78.28 135.568 77.868 129.292Z" fill="#263238"/>
<path d="M68.08 77.9199C68.08 77.8759 68.008 77.8919 68.008 77.9199C67.948 79.6679 68.008 81.4759 67.324 83.1199C66.708 84.6359 65.468 85.6999 64.08 86.4959C63.2728 86.9488 62.4408 87.3561 61.588 87.7159C61.528 87.7439 61.552 87.8399 61.62 87.8199C63.22 87.3079 64.872 86.7519 66.212 85.6799C67.644 84.5279 68.272 82.8599 68.34 81.0599C68.3645 80.007 68.2774 78.9544 68.08 77.9199Z" fill="#263238"/>
<path d="M76.956 49.4281C79.244 56.4521 85.424 68.4161 87.632 69.8601C89.588 71.1361 98.792 69.7121 102.832 68.7401C104.336 68.3761 100.952 56.9121 99.348 57.3321C97.424 57.8361 91.692 59.1281 91.276 58.8081C90.86 58.4881 85.08 51.3681 80.984 47.1761C77.256 43.3801 76.092 46.7721 76.956 49.4281Z" fill="#D3766A"/>
<path d="M101.948 68.8277C102.72 68.7317 109.252 68.4277 112.248 66.7997C113.848 65.9317 117.932 63.0597 117.524 62.0277C117.152 61.0877 115.84 61.5997 115.84 61.5997C115.84 61.5997 117.644 60.2917 117.116 58.9877C116.588 57.6837 114.408 58.6637 114.408 58.6637C114.408 58.6637 116.164 57.1837 115.544 55.9237C114.924 54.6637 112.9 56.0117 112.9 56.0117C112.9 56.0117 114.568 54.7357 113.62 53.9117C112.476 52.9197 109.664 55.6237 107.764 56.2557C107.332 56.3997 98.82 58.5517 98.82 58.5517L101.948 68.8277Z" fill="#D3766A"/>
<path d="M112.828 55.9763C110.756 57.9563 109.504 58.4643 106.736 59.0243C106.684 59.0243 106.688 59.1203 106.736 59.1123C109.496 58.8123 111.156 58.4003 112.92 56.0723C113.016 55.9563 112.924 55.8803 112.828 55.9763Z" fill="#263238"/>
<path d="M114.34 58.6163C112.008 60.4883 110.656 61.0483 107.8 61.8483C107.76 61.8483 107.776 61.9323 107.82 61.9243C110.684 61.3723 112.332 60.9243 114.416 58.7483C114.512 58.6523 114.448 58.5323 114.34 58.6163Z" fill="#263238"/>
<path d="M115.7 61.6316C113.3 63.2796 111.856 63.9636 108.984 64.3836C108.97 64.3836 108.957 64.3891 108.947 64.3988C108.937 64.4086 108.932 64.4218 108.932 64.4356C108.932 64.4494 108.937 64.4626 108.947 64.4724C108.957 64.4821 108.97 64.4876 108.984 64.4876C111.956 64.3436 113.784 63.5076 115.732 61.7116C115.876 61.5996 115.848 61.5316 115.7 61.6316Z" fill="#263238"/>
<path d="M96.588 58.92C96.588 58.92 98.968 56.228 100.272 55.276C101.576 54.324 107.752 52.564 108.208 53.876C108.796 55.572 105.432 57.288 103.676 57.912C103.676 57.912 105.04 61.832 102.876 63.584C100.712 65.336 96.588 58.92 96.588 58.92Z" fill="#D3766A"/>
<path d="M108.22 54.4004C107.64 56.3324 105.28 57.0044 103.62 57.7364C103.595 57.747 103.574 57.7632 103.556 57.7836C103.539 57.8041 103.527 57.8283 103.521 57.8544C103.515 57.8804 103.515 57.9075 103.521 57.9335C103.527 57.9596 103.539 57.9838 103.556 58.0044C104.02 59.6844 104.18 62.1884 103.004 63.6044C102.972 63.6444 103.024 63.7004 103.064 63.6644C104.532 62.3204 104.572 59.8444 103.948 58.0364C105.664 57.3124 108 56.5324 108.236 54.4084C108.24 54.4004 108.224 54.4004 108.22 54.4004Z" fill="#263238"/>
<path d="M101.944 70.8004L98.928 57.0644L91.464 58.4204C88.52 55.0484 82.636 48.3084 80.264 46.2844C77.464 43.9084 75.632 45.6924 76.664 49.2924C78.996 57.5204 85.816 69.6004 87.6 70.7404C90.188 72.4004 101.944 70.8004 101.944 70.8004Z" fill="#019267"/>
<path opacity="0.1" d="M91.288 62.6C91.6575 62.6804 92.0339 62.7246 92.412 62.732C93.212 62.84 93.564 64.02 92.836 64.468C92.4537 64.7035 92.0215 64.8461 91.5742 64.8843C91.1268 64.9225 90.6767 64.8553 90.26 64.688C89.46 64.376 88.784 63.6 88.956 62.688C88.9858 62.518 89.0591 62.3586 89.1687 62.2253C89.2784 62.092 89.4206 61.9894 89.5817 61.9273C89.7428 61.8653 89.9172 61.8461 90.0879 61.8714C90.2586 61.8968 90.4199 61.9659 90.556 62.072C90.7777 62.2771 91.0235 62.4544 91.288 62.6ZM89.224 59.332C88.936 60.692 91.04 61.86 92.116 61.136C92.2027 61.0703 92.2736 60.986 92.3232 60.8891C92.3728 60.7923 92.4 60.6855 92.4027 60.5768C92.4054 60.468 92.3835 60.36 92.3387 60.2609C92.2939 60.1617 92.2274 60.0739 92.144 60.004C91.828 59.748 91.564 59.708 91.284 59.476C91.1861 59.3996 91.0999 59.3093 91.028 59.208C90.8694 58.9893 90.6662 58.8067 90.432 58.672C90.3101 58.62 90.1781 58.5962 90.0457 58.6026C89.9133 58.609 89.7841 58.6453 89.6678 58.7088C89.5515 58.7724 89.4512 58.8615 89.3743 58.9694C89.2974 59.0774 89.246 59.2014 89.224 59.332ZM85.868 59.404C85.436 59.968 85.76 60.816 86.14 61.328C86.3111 61.583 86.5467 61.7881 86.8228 61.9223C87.099 62.0565 87.4058 62.1151 87.712 62.092C87.8236 62.0763 87.9282 62.0287 88.0133 61.9549C88.0984 61.881 88.1604 61.7841 88.1917 61.6759C88.2229 61.5677 88.2223 61.4527 88.1897 61.3448C88.1571 61.237 88.094 61.1408 88.008 61.068C87.7675 60.8851 87.5752 60.6462 87.448 60.372C87.26 59.948 87.136 59.4 86.648 59.216C86.5148 59.1612 86.3676 59.1499 86.2275 59.1837C86.0875 59.2174 85.9616 59.2945 85.868 59.404ZM94.728 68.3C94.164 69.44 95.88 70.736 96.92 70.512C97.268 70.436 97.604 69.98 97.296 69.652C97.048 69.388 96.752 69.18 96.52 68.9C96.236 68.56 96.08 68.124 95.636 67.952C95.4689 67.8821 95.2814 67.8793 95.1123 67.9441C94.9432 68.0089 94.8055 68.1364 94.728 68.3ZM78.616 54.32C78.5176 54.1327 78.3814 53.9679 78.216 53.836C78.44 54.4094 78.676 54.984 78.924 55.56C78.9373 55.1262 78.8307 54.6972 78.616 54.32ZM80.844 53.12C80.7657 52.1319 80.3796 51.1933 79.74 50.436C79.26 49.816 78.428 48.836 77.548 49.048C77.4545 49.0773 77.3728 49.1358 77.3152 49.2151C77.2576 49.2943 77.227 49.39 77.228 49.488C77.172 50.164 77.948 50.888 78.284 51.428C78.684 52.108 79 52.86 79.432 53.536C79.5223 53.675 79.6551 53.7811 79.8107 53.8383C79.9662 53.8956 80.1361 53.901 80.295 53.8537C80.4538 53.8065 80.5931 53.7091 80.6921 53.5761C80.7911 53.4432 80.8443 53.2818 80.844 53.116V53.12ZM80.584 57.42C80.7403 57.412 80.8899 57.354 81.0109 57.2546C81.1318 57.1553 81.2177 57.0198 81.256 56.868C81.3182 56.5575 81.2975 56.236 81.196 55.936C81.1362 55.6503 80.9976 55.3871 80.796 55.176C80.7238 55.1092 80.6355 55.0623 80.5397 55.0399C80.4439 55.0175 80.344 55.0203 80.2496 55.0481C80.1552 55.076 80.0697 55.1278 80.0014 55.1986C79.9331 55.2694 79.8844 55.3567 79.86 55.452C79.828 55.6856 79.828 55.9225 79.86 56.156C79.86 56.256 79.86 56.356 79.86 56.46C79.8579 56.6107 79.8741 56.7612 79.908 56.908C79.951 57.0542 80.04 57.1825 80.1618 57.274C80.2836 57.3656 80.4317 57.4153 80.584 57.416V57.42Z" fill="#030402"/>
<path d="M99.332 69.6002C98.988 68.8002 98.132 65.2482 97.944 64.3642C97.756 63.4802 97.06 59.9042 96.856 58.9962C96.856 58.9442 96.912 58.9162 96.924 58.9642C97.14 59.8602 98.104 63.3882 98.316 64.2682C98.528 65.1482 99.324 68.6962 99.38 69.5882C99.3808 69.5913 99.3809 69.5946 99.3805 69.5978C99.38 69.601 99.3789 69.6041 99.3772 69.6069C99.3738 69.6125 99.3684 69.6166 99.362 69.6182C99.3556 69.6198 99.3489 69.6188 99.3433 69.6154C99.3377 69.612 99.3336 69.6065 99.332 69.6002Z" fill="#263238"/>
<path opacity="0.1" d="M92.4 71.488C90.3 71.488 88.456 71.288 87.6 70.74C85.804 69.58 78.984 57.54 76.636 49.296C76.044 47.232 76.4 45.76 77.336 45.332L92.4 71.488Z" fill="black"/>
<path d="M58.552 74.284C58.604 74.36 83.564 77.56 83.832 77.328C83.9731 76.6331 84.0733 75.9306 84.132 75.224C84.132 75.224 81.844 48.048 80.66 46.452C79.624 45.06 76.48 44.052 74.34 44.96C69.848 46.864 59.092 71.144 59.208 72.16C59.2 72.148 58.488 74.188 58.552 74.284Z" fill="#019267"/>
<path opacity="0.1" d="M67.552 70.9763C67.9369 71.1632 68.3387 71.3132 68.752 71.4243C69.584 71.7563 69.66 73.1443 68.752 73.4243C68.2693 73.5774 67.7575 73.6156 67.2575 73.5357C66.7574 73.4558 66.283 73.2602 65.872 72.9643C65.072 72.4043 64.556 71.3643 64.988 70.4363C65.0673 70.2597 65.1907 70.1065 65.3463 69.9914C65.5019 69.8763 65.6845 69.8032 65.8766 69.7791C66.0686 69.7549 66.2637 69.7807 66.4429 69.8537C66.6221 69.9268 66.7796 70.0448 66.9 70.1963C67.124 70.4563 67.26 70.8003 67.552 70.9763ZM66.184 66.8443C65.5 68.2563 67.48 70.1003 68.852 69.6003C68.9669 69.5543 69.0696 69.4823 69.152 69.39C69.2344 69.2976 69.2942 69.1874 69.3268 69.068C69.3594 68.9485 69.3638 68.8232 69.3397 68.7018C69.3156 68.5804 69.2637 68.4662 69.188 68.3683C68.916 68.0043 68.636 67.8883 68.388 67.5683C68.3024 67.4577 68.2337 67.335 68.184 67.2043C68.0658 66.925 67.8931 66.6721 67.676 66.4603C67.2 66.0003 66.436 66.3243 66.184 66.8443ZM63.872 65.3403C63.124 65.6203 62.932 66.6283 62.988 67.3403C62.9995 67.6862 63.1026 68.0228 63.2867 68.3158C63.4708 68.6089 63.7294 68.8478 64.036 69.0083C64.1517 69.06 64.2799 69.077 64.4052 69.0574C64.5304 69.0378 64.6472 68.9823 64.7416 68.8977C64.8359 68.8131 64.9037 68.7029 64.9368 68.5806C64.9699 68.4582 64.9669 68.3289 64.928 68.2083C64.801 67.8885 64.757 67.5417 64.8 67.2003C64.868 66.6883 65.072 66.0883 64.732 65.6283C64.6374 65.4957 64.5032 65.3964 64.3488 65.3447C64.1943 65.2929 64.0274 65.2914 63.872 65.3403ZM72.072 70.1003C71.8827 70.0841 71.6943 70.1409 71.5455 70.2592C71.3968 70.3775 71.2989 70.5482 71.272 70.7363C71.2515 70.9384 71.3023 71.1413 71.4155 71.31C71.5287 71.4787 71.6972 71.6026 71.892 71.6603C72.1648 71.7503 72.4592 71.7503 72.732 71.6603C72.8716 71.6051 72.9867 71.5014 73.056 71.3683C73.1363 71.2395 73.1689 71.0866 73.148 70.9363C73.1259 70.796 73.0616 70.6658 72.9637 70.5629C72.8658 70.4601 72.739 70.3894 72.6 70.3603C72.5748 70.3271 72.5452 70.2975 72.512 70.2723C72.385 70.1736 72.2322 70.1139 72.072 70.1003ZM65.94 60.4483C65.268 61.1363 65.54 62.7003 66.308 63.2283C66.4069 63.3035 66.5237 63.3514 66.6469 63.3675C66.77 63.3835 66.8953 63.3671 67.0101 63.3198C67.125 63.2725 67.2254 63.1959 67.3015 63.0978C67.3777 62.9996 67.4268 62.8833 67.444 62.7603C67.4558 62.6018 67.4558 62.4427 67.444 62.2843C67.444 62.1123 67.42 62.0043 67.444 61.8843C67.5038 61.5423 67.516 61.1936 67.48 60.8483C67.4489 60.6845 67.372 60.5329 67.2581 60.4112C67.1442 60.2894 66.998 60.2025 66.8367 60.1606C66.6753 60.1187 66.5054 60.1235 66.3466 60.1744C66.1879 60.2254 66.0469 60.3203 65.94 60.4483ZM61.6 70.4003C60.676 71.4963 62.2 73.3763 63.396 73.4123C63.796 73.4123 64.288 73.0123 64.04 72.5723C63.84 72.2203 63.572 71.9083 63.396 71.5443C63.18 71.0963 63.128 70.5723 62.688 70.2683C62.5239 70.1477 62.32 70.0942 62.1179 70.1187C61.9157 70.1432 61.7305 70.2439 61.6 70.4003ZM83.668 70.0523C83.5174 70.0748 83.377 70.1416 83.2644 70.2442C83.1519 70.3468 83.0724 70.4804 83.036 70.6283C82.908 71.0723 82.892 71.4683 82.56 71.8283C82.2007 72.1109 81.8782 72.4375 81.6 72.8003C81.5536 72.8909 81.5315 72.992 81.5359 73.0937C81.5402 73.1954 81.5709 73.2942 81.625 73.3805C81.679 73.4668 81.7545 73.5375 81.8441 73.5859C81.9336 73.6342 82.0342 73.6585 82.136 73.6563C82.8345 73.5704 83.474 73.2214 83.924 72.6803C83.844 71.9203 83.764 71.0283 83.672 70.0363L83.668 70.0523ZM81.668 66.7523C81.444 67.2963 81.484 67.9123 81.296 68.4803C81.131 69.001 80.9347 69.5113 80.708 70.0083C80.54 70.3683 80.876 70.9363 81.312 70.7443C82.0211 70.4721 82.6011 69.942 82.936 69.2603C83.24 68.6323 83.576 67.5763 83.284 66.9083C82.992 66.2403 82 65.9483 81.66 66.7363L81.668 66.7523ZM79.388 72.2043C79.0556 72.6338 78.6303 72.9825 78.144 73.2243C78.0281 73.2602 77.9212 73.3204 77.8304 73.4009C77.7395 73.4813 77.6668 73.5801 77.6171 73.6907C77.5673 73.8014 77.5416 73.9214 77.5418 74.0427C77.5419 74.164 77.5678 74.284 77.6178 74.3945C77.6678 74.5051 77.7407 74.6037 77.8317 74.6839C77.9227 74.7642 78.0298 74.8241 78.1457 74.8599C78.2617 74.8956 78.3839 74.9062 78.5043 74.8911C78.6247 74.8761 78.7405 74.8355 78.844 74.7723C79.2579 74.5949 79.6278 74.3288 79.9278 73.993C80.2277 73.6571 80.4503 73.2595 80.58 72.8283C80.768 72.1363 79.832 71.6843 79.38 72.1883L79.388 72.2043ZM75.732 52.6043C75.9555 52.6516 76.1886 52.6105 76.3825 52.4897C76.5764 52.3689 76.716 52.1777 76.772 51.9563C76.996 51.0963 76.228 50.2123 75.62 49.6763C75.012 49.1403 74.156 48.6523 73.304 48.9283C73.1906 48.965 73.0884 49.0302 73.0072 49.1175C72.926 49.2048 72.8685 49.3114 72.84 49.4272C72.8116 49.543 72.8132 49.6641 72.8447 49.7791C72.8762 49.8941 72.9365 49.9991 73.02 50.0843C73.392 50.5483 73.908 50.8843 74.304 51.3403C74.7 51.7963 75.028 52.4723 75.724 52.5883L75.732 52.6043ZM78.8 56.0003C79.136 55.5163 78.876 54.8003 78.636 54.3403C78.5082 54.0865 78.3095 53.8753 78.064 53.7323C77.8988 53.6266 77.6985 53.5904 77.5067 53.6316C77.315 53.6728 77.1472 53.788 77.04 53.9523C76.9309 54.1797 76.9137 54.4405 76.992 54.6803C77.0254 54.8057 77.071 54.9277 77.128 55.0443V55.0803V55.1123C77.1995 55.4943 77.3613 55.8536 77.6 56.1603C77.6826 56.2435 77.7833 56.3064 77.8943 56.3442C78.0053 56.382 78.1235 56.3936 78.2397 56.3781C78.3559 56.3626 78.467 56.3204 78.5642 56.2549C78.6614 56.1893 78.7421 56.1022 78.8 56.0003ZM80.864 53.1363C80.7857 52.1482 80.3996 51.2095 79.76 50.4523C79.28 49.8323 78.448 48.8523 77.568 49.0643C77.4745 49.0935 77.3928 49.1521 77.3352 49.2313C77.2776 49.3106 77.247 49.4063 77.248 49.5043C77.192 50.1803 77.968 50.9043 78.304 51.4443C78.704 52.1243 79.02 52.8763 79.452 53.5523C79.5462 53.6836 79.6794 53.7819 79.8327 53.8331C79.9859 53.8843 80.1514 53.8859 80.3057 53.8376C80.4599 53.7893 80.5949 53.6936 80.6916 53.5641C80.7882 53.4346 80.8416 53.2779 80.844 53.1163L80.864 53.1363ZM77.844 59.9843C77.9903 60.0162 78.1417 60.0162 78.288 59.9843C78.5097 59.916 78.6971 59.7658 78.812 59.5643C78.9195 59.3497 78.973 59.1122 78.968 58.8723C78.9608 58.645 78.899 58.4228 78.788 58.2243L78.656 58.0603L78.48 57.9323C78.3699 57.8755 78.2484 57.8443 78.1246 57.8409C78.0008 57.8376 77.8778 57.8622 77.7648 57.9129C77.6518 57.9636 77.5517 58.0392 77.4719 58.134C77.3921 58.2287 77.3347 58.3403 77.304 58.4603C77.2374 58.6933 77.1906 58.9314 77.164 59.1723L77.2 59.3923C77.228 59.5027 77.283 59.6044 77.36 59.6883C77.4809 59.8279 77.6436 59.9247 77.824 59.9643L77.844 59.9843ZM80.604 57.4363C80.7603 57.4282 80.9099 57.3702 81.0309 57.2709C81.1518 57.1715 81.2377 57.036 81.276 56.8843C81.3382 56.5737 81.3175 56.2523 81.216 55.9523C81.1562 55.6666 81.0176 55.4033 80.816 55.1923C80.7438 55.1255 80.6555 55.0786 80.5597 55.0561C80.4639 55.0337 80.364 55.0366 80.2696 55.0644C80.1752 55.0922 80.0897 55.1441 80.0214 55.2149C79.9532 55.2857 79.9044 55.373 79.88 55.4683C79.848 55.7019 79.848 55.9387 79.88 56.1723C79.88 56.2723 79.88 56.3723 79.88 56.4763C79.878 56.627 79.8941 56.7774 79.928 56.9243C79.9728 57.0642 80.06 57.1868 80.1775 57.2749C80.2951 57.3631 80.4371 57.4125 80.584 57.4163L80.604 57.4363Z" fill="#030402"/>
<path d="M79.2 50.7117C77.676 50.5717 75.724 47.3157 75.352 45.2477C75.328 45.1037 75.936 43.8997 76.604 42.4037C77.004 41.4957 77.436 40.4717 77.756 39.5117L83.292 42.9957C82.545 44.0825 81.9338 45.2565 81.472 46.4917C81.4306 46.6221 81.4012 46.756 81.384 46.8917C81.3854 46.9144 81.3854 46.9371 81.384 46.9597C81.244 47.7597 80.676 50.8477 79.2 50.7117Z" fill="#D3766A"/>
<path d="M81.384 46.9C81.3853 46.9227 81.3853 46.9454 81.384 46.968C81.1707 46.9263 80.9608 46.8688 80.756 46.796C77.292 45.548 77.904 41.004 78.148 39.748L79.528 40.62L83.308 43.02C82.5614 44.1064 81.9514 45.2805 81.492 46.516C81.4444 46.6405 81.4082 46.769 81.384 46.9Z" fill="#263238"/>
<path d="M78.336 33.0996C77.192 35.1596 76.992 41.7756 78.26 43.5316C80.092 46.0756 83.772 47.0676 86.104 44.7316C88.364 42.4436 88.468 33.8156 86.996 32.1516C84.82 29.6796 80.024 30.0556 78.336 33.0996Z" fill="#D3766A"/>
<path d="M83.648 38.4482C83.648 38.4482 83.612 38.4482 83.612 38.4882C83.612 38.9442 83.532 39.4642 83.116 39.6002V39.6282C83.624 39.5722 83.72 38.8802 83.648 38.4482Z" fill="#263238"/>
<path d="M83.26 37.9602C82.528 37.8802 82.42 39.3442 83.096 39.4202C83.772 39.4962 83.872 38.0282 83.26 37.9602Z" fill="#263238"/>
<path d="M86.272 38.6045C86.272 38.6045 86.304 38.6285 86.304 38.6485C86.252 39.1005 86.272 39.6285 86.668 39.8085C86.668 39.8085 86.668 39.8405 86.668 39.8365C86.168 39.7245 86.152 39.0245 86.272 38.6045Z" fill="#263238"/>
<path d="M86.716 38.1641C87.448 38.1641 87.388 39.6321 86.716 39.6321C86.044 39.6321 86.1 38.1601 86.716 38.1641Z" fill="#263238"/>
<path d="M83.852 37.664C83.648 37.708 83.452 37.712 83.252 37.736C83.0448 37.7902 82.8256 37.7747 82.628 37.692C82.5705 37.6541 82.5272 37.5982 82.5047 37.5331C82.4823 37.468 82.482 37.3972 82.504 37.332C82.5696 37.2127 82.6656 37.1128 82.7822 37.0426C82.8988 36.9723 83.0319 36.9342 83.168 36.932C83.4443 36.8788 83.7305 36.9332 83.968 37.084C84.0174 37.1211 84.0553 37.1715 84.0774 37.2293C84.0994 37.287 84.1047 37.3498 84.0926 37.4105C84.0804 37.4711 84.0514 37.5271 84.0088 37.5719C83.9663 37.6168 83.9119 37.6487 83.852 37.664Z" fill="#263238"/>
<path d="M87.372 36.7998C87.1778 36.7453 86.9868 36.6799 86.8 36.6038C86.5896 36.5641 86.3983 36.4558 86.256 36.2958C86.2204 36.2372 86.2055 36.1684 86.2134 36.1003C86.2214 36.0321 86.2519 35.9686 86.3 35.9198C86.4093 35.8363 86.5392 35.784 86.6758 35.7685C86.8125 35.753 86.9508 35.7749 87.076 35.8318C87.3462 35.9058 87.5797 36.0766 87.732 36.3118C87.7636 36.3676 87.7784 36.4314 87.7746 36.4954C87.7707 36.5595 87.7484 36.621 87.7104 36.6726C87.6723 36.7242 87.62 36.7637 87.56 36.7863C87.5 36.8089 87.4347 36.8136 87.372 36.7998Z" fill="#263238"/>
<path d="M83.316 42.0565C83.905 41.9155 84.519 41.9155 85.108 42.0565C85.16 42.0565 85.212 41.9525 85.224 41.9045L85.256 40.9445C85.38 41.0165 86.004 41.3445 86.004 41.1685C86.0691 39.6082 85.974 38.0454 85.72 36.5045C85.7172 36.4956 85.7116 36.4877 85.7041 36.4822C85.6965 36.4766 85.6874 36.4736 85.678 36.4736C85.6686 36.4736 85.6595 36.4766 85.6519 36.4822C85.6444 36.4877 85.6388 36.4956 85.636 36.5045C85.572 37.9485 85.756 39.3885 85.712 40.8405C85.4913 40.7182 85.2542 40.628 85.008 40.5725C84.956 40.5725 85.008 41.5925 85.008 41.7445C84.4575 41.5549 83.8546 41.5879 83.328 41.8365C83.12 41.9685 83.036 42.1445 83.316 42.0565Z" fill="#263238"/>
<path d="M82.132 43.0076C82.232 43.1196 82.332 43.2716 82.492 43.2956C82.6602 43.3036 82.828 43.275 82.984 43.2116C82.984 43.2116 83.012 43.2116 82.984 43.2356C82.9151 43.3205 82.8242 43.3848 82.7212 43.4215C82.6182 43.4582 82.5071 43.4658 82.4 43.4436C82.3126 43.4156 82.2351 43.363 82.1769 43.292C82.1187 43.2211 82.0823 43.1348 82.072 43.0436C82.08 42.9996 82.116 42.9916 82.132 43.0076Z" fill="#263238"/>
<path opacity="0.2" d="M80.268 31C80.208 32.028 79.964 35.216 79.468 35.864C78.972 36.512 77.924 38.02 77.392 38.264C77.464 36.14 77.792 34.12 78.34 33.064C78.7893 32.2179 79.4545 31.5058 80.268 31Z" fill="#263238"/>
<path d="M85.968 34.1161C85.6883 34.4008 85.3404 34.6091 84.9574 34.7211C84.5744 34.8332 84.169 34.8452 83.78 34.7561C83.3819 34.6675 83.0133 34.4778 82.71 34.2052C82.4066 33.9327 82.1786 33.5865 82.048 33.2001C82.048 33.1761 82.004 33.2001 82.012 33.2001C82.1137 33.6173 82.3278 33.9986 82.631 34.3025C82.9343 34.6065 83.3151 34.8215 83.732 34.9241C84.1482 35.0036 84.5781 34.9714 84.9778 34.8309C85.3776 34.6904 85.733 34.4465 86.008 34.1241C86.032 34.1281 86 34.0921 85.968 34.1161Z" fill="#263238"/>
<path d="M83.96 28.1881C83.3453 28.1465 82.73 28.2602 82.1707 28.5189C81.6115 28.7775 81.1264 29.1727 80.76 29.6681C80.4478 30.1722 80.3153 30.7671 80.384 31.3561H80.436C80.4436 30.8393 80.5907 30.3341 80.8618 29.894C81.1329 29.454 81.5179 29.0953 81.976 28.8561C82.4768 28.5757 83.0356 28.415 83.6088 28.3866C84.1819 28.3581 84.7539 28.4627 85.28 28.6921C85.7974 28.9054 86.2226 29.2951 86.48 29.7921C86.504 29.8441 86.608 29.8201 86.588 29.7681C86.26 28.8961 85.2 28.2481 83.96 28.1881Z" fill="#263238"/>
<path d="M91.6 31.6759C91.426 30.9987 91.0179 30.405 90.448 29.9999C89.648 29.4279 88.712 29.4359 87.776 29.4679C87.748 29.4679 87.752 29.5079 87.776 29.5039C88.5718 29.4208 89.3747 29.5695 90.088 29.9319C90.6686 30.2804 91.1109 30.8188 91.34 31.4559C91.558 32.1095 91.5328 32.8197 91.2689 33.4561C91.0051 34.0925 90.5204 34.6123 89.904 34.9199C89.5452 35.0886 89.1557 35.1819 88.7595 35.1943C88.3632 35.2067 87.9686 35.1378 87.6 34.9919C87.572 34.9919 87.548 35.0199 87.576 35.0359C88.0748 35.2562 88.6252 35.3327 89.1651 35.2567C89.7051 35.1806 90.213 34.9552 90.6315 34.6057C91.0501 34.2562 91.3626 33.7967 91.5337 33.279C91.7048 32.7612 91.7278 32.206 91.6 31.6759Z" fill="#263238"/>
<path d="M77.936 34.4002C77.936 34.4002 76.832 31.8842 78.012 30.5642C78.68 29.8202 80.688 30.0762 80.688 30.0762C81.2878 29.3147 82.1655 28.8227 83.128 28.7082C84.844 28.4402 86.8 29.6002 86.8 29.6002C86.8 29.6002 88.472 28.8002 89.908 29.7722C91.908 31.1282 91.408 34.3002 89.224 35.1642C87.688 35.7762 85.776 34.3122 85.776 34.3122C85.584 34.3122 83.512 35.3682 82.148 33.4882C82.148 33.4882 80.852 34.4762 79.816 33.6362C79.619 33.9411 79.3329 34.1781 78.9965 34.3147C78.6602 34.4514 78.2899 34.4813 77.936 34.4002Z" fill="#263238"/>
<path d="M78.588 38.5801C78.588 38.5801 77.54 36.2321 76.504 36.5801C75.468 36.9281 75.972 40.1201 76.996 40.7441C77.1208 40.8309 77.2618 40.8917 77.4105 40.9231C77.5593 40.9544 77.7128 40.9555 77.862 40.9264C78.0112 40.8973 78.153 40.8386 78.2791 40.7537C78.4052 40.6688 78.513 40.5594 78.596 40.4321L78.588 38.5801Z" fill="#D3766A"/>
<path d="M76.672 37.4844V37.5124C77.384 37.9724 77.652 38.7684 77.792 39.5644C77.7619 39.4786 77.7135 39.4004 77.6502 39.3351C77.5869 39.2699 77.5102 39.2192 77.4254 39.1864C77.3406 39.1537 77.2497 39.1398 77.159 39.1457C77.0683 39.1515 76.9799 39.177 76.9 39.2204C76.876 39.2204 76.9 39.2644 76.9 39.2644C77.0457 39.2475 77.193 39.2771 77.3208 39.349C77.4487 39.4208 77.5506 39.5312 77.612 39.6644C77.7206 39.8807 77.8038 40.1089 77.86 40.3444C77.86 40.4204 78.012 40.4084 78.004 40.3444C78.208 39.3124 77.708 37.7884 76.672 37.4844Z" fill="#263238"/>
<path d="M134.031 43.2407L90.9661 56.4316L98.7307 81.7811L141.796 68.5902L134.031 43.2407Z" fill="#019267"/>
<path opacity="0.2" d="M134.031 43.2407L90.9661 56.4316L98.7307 81.7811L141.796 68.5902L134.031 43.2407Z" fill="black"/>
<path opacity="0.2" d="M134.029 43.2409L119.557 47.6738L127.321 73.0233L141.794 68.5904L134.029 43.2409Z" fill="black"/>
<path d="M133.336 44.5322C132.848 46.7776 132.373 49.0229 131.912 51.2682L130.548 58.0202L129.228 64.8002C128.796 67.0562 128.375 69.3162 127.964 71.5802C128.452 69.3376 128.927 67.0922 129.388 64.8442L130.752 58.0922L132.072 51.3282C132.504 49.0616 132.925 46.7962 133.336 44.5322Z" fill="#019267"/>
<path d="M140.444 67.7398C138.844 66.0972 137.229 64.4612 135.6 62.8318L130.72 57.9678L125.808 53.1398C124.165 51.5398 122.515 49.9398 120.856 48.3398C122.456 49.9852 124.071 51.6212 125.7 53.2478L130.58 58.1118L135.492 62.9398C137.137 64.5558 138.788 66.1558 140.444 67.7398Z" fill="#019267"/>
<path d="M99.2373 59.6976L99.4744 59.625L98.454 56.2938L98.2169 56.3664L99.2373 59.6976Z" fill="#263238"/>
<path d="M98.674 59.8676L98.9111 59.7949L97.8908 56.4637L97.6537 56.5363L98.674 59.8676Z" fill="#263238"/>
<path d="M98.1056 60.0482L98.3427 59.9756L97.3223 56.6444L97.0852 56.717L98.1056 60.0482Z" fill="#263238"/>
<path d="M97.543 60.2113L97.7801 60.1387L96.7603 56.8073L96.5232 56.8798L97.543 60.2113Z" fill="#263238"/>
<path d="M96.9752 60.3881L97.2123 60.3154L96.1919 56.9842L95.9548 57.0568L96.9752 60.3881Z" fill="#263238"/>
<path d="M96.4107 60.557L96.6479 60.4844L95.6275 57.1531L95.3904 57.2258L96.4107 60.557Z" fill="#263238"/>
<path d="M95.8396 60.7435L96.0768 60.6709L95.0564 57.3397L94.8193 57.4123L95.8396 60.7435Z" fill="#263238"/>
<path d="M95.2744 60.9115L95.5116 60.8389L94.4906 57.5078L94.2535 57.5805L95.2744 60.9115Z" fill="#263238"/>
<path d="M94.7041 61.0912L94.9412 61.0186L93.9208 57.6873L93.6837 57.76L94.7041 61.0912Z" fill="#263238"/>
<path d="M100.852 55.8362L99.868 55.8602L102 55.2002L101.168 55.7362L101.544 56.9602C102.22 56.8442 102.676 57.4082 103.02 58.5282L100.888 59.2002C100.544 58.0842 100.604 57.3602 101.228 57.0762L100.852 55.8362Z" fill="#263238"/>
<path d="M102.996 56.6882L103.552 56.5162L103.052 54.8842L104.476 54.4482L104.976 56.0802L105.536 55.9082L104.784 57.9962L102.996 56.6882Z" fill="#263238"/>
<path opacity="0.1" d="M90.968 56.4318L91.604 58.5118L121.372 53.5998L119.556 47.6758L90.968 56.4318Z" fill="black"/>
<path d="M147.376 71.4639L132.9 75.8959L127.32 73.0239L141.796 68.5879L147.376 71.4639Z" fill="#019267"/>
<path opacity="0.2" d="M147.376 71.4639L132.9 75.8959L127.32 73.0239L141.796 68.5879L147.376 71.4639Z" fill="black"/>
<path d="M95.716 87.2877L110.192 82.8517L113.204 77.3477L98.728 81.7797L95.716 87.2877Z" fill="#019267"/>
<path opacity="0.1" d="M95.716 87.2877L110.192 82.8517L113.204 77.3477L98.728 81.7797L95.716 87.2877Z" fill="black"/>
<path d="M71.892 52.52C74.008 59.596 79.892 71.72 82.076 73.2C84 74.524 93.236 73.32 97.276 72.444C98.788 72.12 95.676 60.576 94.076 60.956C92.14 61.416 86.376 62.556 85.968 62.24C85.56 61.924 79.968 54.64 75.968 50.368C72.336 46.48 71.092 49.844 71.892 52.52Z" fill="#D3766A"/>
<path d="M93.244 61.8956C93.244 61.8956 96.304 58.4476 98.472 57.1316C100.76 55.8217 103.333 55.0873 105.968 54.9916C108.812 54.8796 115.768 56.5676 115.628 58.6556C115.504 60.5476 108.484 58.4596 108.484 58.4596C108.484 58.4596 115.992 59.4076 115.424 61.6596C114.856 63.9116 106.844 61.0196 106.844 61.0196C106.844 61.0196 114.536 62.1636 113.6 64.3996C112.88 66.0836 105.476 63.8756 105.476 63.8756C105.476 63.8756 112.084 64.9076 111.416 66.6756C110.68 68.6236 103.716 67.0156 103.716 67.0156C101.272 71.2076 98.388 72.2156 96.256 72.6676C95.724 72.7596 93.244 61.8956 93.244 61.8956Z" fill="#D3766A"/>
<path d="M105.908 57.9639C106.792 58.0439 107.692 58.1199 108.568 58.2759C109.444 58.4319 110.312 58.6239 111.172 58.8639C112.299 59.1534 113.388 59.5708 114.42 60.1079C112.52 59.2879 109.392 58.6719 108.516 58.5079C107.64 58.3439 106.772 58.1479 105.9 57.9919C105.876 57.9999 105.884 57.9639 105.908 57.9639Z" fill="#263238"/>
<path d="M105.28 61.1205C106.404 61.2685 107.532 61.3765 108.652 61.5765C109.772 61.7765 110.808 62.0645 111.908 62.3405C111.992 62.3605 111.952 62.4005 111.868 62.3805C110.756 62.1485 109.716 62.0205 108.604 61.8045C107.492 61.5885 106.388 61.3245 105.272 61.1445C105.256 61.1445 105.26 61.1165 105.28 61.1205Z" fill="#263238"/>
<path d="M104.252 63.7277C105.987 63.916 107.697 64.2833 109.356 64.8237C109.44 64.8477 109.384 64.8917 109.296 64.8717C107.608 64.4717 106.284 64.1517 104.248 63.7877C104.216 63.7837 104.216 63.7237 104.252 63.7277Z" fill="#263238"/>
<path d="M96.36 74.4917L93.672 60.6837L86.18 61.8597C83.316 58.4197 77.596 51.5397 75.26 49.4597C72.52 47.0157 70.644 48.7597 71.584 52.3797C73.736 60.6557 80.264 72.8797 82.032 74.0797C84.568 75.7997 96.36 74.4917 96.36 74.4917Z" fill="#019267"/>
<path opacity="0.1" d="M91.288 62.5997C91.6575 62.68 92.0339 62.7242 92.412 62.7317C93.212 62.8397 93.564 64.0197 92.836 64.4677C92.4537 64.7032 92.0215 64.8457 91.5742 64.8839C91.1268 64.9221 90.6767 64.8549 90.26 64.6877C89.46 64.3757 88.784 63.5997 88.956 62.6877C88.9858 62.5177 89.0591 62.3583 89.1687 62.225C89.2784 62.0917 89.4206 61.989 89.5817 61.927C89.7428 61.865 89.9172 61.8457 90.0879 61.8711C90.2586 61.8964 90.4199 61.9655 90.556 62.0717C90.7777 62.2767 91.0235 62.454 91.288 62.5997ZM90.488 61.1837C90.739 61.3047 91.0154 61.3635 91.2939 61.3551C91.5723 61.3467 91.8447 61.2715 92.088 61.1357C92.1776 61.0758 92.2495 60.9929 92.296 60.8957L90.488 61.1837ZM86.596 61.7917C86.9145 62.0243 87.3076 62.1312 87.7 62.0917C87.8353 62.0731 87.9598 62.0077 88.0519 61.9069C88.144 61.806 88.1978 61.6761 88.204 61.5397L86.596 61.7917ZM95.076 67.9557C94.9177 68.022 94.7895 68.1445 94.716 68.2997C94.38 68.9757 94.848 69.7037 95.516 70.1397L95.076 67.9557ZM83.028 70.6117C82.9 71.0557 82.884 71.4517 82.552 71.8117C82.1945 72.0998 81.8747 72.4317 81.6 72.7997C81.5536 72.8903 81.5315 72.9914 81.5358 73.0931C81.5402 73.1948 81.5709 73.2936 81.6249 73.3799C81.679 73.4662 81.7545 73.5369 81.844 73.5853C81.9336 73.6336 82.0342 73.6579 82.136 73.6557C82.8329 73.5699 83.4722 73.2255 83.9271 72.6906C84.382 72.1556 84.6193 71.4693 84.592 70.7677C84.5695 70.5879 84.4867 70.421 84.357 70.2945C84.2273 70.1679 84.0585 70.0891 83.8782 70.071C83.6979 70.0528 83.5168 70.0965 83.3645 70.1947C83.2122 70.2929 83.0978 70.4399 83.04 70.6117H83.028ZM81.648 66.7357C81.424 67.2797 81.464 67.8957 81.276 68.4637C81.111 68.9844 80.9146 69.4947 80.688 69.9917C80.52 70.3517 80.856 70.9197 81.292 70.7277C82.0011 70.4555 82.5811 69.9254 82.916 69.2437C83.22 68.6157 83.556 67.5597 83.264 66.8917C82.972 66.2237 82 65.9477 81.66 66.7357H81.648ZM75.712 52.5877C75.9355 52.635 76.1686 52.5939 76.3625 52.4731C76.5564 52.3523 76.696 52.1611 76.752 51.9397C76.976 51.0797 76.208 50.1957 75.6 49.6597C74.992 49.1237 74.136 48.6357 73.284 48.9117C73.1706 48.9484 73.0684 49.0136 72.9872 49.1009C72.906 49.1882 72.8485 49.2948 72.82 49.4106C72.7916 49.5264 72.7932 49.6475 72.8247 49.7625C72.8562 49.8775 72.9165 49.9825 73 50.0677C73.372 50.5317 73.888 50.8677 74.284 51.3237C74.68 51.7797 75.028 52.4717 75.724 52.5877H75.712ZM78.8 55.9997C79.136 55.5157 78.876 54.7997 78.636 54.3397C78.5082 54.0859 78.3095 53.8747 78.064 53.7317C77.8988 53.626 77.6985 53.5898 77.5067 53.631C77.315 53.6722 77.1472 53.7874 77.04 53.9517C76.9309 54.1791 76.9137 54.4399 76.992 54.6797C77.0254 54.8051 77.071 54.927 77.128 55.0437V55.0797V55.1117C77.1995 55.4937 77.3613 55.853 77.6 56.1597C77.6826 56.2429 77.7833 56.3058 77.8943 56.3436C78.0053 56.3814 78.1235 56.393 78.2397 56.3775C78.3559 56.362 78.467 56.3198 78.5642 56.2543C78.6614 56.1887 78.7421 56.1016 78.8 55.9997ZM77.844 59.9997C77.9903 60.0316 78.1417 60.0316 78.288 59.9997C78.5097 59.9314 78.6971 59.7812 78.812 59.5797C78.9195 59.3651 78.973 59.1276 78.968 58.8877C78.9608 58.6604 78.899 58.4382 78.788 58.2397L78.656 58.0757L78.48 57.9477C78.3699 57.8909 78.2484 57.8597 78.1246 57.8563C78.0008 57.8529 77.8778 57.8776 77.7648 57.9283C77.6518 57.979 77.5516 58.0546 77.4719 58.1494C77.3921 58.2441 77.3347 58.3557 77.304 58.4757C77.2374 58.7087 77.1906 58.9468 77.164 59.1877L77.2 59.4077C77.228 59.5181 77.283 59.6198 77.36 59.7037C77.4831 59.8374 77.6456 59.9285 77.824 59.9637L77.844 59.9997ZM81.2 55.9397L80.4 55.0397C80.2722 55.0245 80.1432 55.0568 80.0377 55.1306C79.9322 55.2044 79.8576 55.3144 79.828 55.4397C79.796 55.6733 79.796 55.9101 79.828 56.1437C79.828 56.2437 79.828 56.3437 79.828 56.4477C79.8259 56.5984 79.8421 56.7488 79.876 56.8957C79.9197 57.0479 80.0132 57.1811 80.1416 57.2739C80.27 57.3667 80.4257 57.4138 80.584 57.4077C80.7403 57.3996 80.8899 57.3416 81.0109 57.2423C81.1318 57.1429 81.2177 57.0074 81.256 56.8557C81.3161 56.5506 81.2968 56.2352 81.2 55.9397Z" fill="#030402"/>
<path d="M93.776 73.2245C93.452 72.4045 92.692 68.8445 92.512 67.9525C92.332 67.0605 91.736 63.4765 91.556 62.5605C91.556 62.5125 91.612 62.4805 91.624 62.5325C91.816 63.4325 92.7 66.9805 92.888 67.8685C93.076 68.7565 93.792 72.3165 93.824 73.2125C93.8256 73.2189 93.8246 73.2256 93.8212 73.2313C93.8178 73.2369 93.8124 73.2409 93.806 73.2425C93.7996 73.2441 93.7929 73.2431 93.7873 73.2397C93.7816 73.2364 93.7776 73.2309 93.776 73.2245Z" fill="#263238"/>
<path d="M91.304 74.8801C90.076 74.9521 88.848 74.9801 87.62 74.9721C86.3875 74.9775 85.1558 74.9067 83.932 74.7601C83.3049 74.6981 82.6918 74.536 82.116 74.2801C81.5984 73.9146 81.1489 73.461 80.788 72.9401C80.0629 71.9392 79.4067 70.8901 78.824 69.8001C77.624 67.6441 76.592 65.4001 75.584 63.1681C74.576 60.9361 73.66 58.6401 72.82 56.3281C73.84 58.5641 74.848 60.8041 75.896 63.0241C76.944 65.2441 78.004 67.4561 79.148 69.6201C79.719 70.6995 80.3493 71.7464 81.036 72.7561C81.3566 73.2588 81.7627 73.7015 82.236 74.0641C82.7814 74.3157 83.3633 74.479 83.96 74.5481C86.3962 74.8433 88.8511 74.9543 91.304 74.8801Z" fill="#263238"/>
<path d="M73.6 58.2803C73.4357 58.1144 73.2871 57.9336 73.156 57.7403C73.0203 57.5489 72.9163 57.3368 72.848 57.1123C72.9083 57.2117 72.9737 57.3078 73.044 57.4003L73.24 57.6843C73.3717 57.8757 73.4919 58.0747 73.6 58.2803Z" fill="#263238"/>
<path d="M79.916 54.5723C80.928 55.5883 81.836 56.7043 82.776 57.7723C83.716 58.8403 84.616 59.9683 85.576 61.0323L85.932 61.4323C85.996 61.4923 86.056 61.5603 86.116 61.6163C86.176 61.6723 86.176 61.6683 86.204 61.6923C86.232 61.7163 86.204 61.6923 86.204 61.6923C86.204 61.6923 86.232 61.6923 86.248 61.6923C86.552 61.6923 86.936 61.6243 87.28 61.5803L89.408 61.2643C90.824 61.0563 92.244 60.8403 93.664 60.6483L93.72 61.0003L93.636 60.6523H93.656C92.252 60.9523 90.856 61.2203 89.432 61.4803C88.724 61.6083 88.016 61.7203 87.304 61.8283C86.94 61.8914 86.5728 61.9342 86.204 61.9563C86.1748 61.96 86.1452 61.96 86.116 61.9563C86.0768 61.9445 86.0402 61.9255 86.008 61.9003C85.9677 61.8689 85.9289 61.8356 85.892 61.8003L85.696 61.6083C85.568 61.4763 85.448 61.3443 85.328 61.2083C84.388 60.1163 83.476 59.0123 82.58 57.8923L81.24 56.2083C80.8 55.6843 80.4 55.1083 79.916 54.5723Z" fill="#263238"/>
<path d="M80.44 54.6924C80.5906 54.8775 80.7245 55.0756 80.84 55.2844C80.9528 55.4907 81.0324 55.7134 81.076 55.9444C81.028 55.8364 80.968 55.7404 80.912 55.6364L80.748 55.3284C80.634 55.1221 80.5312 54.9098 80.44 54.6924Z" fill="#263238"/>
<path d="M112.4 24.3075C112.4 25.9536 111.942 27.5673 111.078 28.9686C110.215 30.3699 108.978 31.5036 107.508 32.2433C106.037 32.9829 104.39 33.2994 102.75 33.1575C101.11 33.0156 99.5417 32.4208 98.22 31.4395L93.864 32.5515L95.676 28.4995C95.0383 27.3081 94.6806 25.9869 94.6302 24.6365C94.5798 23.2861 94.838 21.9419 95.3851 20.7063C95.9323 19.4707 96.754 18.3761 97.7878 17.5057C98.8216 16.6354 100.04 16.0123 101.351 15.6837C102.662 15.3551 104.03 15.3298 105.352 15.6096C106.674 15.8894 107.915 16.467 108.981 17.2985C110.046 18.13 110.908 19.1934 111.5 20.4079C112.093 21.6225 112.4 22.9561 112.4 24.3075Z" fill="white"/>
<path d="M112.4 24.3039C112.4 25.9521 111.946 27.5684 111.088 28.9759C110.879 29.3307 110.65 29.6727 110.4 29.9999C110.135 30.3133 109.85 30.6098 109.548 30.8879C108.951 31.4505 108.278 31.9259 107.548 32.2999C106.816 32.6736 106.035 32.9429 105.228 33.0999C104.823 33.1805 104.413 33.2314 104 33.2519C103.589 33.2859 103.175 33.2859 102.764 33.2519C101.1 33.1228 99.505 32.5343 98.156 31.5519L98.276 31.5759L93.932 32.7199L93.58 32.8119L93.728 32.4759L95.524 28.4159V28.5839C94.8707 27.3694 94.5056 26.0208 94.4571 24.6426C94.4085 23.2643 94.6778 21.8934 95.244 20.6359C95.8109 19.382 96.6547 18.2728 97.712 17.3919C98.768 16.524 100.007 15.9065 101.336 15.5858C102.664 15.265 104.048 15.2493 105.384 15.5399C106.708 15.841 107.947 16.4341 109.012 17.2759C110.071 18.1151 110.926 19.1836 111.513 20.4008C112.1 21.6181 112.403 22.9526 112.4 24.3039ZM112.4 24.3039C112.399 22.2719 111.695 20.3027 110.408 18.7307C109.12 17.1587 107.328 16.0808 105.336 15.6799C104.025 15.419 102.672 15.4601 101.38 15.7999C100.092 16.1326 98.8971 16.7567 97.888 17.6239C96.8881 18.5006 96.091 19.5843 95.552 20.7999C95.0204 22.0121 94.7714 23.3293 94.824 24.6519C94.8857 25.9613 95.2353 27.2411 95.848 28.3999L95.892 28.4839L95.852 28.5679L94.024 32.6159L93.82 32.3759L98.184 31.2959H98.252L98.304 31.3359C99.5975 32.3183 101.139 32.9209 102.756 33.0759C103.155 33.1053 103.557 33.1053 103.956 33.0759C105.178 33.0339 106.377 32.7297 107.472 32.1839C108.202 31.8285 108.876 31.3675 109.472 30.8159C109.774 30.542 110.059 30.2494 110.324 29.9399C110.579 29.6217 110.815 29.2891 111.032 28.9439C111.905 27.5521 112.378 25.9468 112.4 24.3039Z" fill="#263238"/>
<path d="M104.132 25.2676V26.2476C104.135 26.3455 104.118 26.4429 104.081 26.534C104.045 26.625 103.991 26.7077 103.921 26.777C103.852 26.8462 103.769 26.9006 103.678 26.9369C103.587 26.9731 103.49 26.9903 103.392 26.9876C103.295 26.9876 103.199 26.9684 103.109 26.9311C103.02 26.8939 102.939 26.8393 102.87 26.7706C102.802 26.7018 102.748 26.6202 102.711 26.5304C102.674 26.4407 102.655 26.3445 102.656 26.2476V24.6836C102.656 24.6836 102.656 24.6836 102.656 24.6516C102.656 24.6196 102.656 24.6516 102.656 24.6236C102.661 24.4296 102.74 24.2448 102.877 24.1072C103.014 23.9696 103.198 23.8896 103.392 23.8836C103.62 23.8947 103.849 23.8593 104.063 23.7796C104.277 23.6999 104.473 23.5775 104.638 23.4198C104.804 23.2622 104.936 23.0726 105.026 22.8625C105.116 22.6524 105.162 22.4261 105.162 22.1976C105.162 21.969 105.116 21.7428 105.026 21.5327C104.936 21.3225 104.804 21.1329 104.638 20.9753C104.473 20.8176 104.277 20.6952 104.063 20.6155C103.849 20.5358 103.62 20.5004 103.392 20.5116C103.1 20.5106 102.812 20.5867 102.559 20.732C102.306 20.8774 102.095 21.0869 101.948 21.3396C101.899 21.4248 101.833 21.4994 101.755 21.5592C101.677 21.619 101.588 21.6628 101.492 21.6881C101.397 21.7134 101.298 21.7196 101.201 21.7065C101.103 21.6933 101.009 21.6611 100.924 21.6116C100.841 21.5621 100.768 21.4967 100.71 21.419C100.651 21.3413 100.609 21.2528 100.586 21.1588C100.562 21.0647 100.557 20.9669 100.571 20.8709C100.585 20.775 100.618 20.6827 100.668 20.5996C100.931 20.1465 101.303 19.7658 101.749 19.4917C102.196 19.2177 102.703 19.0588 103.227 19.0294C103.75 19 104.272 19.101 104.746 19.3232C105.221 19.5455 105.633 19.8822 105.945 20.3029C106.257 20.7237 106.46 21.2154 106.535 21.7339C106.611 22.2525 106.556 22.7816 106.376 23.2737C106.196 23.7659 105.897 24.2057 105.506 24.5537C105.114 24.9017 104.642 25.147 104.132 25.2676ZM104.132 28.5676V28.8396C104.134 28.9372 104.117 29.0342 104.08 29.1247C104.044 29.2153 103.989 29.2975 103.92 29.3663C103.851 29.4352 103.768 29.4892 103.677 29.5252C103.587 29.5612 103.49 29.5783 103.392 29.5756C103.197 29.5756 103.01 29.498 102.872 29.36C102.734 29.222 102.656 29.0348 102.656 28.8396V28.5676C102.658 28.3726 102.736 28.1862 102.874 28.048C103.011 27.9098 103.197 27.8307 103.392 27.8276C103.489 27.8265 103.586 27.8449 103.676 27.8817C103.767 27.9185 103.849 27.973 103.918 28.0419C103.987 28.1108 104.041 28.1928 104.078 28.2831C104.115 28.3734 104.133 28.4701 104.132 28.5676Z" fill="#019267"/>
</svg>
