<svg width="250" height="250" viewBox="0 0 250 250" fill="none" xmlns="http://www.w3.org/2000/svg">
<path d="M125 238.965C190.056 238.965 242.795 208.516 242.795 170.955C242.795 133.394 190.056 102.945 125 102.945C59.9436 102.945 7.20502 133.394 7.20502 170.955C7.20502 208.516 59.9436 238.965 125 238.965Z" fill="#F0F0F0"/>
<path d="M100.625 222.49C123.059 222.49 141.245 211.991 141.245 199.04C141.245 186.089 123.059 175.59 100.625 175.59C78.1912 175.59 60.005 186.089 60.005 199.04C60.005 211.991 78.1912 222.49 100.625 222.49Z" fill="#E0E0E0"/>
<path d="M216.14 169.7L211.375 166.95C211.375 166.95 210.21 156.75 210.985 148.85C212.075 137.75 219.245 124.39 227.795 127.53C236.345 130.67 223.875 141.97 221.1 151.385C218.325 160.8 216.14 169.7 216.14 169.7Z" fill="#22B0A2"/>
<path opacity="0.15" d="M216.14 169.7L211.375 166.95C211.375 166.95 210.21 156.75 210.985 148.85C212.075 137.75 219.245 124.39 227.795 127.53C236.345 130.67 223.875 141.97 221.1 151.385C218.325 160.8 216.14 169.7 216.14 169.7Z" fill="black"/>
<path d="M213.635 168.545C213.711 168.541 213.783 168.507 213.834 168.451C213.885 168.395 213.913 168.321 213.91 168.245C213.075 143.58 225.355 131.17 225.475 131.05C225.529 130.996 225.56 130.922 225.56 130.845C225.56 130.768 225.529 130.694 225.475 130.64C225.449 130.613 225.417 130.592 225.382 130.577C225.347 130.563 225.31 130.556 225.273 130.556C225.235 130.556 225.198 130.563 225.163 130.577C225.128 130.592 225.097 130.613 225.07 130.64C224.94 130.76 212.485 143.35 213.33 168.265C213.331 168.304 213.34 168.341 213.356 168.376C213.372 168.411 213.395 168.443 213.424 168.469C213.452 168.495 213.485 168.515 213.522 168.528C213.558 168.541 213.596 168.547 213.635 168.545Z" fill="white"/>
<path d="M219.135 171.415L215.745 169.46C215.745 169.46 215.165 162.46 218.6 153.96C221.6 146.56 229 140.415 232.73 141.705C236.46 142.995 236.365 145.64 234.545 148.415C232.725 151.19 221.67 157.795 219.135 171.415Z" fill="#22B0A2"/>
<path d="M217.345 170.675C217.422 170.674 217.495 170.643 217.549 170.589C217.603 170.535 217.634 170.462 217.635 170.385C217.565 154.785 232.21 144.245 232.36 144.14C232.391 144.119 232.418 144.091 232.438 144.059C232.458 144.027 232.472 143.991 232.478 143.954C232.484 143.917 232.483 143.878 232.474 143.842C232.464 143.805 232.448 143.77 232.425 143.74C232.381 143.678 232.314 143.636 232.239 143.623C232.165 143.61 232.088 143.627 232.025 143.67C231.875 143.775 216.99 154.495 217.055 170.385C217.055 170.462 217.086 170.536 217.14 170.59C217.194 170.644 217.268 170.675 217.345 170.675Z" fill="white"/>
<path d="M39.83 163.575L44.23 160.605C44.23 160.605 46.165 149.105 44.365 138.96C41.835 124.73 32 120 28.5 121.5C25 123 24.25 127.235 30.785 135.355C34.66 140.13 39.695 150.325 39.83 163.575Z" fill="#22B0A2"/>
<g opacity="0.15">
<path d="M39.83 163.575L44.23 160.605C44.23 160.605 46.165 149.105 44.365 138.96C41.835 124.73 32 120 28.5 121.5C25 123 24.25 127.235 30.785 135.355C34.66 140.13 39.695 150.325 39.83 163.575Z" fill="black"/>
</g>
<path d="M41.34 157.875H41.295C41.2501 157.872 41.2062 157.86 41.1664 157.839C41.1265 157.818 41.0915 157.789 41.0636 157.753C41.0358 157.718 41.0157 157.677 41.0048 157.634C40.9938 157.59 40.9922 157.544 41 157.5C42.59 144.105 36.935 129.565 30.78 123.78C30.7208 123.72 30.6876 123.639 30.6876 123.555C30.6876 123.471 30.7208 123.39 30.78 123.33C30.8093 123.3 30.8444 123.276 30.883 123.26C30.9216 123.244 30.9631 123.235 31.005 123.235C31.0469 123.235 31.0884 123.244 31.127 123.26C31.1657 123.276 31.2007 123.3 31.23 123.33C37.5 129.22 43.26 144 41.65 157.59C41.6406 157.667 41.6042 157.737 41.5474 157.789C41.4906 157.842 41.4171 157.872 41.34 157.875Z" fill="white"/>
<path d="M28.31 171.345C27.61 171.765 25.57 170.25 25.005 169.885C24.0367 169.253 23.2479 168.381 22.715 167.355C22.1172 166.191 21.8953 164.87 22.08 163.575C22.1824 162.899 22.3311 162.231 22.525 161.575C22.7 160.92 22.875 160.265 23.025 159.605C23.2468 158.963 23.3319 158.282 23.275 157.605C23.08 156.27 21.875 155.355 20.775 154.57C19.565 153.695 18.275 152.54 18.275 150.93C18.3367 149.665 18.8209 148.457 19.65 147.5C20.4 146.5 21.3 145.63 21.975 144.585C22.5029 143.861 22.7722 142.981 22.74 142.085C22.6531 141.533 22.4558 141.004 22.16 140.53C21.57 139.49 20.805 138.53 20.39 137.425C19.975 136.32 20.005 134.9 20.89 134.075C21.595 133.4 22.67 133.29 23.645 133.335C24.5638 133.427 25.4513 133.718 26.245 134.19C28.83 135.565 30.35 138.565 33.085 139.61C34.14 140.01 35.29 140.08 36.385 140.35C37.48 140.62 38.61 141.155 39.135 142.15C40.17 144.125 38.365 146.615 39.105 148.71C39.765 150.57 41.605 151.25 42.645 152.915C43.0671 153.654 43.2423 154.509 43.145 155.355C43.0864 156.783 42.7661 158.188 42.2 159.5C41.549 160.861 40.8143 162.18 40 163.45C40 163.45 28.415 171.28 28.31 171.345Z" fill="#22B0A2"/>
<path d="M35.07 167.2C35.028 167.199 34.9865 167.19 34.9479 167.174C34.9094 167.157 34.8745 167.133 34.8452 167.103C34.8159 167.073 34.7929 167.037 34.7775 166.998C34.762 166.959 34.7544 166.917 34.755 166.875C35.035 154.215 28.805 140.375 24.395 136.375C24.3323 136.318 24.2945 136.239 24.2899 136.155C24.2852 136.071 24.314 135.988 24.37 135.925C24.3994 135.895 24.4344 135.871 24.473 135.855C24.5116 135.839 24.5531 135.83 24.595 135.83C24.6369 135.83 24.6784 135.839 24.717 135.855C24.7557 135.871 24.7907 135.895 24.82 135.925C29.32 139.975 35.675 154.055 35.39 166.89C35.3894 166.931 35.3806 166.972 35.3641 167.01C35.3477 167.048 35.324 167.082 35.2942 167.111C35.2645 167.14 35.2294 167.163 35.191 167.178C35.1525 167.193 35.1114 167.201 35.07 167.2Z" fill="white"/>
<path d="M32.735 151.775C32.7055 151.782 32.6746 151.782 32.645 151.775C28.555 150.595 23.485 150.475 23.435 150.47C23.3932 150.469 23.352 150.46 23.3137 150.444C23.2754 150.427 23.2408 150.403 23.2119 150.372C23.1831 150.342 23.1605 150.307 23.1456 150.267C23.1307 150.228 23.1237 150.187 23.125 150.145C23.1243 150.103 23.1322 150.061 23.1485 150.022C23.1648 149.983 23.1889 149.948 23.2195 149.919C23.25 149.89 23.2863 149.867 23.326 149.853C23.3657 149.838 23.4079 149.832 23.45 149.835C23.5 149.835 28.65 149.96 32.82 151.16C32.9006 151.184 32.9684 151.239 33.0086 151.313C33.0489 151.387 33.0584 151.474 33.035 151.555C33.0156 151.619 32.9758 151.675 32.9217 151.715C32.8676 151.755 32.8021 151.776 32.735 151.775Z" fill="white"/>
<path d="M150.58 154.87L148.685 153.775C148.369 153.57 148.106 153.293 147.918 152.967C147.729 152.642 147.62 152.276 147.6 151.9V73.14C147.621 72.7647 147.729 72.3996 147.917 72.0739C148.104 71.7482 148.366 71.4711 148.68 71.265L201.355 40.855C201.691 40.685 202.061 40.5964 202.438 40.5964C202.814 40.5964 203.184 40.685 203.52 40.855L205.415 41.95C205.731 42.155 205.994 42.4317 206.182 42.7575C206.371 43.0833 206.48 43.4491 206.5 43.825V122.585C206.479 122.96 206.371 123.325 206.183 123.651C205.996 123.977 205.734 124.254 205.42 124.46L152.745 154.875C152.409 155.045 152.038 155.134 151.662 155.133C151.286 155.132 150.915 155.042 150.58 154.87Z" fill="#455A64"/>
<path d="M206.5 43.65C206.425 43.09 205.97 42.885 205.425 43.2L152.745 73.615C152.426 73.8149 152.163 74.0917 151.98 74.42L147.915 72.075C148.097 71.7442 148.36 71.4654 148.68 71.265L201.355 40.855C201.691 40.685 202.061 40.5964 202.437 40.5964C202.814 40.5964 203.184 40.685 203.52 40.855L205.415 41.95C205.708 42.1384 205.956 42.3879 206.143 42.6813C206.331 42.9747 206.452 43.3052 206.5 43.65Z" fill="#455A64"/>
<path d="M152.56 154.96C152.24 155.09 151.896 155.149 151.551 155.134C151.206 155.12 150.868 155.031 150.56 154.875L148.66 153.775C148.346 153.569 148.084 153.292 147.897 152.966C147.709 152.64 147.601 152.275 147.58 151.9V73.14C147.593 72.764 147.701 72.3975 147.895 72.075L151.96 74.42C151.762 74.7429 151.652 75.1116 151.64 75.49V154.25C151.66 154.87 152.05 155.155 152.56 154.96Z" fill="#263238"/>
<path d="M151.66 75.5V154.25C151.66 154.94 152.16 155.22 152.745 154.875L205.42 124.46C205.734 124.254 205.996 123.977 206.183 123.651C206.371 123.325 206.479 122.96 206.5 122.585V43.825C206.5 43.135 206 42.855 205.42 43.2L152.745 73.615C152.428 73.821 152.164 74.0992 151.976 74.4269C151.787 74.7546 151.679 75.1224 151.66 75.5Z" fill="#37474F"/>
<path d="M139.36 105.5C138.68 105.095 135.525 103.3 135.36 103.205C135.231 103.128 135.122 103.024 135.039 102.899C134.956 102.774 134.903 102.632 134.882 102.484C134.861 102.336 134.874 102.185 134.92 102.042C134.965 101.899 135.042 101.769 135.145 101.66L147.6 88.3L151.66 90.63L139.21 104C139.112 104.104 139.038 104.228 138.992 104.363C138.946 104.498 138.93 104.642 138.944 104.784C138.958 104.926 139.003 105.064 139.074 105.187C139.146 105.311 139.244 105.417 139.36 105.5Z" fill="#455A64"/>
<path d="M151.66 90.645L139.21 104C139.072 104.148 138.981 104.334 138.951 104.534C138.921 104.734 138.952 104.938 139.04 105.12C139.128 105.302 139.27 105.453 139.446 105.553C139.621 105.653 139.823 105.697 140.025 105.68L151.66 104.72V90.645Z" fill="#37474F"/>
<path d="M179.08 66.6C185.22 63.055 190.195 65.93 190.195 73.02C190.195 80.11 185.22 88.725 179.08 92.27C172.94 95.815 167.965 92.94 167.965 85.855C167.965 78.77 172.94 70.145 179.08 66.6Z" fill="#22B0A2"/>
<path d="M179 72.18C181 71.03 182.605 71.96 182.605 74.26C182.537 75.5103 182.175 76.7268 181.549 77.811C180.922 78.8952 180.049 79.8165 179 80.5C177 81.65 175.39 80.72 175.39 78.42C175.459 77.1693 175.821 75.9524 176.449 74.8682C177.076 73.784 177.95 72.863 179 72.18Z" fill="white"/>
<path d="M186.11 84.44C186.11 80.665 183.455 79.13 180.185 81.02L178.14 82.2C174.87 84.09 172.215 88.7 172.215 92.465V93.5C172.832 93.6973 173.477 93.7969 174.125 93.795C175.879 93.7354 177.587 93.2183 179.08 92.295C181.922 90.5443 184.327 88.1671 186.11 85.345V84.44Z" fill="white"/>
<path d="M172.04 127.365L186.12 119.235C186.72 118.89 187.205 119.17 187.205 119.86V124.395C187.185 124.771 187.076 125.137 186.887 125.462C186.699 125.788 186.436 126.065 186.12 126.27L172.04 134.4C171.44 134.745 170.955 134.465 170.955 133.775V129.24C170.975 128.864 171.084 128.498 171.273 128.173C171.461 127.847 171.724 127.57 172.04 127.365Z" fill="#22B0A2"/>
<path d="M165.145 117.235L193 101.145C193.715 100.73 194.3 101.065 194.3 101.895V103.58C194.276 104.031 194.145 104.47 193.919 104.861C193.693 105.252 193.378 105.584 193 105.83L165.13 121.92C164.415 122.335 163.835 122 163.835 121.17V119.5C163.858 119.046 163.989 118.603 164.216 118.209C164.444 117.815 164.762 117.481 165.145 117.235Z" fill="#FAFAFA"/>
<path d="M168.405 105.59C168.785 105.37 169.08 105.335 169.29 105.49C169.5 105.645 169.605 105.99 169.605 106.52C169.616 107.004 169.507 107.483 169.29 107.915C169.094 108.306 168.786 108.629 168.405 108.845L167.655 109.28V110.895C167.654 110.951 167.64 111.005 167.615 111.055C167.597 111.1 167.566 111.139 167.525 111.165L167.145 111.385C167.132 111.395 167.116 111.4 167.1 111.4C167.084 111.4 167.068 111.395 167.055 111.385C167.028 111.351 167.015 111.308 167.02 111.265V106.59C167.02 106.535 167.032 106.48 167.055 106.43C167.074 106.386 167.105 106.347 167.145 106.32L168.405 105.59ZM167.655 108.375L168.38 107.955C168.555 107.856 168.703 107.715 168.81 107.545C168.924 107.344 168.979 107.116 168.97 106.885C168.97 106.615 168.915 106.46 168.81 106.415C168.736 106.397 168.659 106.396 168.584 106.413C168.509 106.429 168.44 106.462 168.38 106.51L167.655 106.93V108.375Z" fill="#FAFAFA"/>
<path d="M171.7 103.685C171.75 103.655 171.79 103.655 171.815 103.685C171.847 103.73 171.869 103.781 171.88 103.835L173.035 107.745C173.035 107.745 173.035 107.775 173.035 107.79C173.034 107.846 173.021 107.9 172.995 107.95C172.977 107.995 172.946 108.034 172.905 108.06L172.565 108.255C172.505 108.29 172.46 108.295 172.435 108.255C172.411 108.23 172.394 108.199 172.385 108.165L172.18 107.48L170.68 108.34L170.48 109.26C170.466 109.31 170.447 109.358 170.425 109.405C170.4 109.466 170.354 109.516 170.295 109.545L169.955 109.74C169.942 109.751 169.926 109.756 169.91 109.756C169.894 109.756 169.878 109.751 169.865 109.74C169.839 109.708 169.826 109.666 169.83 109.625C169.827 109.607 169.827 109.588 169.83 109.57L170.98 104.33C170.994 104.253 171.016 104.178 171.045 104.105C171.069 104.052 171.11 104.009 171.16 103.98L171.7 103.685ZM171.96 106.715L171.46 104.95L170.96 107.31L171.96 106.715Z" fill="#FAFAFA"/>
<path d="M174.785 101.83C174.952 101.724 175.143 101.661 175.34 101.645C175.479 101.632 175.619 101.664 175.74 101.735C175.85 101.806 175.935 101.909 175.985 102.03C176.04 102.153 176.07 102.285 176.075 102.42C176.078 102.476 176.066 102.531 176.04 102.58C176.022 102.625 175.991 102.664 175.95 102.69L175.62 102.88C175.565 102.91 175.525 102.915 175.5 102.88C175.469 102.86 175.443 102.832 175.425 102.8C175.405 102.755 175.376 102.715 175.34 102.681C175.304 102.648 175.261 102.622 175.215 102.605C175.063 102.583 174.908 102.623 174.785 102.715C174.704 102.767 174.627 102.826 174.555 102.89C174.481 102.958 174.415 103.036 174.36 103.12C174.307 103.201 174.263 103.289 174.23 103.38C174.2 103.467 174.185 103.558 174.185 103.65C174.179 103.734 174.195 103.818 174.23 103.895C174.245 103.922 174.267 103.945 174.293 103.961C174.319 103.978 174.349 103.988 174.38 103.99C174.473 104.006 174.567 104.006 174.66 103.99L175.095 103.895C175.257 103.847 175.426 103.827 175.595 103.835C175.716 103.835 175.833 103.873 175.93 103.945C176.022 104.022 176.088 104.125 176.12 104.24C176.169 104.402 176.191 104.571 176.185 104.74C176.185 104.963 176.153 105.186 176.09 105.4C176.029 105.62 175.94 105.832 175.825 106.03C175.704 106.233 175.56 106.421 175.395 106.59C175.227 106.764 175.035 106.914 174.825 107.035C174.671 107.129 174.502 107.195 174.325 107.23C174.181 107.258 174.032 107.246 173.895 107.195C173.77 107.137 173.667 107.041 173.6 106.92C173.518 106.766 173.474 106.595 173.47 106.42C173.469 106.363 173.481 106.307 173.505 106.255C173.527 106.212 173.56 106.176 173.6 106.15L173.93 105.96C173.98 105.93 174.02 105.92 174.05 105.935C174.08 105.95 174.1 105.975 174.12 106.02C174.141 106.071 174.167 106.12 174.2 106.165C174.231 106.209 174.275 106.242 174.325 106.26C174.391 106.275 174.459 106.275 174.525 106.26C174.631 106.235 174.732 106.193 174.825 106.135C174.922 106.08 175.014 106.016 175.1 105.945C175.268 105.812 175.402 105.64 175.49 105.445C175.53 105.345 175.55 105.238 175.55 105.13C175.555 105.091 175.551 105.051 175.54 105.013C175.529 104.975 175.51 104.94 175.485 104.91C175.458 104.886 175.426 104.868 175.392 104.858C175.357 104.848 175.321 104.845 175.285 104.85C175.172 104.855 175.059 104.873 174.95 104.905C174.82 104.935 174.67 104.97 174.495 105C174.361 105.034 174.222 105.044 174.085 105.03C173.977 105.023 173.874 104.979 173.795 104.905C173.709 104.82 173.648 104.713 173.62 104.595C173.58 104.421 173.561 104.243 173.565 104.065C173.565 103.845 173.597 103.626 173.66 103.415C173.72 103.198 173.807 102.99 173.92 102.795C174.028 102.602 174.159 102.422 174.31 102.26C174.447 102.095 174.607 101.95 174.785 101.83Z" fill="#FAFAFA"/>
<path d="M178.07 99.94C178.236 99.8312 178.427 99.7658 178.625 99.75C178.764 99.7381 178.904 99.7696 179.025 99.84C179.132 99.9131 179.215 100.016 179.265 100.135C179.32 100.258 179.35 100.39 179.355 100.525C179.361 100.581 179.349 100.637 179.32 100.685C179.302 100.73 179.271 100.769 179.23 100.795L178.9 100.985C178.85 101.015 178.81 101.025 178.78 100.985C178.748 100.965 178.724 100.935 178.71 100.9C178.664 100.812 178.588 100.745 178.495 100.71C178.42 100.699 178.344 100.703 178.271 100.722C178.198 100.741 178.13 100.774 178.07 100.82C177.986 100.871 177.908 100.93 177.835 100.995C177.762 101.063 177.698 101.141 177.645 101.225C177.59 101.305 177.546 101.393 177.515 101.485C177.484 101.572 177.467 101.663 177.465 101.755C177.459 101.839 177.475 101.923 177.51 102C177.525 102.027 177.547 102.05 177.573 102.066C177.599 102.083 177.629 102.093 177.66 102.095C177.753 102.111 177.847 102.111 177.94 102.095L178.375 102C178.538 101.955 178.706 101.934 178.875 101.94C178.996 101.939 179.113 101.978 179.21 102.05C179.301 102.128 179.369 102.23 179.405 102.345C179.449 102.508 179.469 102.676 179.465 102.845C179.465 103.068 179.433 103.291 179.37 103.505C179.309 103.725 179.22 103.937 179.105 104.135C178.985 104.34 178.84 104.529 178.675 104.7C178.506 104.87 178.316 105.018 178.11 105.14C177.956 105.233 177.787 105.299 177.61 105.335C177.468 105.362 177.321 105.35 177.185 105.3C177.058 105.244 176.952 105.147 176.885 105.025C176.803 104.871 176.76 104.699 176.76 104.525C176.754 104.469 176.766 104.413 176.795 104.365C176.813 104.32 176.844 104.281 176.885 104.255L177.215 104.065C177.265 104.035 177.31 104.025 177.335 104.04C177.352 104.048 177.368 104.06 177.38 104.074C177.392 104.089 177.401 104.106 177.405 104.125C177.428 104.175 177.454 104.224 177.485 104.27C177.518 104.314 177.563 104.347 177.615 104.365C177.681 104.38 177.749 104.38 177.815 104.365C177.921 104.34 178.022 104.298 178.115 104.24C178.21 104.183 178.3 104.12 178.385 104.05C178.473 103.981 178.55 103.901 178.615 103.81C178.68 103.724 178.733 103.63 178.775 103.53C178.815 103.43 178.835 103.323 178.835 103.215C178.84 103.176 178.836 103.136 178.825 103.098C178.814 103.06 178.795 103.025 178.77 102.995C178.743 102.971 178.711 102.953 178.677 102.943C178.642 102.933 178.606 102.93 178.57 102.935C178.458 102.942 178.348 102.96 178.24 102.99C178.11 103.02 177.955 103.055 177.785 103.085C177.649 103.118 177.509 103.129 177.37 103.115C177.261 103.109 177.159 103.065 177.08 102.99C176.995 102.905 176.936 102.797 176.91 102.68C176.866 102.509 176.845 102.332 176.85 102.155C176.852 101.933 176.884 101.713 176.945 101.5C177.007 101.284 177.094 101.076 177.205 100.88C177.313 100.685 177.446 100.506 177.6 100.345C177.735 100.186 177.893 100.05 178.07 99.94Z" fill="#FAFAFA"/>
<path d="M181.715 100.565L181.31 102.96C181.298 103.032 181.278 103.102 181.25 103.17C181.231 103.224 181.194 103.27 181.145 103.3L180.765 103.52C180.715 103.55 180.68 103.55 180.655 103.52C180.621 103.479 180.602 103.428 180.6 103.375L180 99.15C180 99.15 180 99.11 180 99.095C180.001 99.0394 180.015 98.9848 180.04 98.935C180.059 98.8905 180.09 98.8524 180.13 98.825L180.475 98.625C180.504 98.6133 180.536 98.6133 180.565 98.625C180.595 98.625 180.615 98.665 180.625 98.745L181.02 101.59L181.365 99.455C181.374 99.4018 181.389 99.3498 181.41 99.3C181.43 99.2368 181.473 99.1832 181.53 99.15L181.915 98.925C181.97 98.895 182.01 98.9 182.035 98.925C182.057 98.9568 182.072 98.9924 182.08 99.03L182.43 100.765L182.825 97.465C182.83 97.4001 182.849 97.337 182.88 97.28C182.903 97.2426 182.934 97.2103 182.97 97.185L183.315 96.985C183.328 96.9753 183.344 96.97 183.36 96.97C183.376 96.97 183.392 96.9753 183.405 96.985C183.419 97.0014 183.43 97.0204 183.437 97.041C183.444 97.0616 183.447 97.0834 183.445 97.105C183.447 97.125 183.447 97.145 183.445 97.165L182.845 102.08C182.835 102.152 182.817 102.222 182.79 102.29C182.767 102.343 182.729 102.389 182.68 102.42L182.295 102.64C182.25 102.665 182.215 102.665 182.19 102.64C182.165 102.594 182.145 102.545 182.13 102.495L181.715 100.565Z" fill="#FAFAFA"/>
<path d="M184.055 98.445C184.066 98.1678 184.1 97.8919 184.155 97.62C184.212 97.3543 184.299 97.096 184.415 96.85C184.525 96.6109 184.666 96.3873 184.835 96.185C185.006 95.9843 185.211 95.8151 185.44 95.685C185.616 95.5655 185.822 95.4979 186.035 95.49C186.194 95.4917 186.346 95.5544 186.46 95.665C186.581 95.8011 186.668 95.9638 186.715 96.14C186.78 96.3696 186.815 96.6065 186.82 96.845C186.82 96.935 186.82 97.035 186.82 97.145C186.82 97.255 186.82 97.37 186.82 97.49C186.82 97.61 186.82 97.725 186.82 97.835C186.82 97.945 186.82 98.05 186.82 98.145C186.809 98.4206 186.776 98.6949 186.72 98.965C186.662 99.2299 186.577 99.488 186.465 99.735C186.351 99.9734 186.209 100.197 186.04 100.4C185.869 100.599 185.666 100.768 185.44 100.9C185.26 101.019 185.051 101.086 184.835 101.095C184.757 101.097 184.68 101.082 184.608 101.053C184.535 101.024 184.47 100.98 184.415 100.925C184.285 100.785 184.195 100.612 184.155 100.425C184.095 100.194 184.062 99.958 184.055 99.72C184.055 99.63 184.055 99.53 184.055 99.42C184.055 99.31 184.055 99.195 184.055 99.075C184.055 98.955 184.055 98.845 184.055 98.73C184.055 98.615 184.05 98.535 184.055 98.445ZM186.185 97.25C186.196 97.1277 186.182 97.0044 186.145 96.8875C186.107 96.7706 186.046 96.6626 185.965 96.57C185.835 96.455 185.655 96.46 185.44 96.57C185.207 96.7072 185.021 96.9133 184.91 97.16C184.768 97.4515 184.693 97.7709 184.69 98.095C184.69 98.28 184.69 98.485 184.69 98.71C184.69 98.935 184.69 99.135 184.69 99.315C184.679 99.4373 184.693 99.5606 184.73 99.6775C184.768 99.7944 184.829 99.9024 184.91 99.995C185.04 100.105 185.22 100.095 185.44 99.97C185.67 99.8319 185.852 99.6281 185.965 99.385C186.107 99.0953 186.182 98.7775 186.185 98.455C186.185 98.265 186.185 98.06 186.185 97.835C186.185 97.61 186.19 97.43 186.185 97.25Z" fill="#FAFAFA"/>
<path d="M189 93.69C189.395 93.465 189.69 93.43 189.895 93.595C190.016 93.7289 190.107 93.8879 190.16 94.0608C190.212 94.2337 190.226 94.4161 190.2 94.595C190.204 94.9346 190.152 95.2726 190.045 95.595C189.943 95.8953 189.786 96.1736 189.58 96.415L190.23 97.83C190.232 97.8533 190.232 97.8767 190.23 97.9C190.23 97.9451 190.22 97.9896 190.2 98.03C190.186 98.0663 190.162 98.0976 190.13 98.12L189.73 98.35C189.665 98.385 189.62 98.39 189.59 98.35C189.564 98.3238 189.542 98.2934 189.525 98.26L188.91 96.925L188.285 97.285V98.975C188.285 99.0303 188.273 99.0849 188.25 99.135C188.229 99.1784 188.199 99.2162 188.16 99.245L187.78 99.465C187.767 99.4756 187.751 99.4814 187.735 99.4814C187.719 99.4814 187.703 99.4756 187.69 99.465C187.676 99.4497 187.665 99.4315 187.658 99.4117C187.651 99.3919 187.648 99.3709 187.65 99.35V94.675C187.651 94.6194 187.665 94.5648 187.69 94.515C187.708 94.4697 187.739 94.4312 187.78 94.405L189 93.69ZM188.295 96.38L189 96C189.172 95.9038 189.32 95.7685 189.43 95.605C189.546 95.4123 189.602 95.1895 189.59 94.965C189.59 94.695 189.535 94.545 189.43 94.515C189.278 94.4943 189.124 94.5338 189 94.625L188.32 95.015L188.295 96.38Z" fill="#FAFAFA"/>
<path d="M192.35 91.765C192.531 91.6466 192.739 91.5745 192.955 91.555C193.111 91.5492 193.264 91.6049 193.38 91.71C193.512 91.8493 193.604 92.0222 193.645 92.21C193.712 92.458 193.749 92.7132 193.755 92.97C193.755 93.32 193.755 93.68 193.755 94.045C193.745 94.3427 193.708 94.6389 193.645 94.93C193.588 95.2005 193.501 95.4638 193.385 95.715C193.273 95.9457 193.132 96.1608 192.965 96.355C192.798 96.5538 192.598 96.7228 192.375 96.855L191.19 97.5C191.177 97.5106 191.161 97.5164 191.145 97.5164C191.129 97.5164 191.113 97.5106 191.1 97.5C191.085 97.4849 191.074 97.4668 191.067 97.4469C191.06 97.427 191.058 97.4059 191.06 97.385V92.71C191.061 92.6544 191.075 92.5998 191.1 92.55C191.118 92.5048 191.149 92.4663 191.19 92.44L192.35 91.765ZM193.12 93.32C193.118 93.1846 193.098 93.0501 193.06 92.92C193.037 92.8216 192.987 92.7315 192.915 92.66C192.884 92.6286 192.846 92.604 192.805 92.5877C192.764 92.5713 192.719 92.5636 192.675 92.565C192.55 92.5734 192.429 92.6148 192.325 92.685L191.695 93.045V96.305L192.35 95.93C192.477 95.8562 192.59 95.7616 192.685 95.65C192.778 95.5403 192.857 95.4194 192.92 95.29C192.982 95.1522 193.029 95.008 193.06 94.86C193.095 94.7056 193.115 94.5482 193.12 94.39C193.135 94.025 193.135 93.67 193.12 93.32Z" fill="#FAFAFA"/>
<path d="M123.69 19.195C124.553 19.387 125.385 19.7001 126.16 20.125C126.902 20.5241 127.568 21.0524 128.125 21.685C128.658 22.2935 129.054 23.0098 129.285 23.785C129.521 24.6148 129.538 25.4916 129.335 26.33C129.201 26.9948 128.938 27.6267 128.56 28.19C128.215 28.6717 127.805 29.1026 127.34 29.47C126.884 29.8243 126.397 30.1372 125.885 30.405L124.445 31.17C124.011 31.3962 123.599 31.6624 123.215 31.965C122.867 32.2318 122.601 32.5902 122.445 33C122.369 33.1872 122.243 33.3498 122.08 33.47C122.003 33.5297 121.914 33.5712 121.818 33.5911C121.723 33.611 121.624 33.6089 121.53 33.585L119.41 33.115C119.308 33.0936 119.211 33.0521 119.125 32.9928C119.039 32.9336 118.966 32.8578 118.91 32.77C118.85 32.6883 118.81 32.5937 118.794 32.4938C118.777 32.3939 118.785 32.2916 118.815 32.195C118.986 31.5384 119.287 30.9229 119.7 30.385C120.077 29.9092 120.514 29.484 121 29.12C121.473 28.7735 121.975 28.4674 122.5 28.205C123 27.95 123.5 27.705 123.935 27.46C124.34 27.2425 124.72 26.9827 125.07 26.685C125.377 26.428 125.59 26.0762 125.675 25.685C125.755 25.3453 125.751 24.9914 125.664 24.6535C125.576 24.3157 125.409 24.0039 125.175 23.745C124.59 23.1067 123.809 22.6824 122.955 22.54C121.375 22.19 120.042 22.7217 118.955 24.135C118.85 24.2893 118.718 24.4231 118.565 24.53C118.392 24.6156 118.193 24.6299 118.01 24.57L115.755 24.07C115.594 24.0389 115.452 23.9454 115.36 23.81C115.311 23.7376 115.278 23.6555 115.263 23.5693C115.248 23.483 115.252 23.3946 115.275 23.31C115.467 22.6152 115.823 21.9771 116.315 21.45C116.869 20.8387 117.528 20.3308 118.26 19.95C119.06 19.5312 119.923 19.2442 120.815 19.1C121.77 18.9446 122.747 18.9769 123.69 19.195ZM121.295 35.285C121.493 35.3316 121.666 35.4539 121.775 35.6258C121.884 35.7977 121.922 36.0056 121.88 36.205L121.34 38.655C121.322 38.7576 121.282 38.8551 121.223 38.9413C121.165 39.0275 121.089 39.1003 121 39.155C120.916 39.2127 120.822 39.2523 120.722 39.2712C120.622 39.2902 120.519 39.2881 120.42 39.265L118 38.71C117.897 38.6926 117.799 38.6533 117.713 38.5946C117.627 38.5359 117.554 38.4593 117.5 38.37C117.444 38.2855 117.406 38.1906 117.388 38.0908C117.37 37.9911 117.372 37.8887 117.395 37.79L117.94 35.34C117.987 35.1414 118.109 34.9687 118.28 34.8586C118.452 34.7485 118.66 34.7095 118.86 34.75L121.295 35.285Z" fill="#22B0A2"/>
<path d="M126.36 42.65C126.962 42.5534 127.575 42.5416 128.18 42.615C128.758 42.6837 129.32 42.8529 129.84 43.115C130.335 43.3719 130.771 43.7296 131.12 44.165C131.434 44.5912 131.654 45.0783 131.768 45.595C131.882 46.1118 131.886 46.6466 131.78 47.165C131.685 47.5636 131.531 47.946 131.325 48.3C131.126 48.6443 130.895 48.9691 130.635 49.27C130.38 49.57 130.135 49.855 129.91 50.13C129.69 50.3862 129.494 50.6624 129.325 50.955C129.167 51.2115 129.087 51.5087 129.095 51.81C129.091 51.9508 129.051 52.0883 128.98 52.21C128.944 52.2661 128.896 52.3138 128.84 52.35C128.784 52.3862 128.721 52.4101 128.655 52.42L127.155 52.66C127.085 52.6727 127.013 52.6713 126.943 52.6559C126.874 52.6404 126.808 52.6112 126.75 52.57C126.691 52.5329 126.642 52.4822 126.606 52.4222C126.57 52.3622 126.549 52.2946 126.545 52.225C126.482 51.7597 126.516 51.2865 126.645 50.835C126.763 50.4353 126.931 50.0522 127.145 49.695C127.355 49.3522 127.596 49.0292 127.865 48.73C128.13 48.43 128.365 48.15 128.595 47.88C128.8 47.6389 128.978 47.3756 129.125 47.095C129.255 46.8535 129.303 46.576 129.26 46.305C129.222 46.0665 129.128 45.8405 128.984 45.6464C128.841 45.4523 128.652 45.2957 128.435 45.19C127.898 44.9303 127.289 44.8565 126.705 44.98C126.176 45.0573 125.684 45.2963 125.297 45.6642C124.909 46.0322 124.645 46.511 124.54 47.035C124.511 47.1611 124.46 47.2811 124.39 47.39C124.301 47.4849 124.18 47.5436 124.05 47.555L122.47 47.81C122.359 47.8313 122.244 47.8079 122.15 47.745C122.102 47.7119 122.061 47.6689 122.031 47.6189C122.001 47.5689 121.982 47.513 121.975 47.455C121.928 46.9588 122.005 46.4588 122.2 46C122.398 45.4661 122.689 44.9718 123.06 44.54C123.467 44.0672 123.946 43.6622 124.48 43.34C125.056 42.9906 125.695 42.7563 126.36 42.65ZM128.94 53.575C129.009 53.5641 129.079 53.5668 129.147 53.5832C129.215 53.5995 129.279 53.629 129.335 53.67C129.394 53.7087 129.444 53.7595 129.482 53.819C129.52 53.8784 129.545 53.9452 129.555 54.015L129.835 55.73C129.857 55.8691 129.823 56.0112 129.74 56.1254C129.658 56.2396 129.534 56.3167 129.395 56.34L127.72 56.615C127.581 56.6365 127.439 56.6024 127.325 56.52C127.267 56.4808 127.218 56.4298 127.181 56.3703C127.144 56.3109 127.12 56.2444 127.11 56.175L126.83 54.46C126.817 54.3912 126.819 54.3205 126.836 54.2524C126.852 54.1844 126.882 54.1205 126.925 54.065C126.964 54.007 127.015 53.9579 127.075 53.9209C127.134 53.8838 127.201 53.8597 127.27 53.85L128.94 53.575Z" fill="#22B0A2"/>
<g opacity="0.2">
<path d="M126.36 42.65C126.962 42.5534 127.575 42.5416 128.18 42.615C128.758 42.6837 129.32 42.8529 129.84 43.115C130.335 43.3719 130.771 43.7296 131.12 44.165C131.434 44.5912 131.654 45.0783 131.768 45.595C131.882 46.1118 131.886 46.6466 131.78 47.165C131.685 47.5636 131.531 47.946 131.325 48.3C131.126 48.6443 130.895 48.9691 130.635 49.27C130.38 49.57 130.135 49.855 129.91 50.13C129.69 50.3862 129.494 50.6624 129.325 50.955C129.167 51.2115 129.087 51.5087 129.095 51.81C129.091 51.9508 129.051 52.0883 128.98 52.21C128.944 52.2661 128.896 52.3138 128.84 52.35C128.784 52.3862 128.721 52.4101 128.655 52.42L127.155 52.66C127.085 52.6727 127.013 52.6713 126.943 52.6559C126.874 52.6404 126.808 52.6112 126.75 52.57C126.691 52.5329 126.642 52.4822 126.606 52.4222C126.57 52.3622 126.549 52.2946 126.545 52.225C126.482 51.7597 126.516 51.2865 126.645 50.835C126.763 50.4353 126.931 50.0522 127.145 49.695C127.355 49.3522 127.596 49.0292 127.865 48.73C128.13 48.43 128.365 48.15 128.595 47.88C128.8 47.6389 128.978 47.3756 129.125 47.095C129.255 46.8535 129.303 46.576 129.26 46.305C129.222 46.0665 129.128 45.8405 128.984 45.6464C128.841 45.4523 128.652 45.2957 128.435 45.19C127.898 44.9303 127.289 44.8565 126.705 44.98C126.176 45.0573 125.684 45.2963 125.297 45.6642C124.909 46.0322 124.645 46.511 124.54 47.035C124.511 47.1611 124.46 47.2811 124.39 47.39C124.301 47.4849 124.18 47.5436 124.05 47.555L122.47 47.81C122.359 47.8313 122.244 47.8079 122.15 47.745C122.102 47.7119 122.061 47.6689 122.031 47.6189C122.001 47.5689 121.982 47.513 121.975 47.455C121.928 46.9588 122.005 46.4588 122.2 46C122.398 45.4661 122.689 44.9718 123.06 44.54C123.467 44.0672 123.946 43.6622 124.48 43.34C125.056 42.9906 125.695 42.7563 126.36 42.65ZM128.94 53.575C129.009 53.5641 129.079 53.5668 129.147 53.5832C129.215 53.5995 129.279 53.629 129.335 53.67C129.394 53.7087 129.444 53.7595 129.482 53.819C129.52 53.8784 129.545 53.9452 129.555 54.015L129.835 55.73C129.857 55.8691 129.823 56.0112 129.74 56.1254C129.658 56.2396 129.534 56.3167 129.395 56.34L127.72 56.615C127.581 56.6365 127.439 56.6024 127.325 56.52C127.267 56.4808 127.218 56.4298 127.181 56.3703C127.144 56.3109 127.12 56.2444 127.11 56.175L126.83 54.46C126.817 54.3912 126.819 54.3205 126.836 54.2524C126.852 54.1844 126.882 54.1205 126.925 54.065C126.964 54.007 127.015 53.9579 127.075 53.9209C127.134 53.8838 127.201 53.8597 127.27 53.85L128.94 53.575Z" fill="black"/>
</g>
<path d="M140.5 45.345C140.568 45.3924 140.626 45.4532 140.67 45.5237C140.714 45.5942 140.743 45.6729 140.755 45.755C140.771 45.8363 140.77 45.9201 140.752 46.001C140.734 46.0819 140.699 46.1582 140.65 46.225L139.46 47.9C139.413 47.9682 139.352 48.0259 139.281 48.0698C139.211 48.1136 139.132 48.1426 139.05 48.155C138.969 48.1709 138.885 48.1698 138.804 48.1517C138.723 48.1337 138.647 48.099 138.58 48.05L136.94 46.885C136.872 46.8382 136.814 46.7775 136.771 46.7068C136.728 46.6362 136.7 46.5571 136.69 46.475C136.674 46.3937 136.675 46.3099 136.693 46.229C136.711 46.1481 136.746 46.0718 136.795 46.005L138 44.33C138.097 44.1942 138.244 44.1024 138.409 44.0743C138.574 44.0462 138.743 44.0842 138.88 44.18L140.5 45.345ZM147.42 34C148.018 34.4191 148.55 34.9246 149 35.5C149.438 36.0353 149.777 36.6449 150 37.3C150.208 37.9277 150.277 38.5928 150.205 39.25C150.12 39.9508 149.855 40.6176 149.435 41.185C149.123 41.6438 148.722 42.0349 148.255 42.335C147.844 42.5925 147.398 42.7879 146.93 42.915C146.474 43.0341 146.009 43.1144 145.54 43.155L144.21 43.275C143.811 43.3069 143.416 43.3755 143.03 43.48C142.674 43.5609 142.348 43.7412 142.09 44C141.974 44.1183 141.826 44.2014 141.665 44.24C141.588 44.262 141.507 44.2653 141.429 44.2497C141.351 44.234 141.277 44.1998 141.215 44.15L139.765 43.12C139.626 43.021 139.532 42.8723 139.5 42.705C139.481 42.6239 139.482 42.5396 139.502 42.4588C139.522 42.378 139.561 42.303 139.615 42.24C139.954 41.8005 140.377 41.4333 140.86 41.16C141.295 40.9226 141.759 40.7427 142.24 40.625C142.705 40.5123 143.178 40.4404 143.655 40.41C144.125 40.38 144.565 40.345 144.975 40.305C145.35 40.2719 145.721 40.1981 146.08 40.085C146.394 39.9804 146.665 39.7747 146.85 39.5C147.017 39.2681 147.126 38.9992 147.167 38.7163C147.208 38.4334 147.18 38.1448 147.085 37.875C146.848 37.2086 146.396 36.6402 145.8 36.26C144.72 35.49 143.542 35.465 142.265 36.185C142.137 36.2668 141.994 36.3244 141.845 36.355C141.767 36.3604 141.689 36.3504 141.616 36.3255C141.542 36.3006 141.474 36.2614 141.415 36.21L139.875 35.115C139.819 35.078 139.771 35.0301 139.735 34.9743C139.698 34.9185 139.672 34.8558 139.66 34.79C139.648 34.722 139.65 34.6522 139.667 34.5851C139.683 34.5179 139.713 34.4549 139.755 34.4C140.118 33.9345 140.591 33.5653 141.13 33.325C141.743 33.0474 142.399 32.8782 143.07 32.825C143.808 32.7633 144.551 32.8224 145.27 33C146.046 33.187 146.777 33.527 147.42 34Z" fill="#22B0A2"/>
<g opacity="0.6">
<path d="M140.5 45.345C140.568 45.3924 140.626 45.4532 140.67 45.5237C140.714 45.5942 140.743 45.6729 140.755 45.755C140.771 45.8363 140.77 45.9201 140.752 46.001C140.734 46.0819 140.699 46.1582 140.65 46.225L139.46 47.9C139.413 47.9682 139.352 48.0259 139.281 48.0698C139.211 48.1136 139.132 48.1426 139.05 48.155C138.969 48.1709 138.885 48.1698 138.804 48.1517C138.723 48.1337 138.647 48.099 138.58 48.05L136.94 46.885C136.872 46.8382 136.814 46.7775 136.771 46.7068C136.728 46.6362 136.7 46.5571 136.69 46.475C136.674 46.3937 136.675 46.3099 136.693 46.229C136.711 46.1481 136.746 46.0718 136.795 46.005L138 44.33C138.097 44.1942 138.244 44.1024 138.409 44.0743C138.574 44.0462 138.743 44.0842 138.88 44.18L140.5 45.345ZM147.42 34C148.018 34.4191 148.55 34.9246 149 35.5C149.438 36.0353 149.777 36.6449 150 37.3C150.208 37.9277 150.277 38.5928 150.205 39.25C150.12 39.9508 149.855 40.6176 149.435 41.185C149.123 41.6438 148.722 42.0349 148.255 42.335C147.844 42.5925 147.398 42.7879 146.93 42.915C146.474 43.0341 146.009 43.1144 145.54 43.155L144.21 43.275C143.811 43.3069 143.416 43.3755 143.03 43.48C142.674 43.5609 142.348 43.7412 142.09 44C141.974 44.1183 141.826 44.2014 141.665 44.24C141.588 44.262 141.507 44.2653 141.429 44.2497C141.351 44.234 141.277 44.1998 141.215 44.15L139.765 43.12C139.626 43.021 139.532 42.8723 139.5 42.705C139.481 42.6239 139.482 42.5396 139.502 42.4588C139.522 42.378 139.561 42.303 139.615 42.24C139.954 41.8005 140.377 41.4333 140.86 41.16C141.295 40.9226 141.759 40.7427 142.24 40.625C142.705 40.5123 143.178 40.4404 143.655 40.41C144.125 40.38 144.565 40.345 144.975 40.305C145.35 40.2719 145.721 40.1981 146.08 40.085C146.394 39.9804 146.665 39.7747 146.85 39.5C147.017 39.2681 147.126 38.9992 147.167 38.7163C147.208 38.4334 147.18 38.1448 147.085 37.875C146.848 37.2086 146.396 36.6402 145.8 36.26C144.72 35.49 143.542 35.465 142.265 36.185C142.137 36.2668 141.994 36.3244 141.845 36.355C141.767 36.3604 141.689 36.3504 141.616 36.3255C141.542 36.3006 141.474 36.2614 141.415 36.21L139.875 35.115C139.819 35.078 139.771 35.0301 139.735 34.9743C139.698 34.9185 139.672 34.8558 139.66 34.79C139.648 34.722 139.65 34.6522 139.667 34.5851C139.683 34.5179 139.713 34.4549 139.755 34.4C140.118 33.9345 140.591 33.5653 141.13 33.325C141.743 33.0474 142.399 32.8782 143.07 32.825C143.808 32.7633 144.551 32.8224 145.27 33C146.046 33.187 146.777 33.527 147.42 34Z" fill="white"/>
</g>
<path d="M103.265 89.605H85.5V46.565C85.5 42.8268 86.985 39.2417 89.6283 36.5983C92.2717 33.955 95.8568 32.47 99.595 32.47H101.235C104.973 32.47 108.558 33.955 111.202 36.5983C113.845 39.2417 115.33 42.8268 115.33 46.565V77.565C115.323 80.7605 114.049 83.8229 111.787 86.0801C109.526 88.3373 106.461 89.605 103.265 89.605Z" fill="#263238"/>
<path d="M83.77 193.22C83.4558 195.003 83.2886 196.809 83.27 198.62C83.205 201.9 82.605 203.065 82.525 205.755C82.43 208.83 82.965 209.98 84.21 211.71C85.455 213.44 88.71 215.005 90.12 212.085C91.53 209.165 91.325 207.25 90.88 204.235C90.425 201.115 90.38 199.39 90.1 197.015C89.87 194.92 89.6 193.325 89.6 193.325L83.77 193.22Z" fill="#263238"/>
<path d="M93.08 171.435L82.28 171.24C82.44 178.45 83.585 186.455 83.78 193.24C83.82 194.515 83.75 203.135 84.23 205.74C84.955 209.68 89.625 209.145 89.875 206.79C90.125 204.435 89.575 194.37 89.59 193.33C89.545 188.99 91.59 181.665 92.645 173.875C92.69 173.5 93.03 171.81 93.08 171.435Z" fill="#FFA8A7"/>
<path d="M106.955 187.61C106.955 187.61 106.53 187.38 106.455 187.835C106.35 188.375 106.19 189.49 105.955 190.38C105.645 191.615 105.385 193.65 105.57 194.66C105.755 195.67 108.105 196.96 109.63 197.43C111.51 198.01 113.224 199.03 114.63 200.405C116.13 201.825 119.395 203.165 121.63 203.15C124.255 203.15 126.085 202.275 126.95 200.87C127.815 199.465 126.16 199.295 123.16 197.37L120.835 195.87C116.08 192.765 114.335 191.105 113 188L106.955 187.61Z" fill="#263238"/>
<path d="M113.04 185.685C112.96 183.455 114.5 164.5 114.5 164.5L104.245 169.175C106.44 182.285 106.91 185.38 106.945 187.525C106.9 187.705 106.882 187.89 106.89 188.075C106.89 190.62 109.775 191.995 112.015 193.695C113.919 195.187 115.948 196.512 118.08 197.655C119.71 198.47 123.02 198.545 123.43 197.5C120.7 195.415 116.73 192.295 114.56 189.915C113.5 188.795 113.12 187.92 113.04 185.685Z" fill="#FFA8A7"/>
<path d="M86.705 101.08C82.765 109.725 82.765 116.415 83.42 127.45C84 137.575 84.965 146.5 84.965 146.5C84.815 148.295 82.32 151.8 81.995 159.74C81.695 167.16 82.495 176.595 82.495 176.595C82.495 176.595 88.1 179.7 92.245 176.565C92.245 176.565 96.245 157.47 97.415 148.18C98.415 140.075 100.215 129.72 100.215 129.72L104 148.125C103.183 150.736 102.591 153.413 102.23 156.125C101.7 161.59 104.76 172.32 104.76 172.32C104.76 172.32 110.55 174.045 114.085 170.91C114.085 170.91 115.405 153.465 115.9 146.885C116.56 138.07 115.17 114.21 114.085 101.575L86.705 101.08Z" fill="#455A64"/>
<path d="M100.225 129.705L101.78 115.835C101.78 115.835 108.75 114.905 111.91 111.935C111.006 113.35 109.801 114.549 108.381 115.446C106.961 116.343 105.361 116.916 103.695 117.125L101.445 130.03L104 148.125L100.225 129.705Z" fill="#263238"/>
<path d="M128.45 97.67C128.738 95.1389 128.865 92.5921 128.83 90.045C128.675 87.845 128.28 87.485 125.205 83.59C121.055 78.325 117.51 73.59 113.76 68.885C111.08 65.525 108.26 65.01 105.52 65.16C103.6 65.265 107.35 74.5 109.235 79.965L120 91.555C120.334 92.0124 120.487 92.5768 120.43 93.14L119.78 103L123.005 107.32C123.005 107.32 127.89 103.11 128.45 97.67Z" fill="#FFA8A7"/>
<path d="M95.14 65.46C93.055 65.605 89.265 65.96 89.265 65.96C87.08 67.18 86.525 68.185 86.12 71.085C85.945 72.325 86.955 75.62 87.82 80.305L89.46 88.99L89.28 93.3C88.43 95.93 86.505 99.195 84.805 104.01C93.155 108.67 100.155 108.845 106.505 108.01C111.345 107.385 113.91 106.215 114.765 105.055C114.585 100.3 114.265 97.36 114.165 92.39C114.13 90.305 114.255 88.195 114.34 85.795C117.585 83.125 117.625 78.685 115.84 75.795C111.725 69.13 107.72 64.935 105.07 65.15L95.14 65.46Z" fill="#22B0A2"/>
<path opacity="0.6" d="M95.14 65.46C93.055 65.605 89.265 65.96 89.265 65.96C87.08 67.18 86.525 68.185 86.12 71.085C85.945 72.325 86.955 75.62 87.82 80.305L89.46 88.99L89.28 93.3C88.43 95.93 86.505 99.195 84.805 104.01C93.155 108.67 100.155 108.845 106.505 108.01C111.345 107.385 113.91 106.215 114.765 105.055C114.585 100.3 114.265 97.36 114.165 92.39C114.13 90.305 114.255 88.195 114.34 85.795C117.585 83.125 117.625 78.685 115.84 75.795C111.725 69.13 107.72 64.935 105.07 65.15L95.14 65.46Z" fill="white"/>
<path opacity="0.1" d="M107.875 85.86C107.875 85.86 104.065 88.82 99.71 87.275C98.4871 86.8896 97.3843 86.1952 96.5084 85.2588C95.6325 84.3225 95.013 83.1759 94.71 81.93C94.71 81.93 94.25 86.905 99.735 88.6C105.05 90.235 107.875 85.86 107.875 85.86Z" fill="black"/>
<path d="M113.045 51.805C112.88 59.025 110.545 60.805 109.365 61.305C108.185 61.805 105.925 61.505 103.725 61.14V65.5C103.725 65.5 106.265 68.16 106.075 70.145C105.885 72.13 102.075 72.355 99.235 70.41C97.668 69.3336 96.2506 68.0541 95.02 66.605C94.7837 66.3254 94.6544 65.971 94.655 65.605V55.405C94.655 55.405 93.45 56.68 91.32 55.22C90.8604 54.9267 90.4669 54.541 90.1645 54.0873C89.862 53.6337 89.6572 53.1221 89.5632 52.5851C89.4691 52.0481 89.4879 51.4974 89.6182 50.9679C89.7484 50.4385 89.9875 49.942 90.32 49.51C91.25 48.415 93.61 48.34 94.74 50.01C95.38 51.255 95.465 52.51 96.18 52.01C98.08 50.64 97.06 47.51 99.355 46.01C100.108 45.6169 100.89 45.2826 101.695 45.01C105.79 43.595 109.34 42.405 110.195 39.605C111.805 40.525 113.245 43.29 113.045 51.805Z" fill="#FFA8A7"/>
<path d="M104.97 58.255C105.495 58.255 105.92 57.8297 105.92 57.305C105.92 56.7803 105.495 56.355 104.97 56.355C104.445 56.355 104.02 56.7803 104.02 57.305C104.02 57.8297 104.445 58.255 104.97 58.255Z" fill="#B16668"/>
<path d="M104.34 50.71C104.34 50.9056 104.282 51.0968 104.174 51.26C104.067 51.4232 103.913 51.5512 103.733 51.6281C103.554 51.7051 103.355 51.7276 103.163 51.6929C102.97 51.6582 102.792 51.5678 102.65 51.4329C102.509 51.298 102.41 51.1245 102.366 50.9339C102.322 50.7434 102.334 50.5441 102.403 50.3607C102.471 50.1773 102.591 50.0179 102.749 49.9023C102.906 49.7866 103.095 49.7198 103.29 49.71C103.425 49.7032 103.561 49.7241 103.688 49.7713C103.815 49.8185 103.931 49.8911 104.03 49.9846C104.128 50.0781 104.206 50.1907 104.259 50.3154C104.313 50.4401 104.34 50.5744 104.34 50.71Z" fill="#263238"/>
<path d="M111.915 50.81C111.925 50.9323 111.911 51.0555 111.873 51.1723C111.835 51.289 111.775 51.3971 111.695 51.4902C111.614 51.5833 111.517 51.6595 111.407 51.7144C111.297 51.7693 111.177 51.8018 111.055 51.81C110.931 51.8214 110.807 51.8064 110.689 51.766C110.572 51.7255 110.465 51.6606 110.374 51.5755C110.284 51.4904 110.213 51.387 110.166 51.2723C110.118 51.1575 110.096 51.034 110.1 50.91C110.087 50.7868 110.1 50.6622 110.136 50.5439C110.173 50.4256 110.234 50.3162 110.315 50.2222C110.396 50.1282 110.495 50.0517 110.606 49.9974C110.717 49.943 110.839 49.912 110.962 49.9062C111.086 49.9004 111.21 49.92 111.326 49.9637C111.442 50.0073 111.548 50.0742 111.637 50.1603C111.726 50.2463 111.797 50.3496 111.845 50.4639C111.892 50.5782 111.916 50.7011 111.915 50.825V50.81Z" fill="#263238"/>
<path d="M103.055 53.28C102.193 53.28 101.365 52.9377 100.755 52.3284C100.145 51.719 99.8013 50.8924 99.8 50.03C99.8 47.82 102.08 47.82 103.055 47.82C104.03 47.82 106.305 47.82 106.305 50.03C106.304 50.8915 105.961 51.7174 105.352 52.3266C104.742 52.9358 103.917 53.2787 103.055 53.28ZM103.055 48.33C101.055 48.33 100.315 48.83 100.315 50.03C100.315 50.7593 100.605 51.4588 101.12 51.9745C101.636 52.4903 102.336 52.78 103.065 52.78C103.794 52.78 104.494 52.4903 105.01 51.9745C105.525 51.4588 105.815 50.7593 105.815 50.03C105.795 48.805 105.025 48.33 103.055 48.33Z" fill="#455A64"/>
<path d="M111.31 53.28C110.448 53.28 109.62 52.9377 109.01 52.3284C108.4 51.719 108.056 50.8924 108.055 50.03C108.055 47.82 110.335 47.82 111.31 47.82C112.285 47.82 114.56 47.82 114.56 50.03C114.559 50.8915 114.216 51.7174 113.607 52.3266C112.997 52.9358 112.172 53.2787 111.31 53.28ZM111.31 48.33C109.34 48.33 108.57 48.83 108.57 50.03C108.57 50.7593 108.86 51.4588 109.375 51.9745C109.891 52.4903 110.591 52.78 111.32 52.78C112.049 52.78 112.749 52.4903 113.265 51.9745C113.78 51.4588 114.07 50.7593 114.07 50.03C114.05 48.805 113.28 48.33 111.31 48.33Z" fill="#455A64"/>
<path d="M106.81 48.98L106.97 55.055L110.165 54.065L106.81 48.98Z" fill="#F28F8F"/>
<path d="M103.72 61.155C101.4 60.85 96.625 59.48 95.88 57.59C96.1799 58.5452 96.7643 59.386 97.555 60C98.98 61.225 103.72 62.6 103.72 62.6V61.155Z" fill="#F28F8F"/>
<path d="M103.835 46.03L101.715 47.325C101.548 47.034 101.499 46.6897 101.579 46.3639C101.66 46.038 101.862 45.7555 102.145 45.575C102.285 45.4901 102.44 45.4345 102.602 45.4115C102.764 45.3884 102.929 45.3985 103.087 45.441C103.245 45.4835 103.393 45.5577 103.522 45.6589C103.65 45.7601 103.757 45.8864 103.835 46.03Z" fill="#263238"/>
<path d="M112.46 47.47L110.1 46.645C110.146 46.4886 110.223 46.3432 110.327 46.2177C110.431 46.0922 110.559 45.9893 110.704 45.9153C110.85 45.8413 111.008 45.7978 111.171 45.7874C111.334 45.7771 111.497 45.8001 111.65 45.855C111.967 45.9687 112.227 46.1999 112.378 46.5005C112.529 46.8012 112.558 47.1483 112.46 47.47Z" fill="#263238"/>
<path d="M106.05 50.29C106.016 50.29 105.983 50.2832 105.951 50.2701C105.92 50.257 105.892 50.2378 105.868 50.2136C105.844 50.1893 105.826 50.1606 105.813 50.1291C105.8 50.0976 105.794 50.0639 105.795 50.03C105.795 49.615 106.615 49.345 107.355 49.345C108.095 49.345 108.57 49.615 108.57 50.03C108.555 50.0843 108.522 50.1321 108.477 50.1662C108.432 50.2002 108.377 50.2186 108.32 50.2186C108.264 50.2186 108.209 50.2002 108.163 50.1662C108.118 50.1321 108.086 50.0843 108.07 50.03C108.07 49.98 107.815 49.855 107.37 49.855C107.012 49.8474 106.655 49.9085 106.32 50.035C106.32 50.0698 106.313 50.1042 106.299 50.1362C106.286 50.1681 106.265 50.1969 106.24 50.2208C106.215 50.2447 106.185 50.2632 106.152 50.2751C106.12 50.287 106.085 50.292 106.05 50.29Z" fill="#455A64"/>
<path d="M100.065 50.07H100.035L94.32 49.57C94.053 49.3053 93.7348 49.0978 93.385 48.96L100.095 49.58C100.162 49.5888 100.223 49.6235 100.266 49.6767C100.308 49.73 100.327 49.7975 100.32 49.865C100.308 49.9236 100.276 49.9763 100.23 50.0138C100.183 50.0513 100.125 50.0712 100.065 50.07Z" fill="#455A64"/>
<path d="M76.6 56.03C78.47 53.53 79.745 51.645 81.45 49.53C82.42 48.315 83.04 47.445 83.95 46.2C84.59 45.34 84.95 44.615 85.68 44.35C86.4687 44.0268 87.1795 43.5393 87.765 42.92C88.1249 42.5218 88.459 42.1009 88.765 41.66C89.8367 40.2175 91.1096 38.9362 92.545 37.855C94.045 36.725 95.72 35.855 97.265 34.78C98.185 34.135 99.17 33.065 98.05 32.065C97.7065 31.7757 97.2954 31.5779 96.855 31.49C94.13 30.9 91.76 31.835 89.095 32.515C87.9374 32.8039 86.8053 33.1869 85.71 33.66C85.1713 33.8731 84.6661 34.1627 84.21 34.52C83.5724 35.1629 83.0498 35.9104 82.665 36.73C81.5 38.81 79 40.67 77.25 42.315C75.205 44.24 73.375 46.005 71.04 48.125C68.94 50.04 66.885 51.8 64.96 53.89C63.365 55.615 63.96 56.965 64.17 57.435C65.47 60.105 66.925 61.065 68.67 62.72C71.67 65.585 82.045 73.83 85.48 76.555C86.218 77.1347 86.7976 77.8914 87.165 78.755L87.825 80.28C91.745 81 94.36 75.115 91.115 68.03C90.5776 66.8843 89.7567 65.8947 88.73 65.155C84.63 62.17 76.6 56.03 76.6 56.03Z" fill="#FFA8A7"/>
<path d="M76.6 56.03C75.3523 57.5649 73.6896 58.7087 71.81 59.325C71.81 59.325 74.31 59.965 77.735 56.89L76.6 56.03Z" fill="#F28F8F"/>
<path d="M127.43 92.455L126.79 91.905C126.694 91.842 126.585 91.8024 126.471 91.7893C126.358 91.7763 126.242 91.7902 126.135 91.83L119.19 93.72C118.84 93.8366 118.52 94.0275 118.25 94.2795C117.981 94.5315 117.77 94.8386 117.63 95.18L112.63 109.595C112.57 109.712 112.546 109.845 112.562 109.976C112.578 110.107 112.633 110.231 112.72 110.33L113.38 110.9C113.476 110.966 113.587 111.008 113.703 111.022C113.818 111.036 113.936 111.022 114.045 110.98L121 109.09C121.35 108.973 121.67 108.783 121.94 108.531C122.209 108.279 122.42 107.971 122.56 107.63C123.56 104.795 126.56 96.05 127.56 93.215C127.68 92.86 127.62 92.59 127.43 92.455Z" fill="#455A64"/>
<path d="M113.285 110.15L118.285 95.735C118.424 95.3939 118.635 95.087 118.905 94.8358C119.174 94.5845 119.495 94.3949 119.845 94.28L126.785 92.39C127.43 92.215 127.785 92.585 127.555 93.215C126.555 96.05 123.555 104.795 122.555 107.63C122.415 107.971 122.204 108.279 121.935 108.531C121.665 108.783 121.345 108.973 120.995 109.09L114.055 111C113.415 111.15 113.07 110.78 113.285 110.15Z" fill="#22B0A2"/>
<path d="M119.09 94.68C118.729 94.9534 118.449 95.3198 118.28 95.74L113.28 110.15C113.223 110.264 113.199 110.393 113.211 110.52C113.224 110.647 113.272 110.769 113.35 110.87L112.73 110.34C112.641 110.242 112.584 110.119 112.567 109.987C112.551 109.856 112.574 109.723 112.635 109.605L117.635 95.19C117.793 94.7981 118.05 94.4537 118.38 94.19L119.09 94.68Z" fill="#37474F"/>
<path d="M125.525 99.025C125.025 100.49 123.29 101.47 120.42 102.15C117.55 102.83 115.965 105.875 116.42 106.8C116.875 107.725 121.515 108.59 123.37 108.325C125.225 108.06 127.085 105.38 127.65 104.55C128.215 103.72 128.865 97.93 128.27 97.135C127.675 96.34 126.42 96.465 126.42 96.465L125.525 99.025Z" fill="#F28F8F"/>
</svg>
