<svg width="18" height="18" viewBox="0 0 18 18" fill="none" xmlns="http://www.w3.org/2000/svg">
<path d="M5.40001 1.7998C4.92262 1.7998 4.46478 1.98945 4.12721 2.32701C3.78965 2.66458 3.60001 3.12242 3.60001 3.5998V14.3998C3.60001 14.8772 3.78965 15.335 4.12721 15.6726C4.46478 16.0102 4.92262 16.1998 5.40001 16.1998H9.23131C9.00208 15.9222 8.80381 15.6204 8.64001 15.2998H5.40001C5.16131 15.2998 4.93239 15.205 4.76361 15.0362C4.59483 14.8674 4.50001 14.6385 4.50001 14.3998H8.28631C8.0456 13.552 8.03563 12.6552 8.25743 11.8022C8.47922 10.9493 8.92474 10.171 9.54795 9.54774C10.1712 8.92454 10.9495 8.47902 11.8024 8.25723C12.6554 8.03543 13.5522 8.0454 14.4 8.2861V3.5998C14.4 3.12242 14.2104 2.66458 13.8728 2.32701C13.5352 1.98945 13.0774 1.7998 12.6 1.7998H5.40001ZM6.07501 4.0498H11.925C12.104 4.0498 12.2757 4.12092 12.4023 4.24751C12.5289 4.37409 12.6 4.54578 12.6 4.7248C12.6 4.90383 12.5289 5.07552 12.4023 5.2021C12.2757 5.32869 12.104 5.3998 11.925 5.3998H6.07501C5.89598 5.3998 5.7243 5.32869 5.59771 5.2021C5.47112 5.07552 5.40001 4.90383 5.40001 4.7248C5.40001 4.54578 5.47112 4.37409 5.59771 4.24751C5.7243 4.12092 5.89598 4.0498 6.07501 4.0498ZM17.1 13.0498C17.1 14.1239 16.6733 15.1541 15.9138 15.9136C15.1543 16.6731 14.1241 17.0998 13.05 17.0998C11.9759 17.0998 10.9457 16.6731 10.1862 15.9136C9.4267 15.1541 9.00001 14.1239 9.00001 13.0498C9.00001 11.9757 9.4267 10.9455 10.1862 10.186C10.9457 9.4265 11.9759 8.9998 13.05 8.9998C14.1241 8.9998 15.1543 9.4265 15.9138 10.186C16.6733 10.9455 17.1 11.9757 17.1 13.0498ZM13.5 11.2498C13.5 11.1305 13.4526 11.016 13.3682 10.9316C13.2838 10.8472 13.1694 10.7998 13.05 10.7998C12.9307 10.7998 12.8162 10.8472 12.7318 10.9316C12.6474 11.016 12.6 11.1305 12.6 11.2498V12.5998H11.25C11.1307 12.5998 11.0162 12.6472 10.9318 12.7316C10.8474 12.816 10.8 12.9305 10.8 13.0498C10.8 13.1692 10.8474 13.2836 10.9318 13.368C11.0162 13.4524 11.1307 13.4998 11.25 13.4998H12.6V14.8498C12.6 14.9692 12.6474 15.0836 12.7318 15.168C12.8162 15.2524 12.9307 15.2998 13.05 15.2998C13.1694 15.2998 13.2838 15.2524 13.3682 15.168C13.4526 15.0836 13.5 14.9692 13.5 14.8498V13.4998H14.85C14.9694 13.4998 15.0838 13.4524 15.1682 13.368C15.2526 13.2836 15.3 13.1692 15.3 13.0498C15.3 12.9305 15.2526 12.816 15.1682 12.7316C15.0838 12.6472 14.9694 12.5998 14.85 12.5998H13.5V11.2498Z" fill="#C4C4C4"/>
</svg>
