<svg width="16" height="16" viewBox="0 0 16 16" fill="none" xmlns="http://www.w3.org/2000/svg">
<g clip-path="url(#clip0_7_1975)">
<path d="M1.01561 0.0437508C0.553111 0.159376 0.168736 0.540626 0.0437359 1.0125C0.00936093 1.14375 -1.40734e-05 2.2125 -1.40734e-05 7.32813C-1.40734e-05 14.0688 -0.00938908 13.675 0.178111 14C0.293736 14.1938 0.524986 14.4188 0.706236 14.5094C0.790611 14.55 1.79999 14.9 2.95311 15.2844L5.04686 15.9844H5.32811C5.67186 15.9844 5.86561 15.9219 6.12499 15.7313C6.33436 15.5781 6.50311 15.3469 6.59374 15.0844C6.64374 14.9406 6.65624 14.8281 6.65624 14.4531V14H7.75936C9.01561 14 9.14061 13.9844 9.56249 13.7781C10.0687 13.5313 10.4781 13.0156 10.6062 12.4688C10.6781 12.1656 10.6781 9.24063 10.6094 9.06875C10.4 8.56875 9.67499 8.5375 9.41249 9.01563C9.36561 9.09688 9.35624 9.29375 9.34374 10.6406L9.32811 12.1719L9.24999 12.3125C9.20624 12.3875 9.10936 12.4938 9.03749 12.5469L8.89999 12.6406L7.77811 12.65L6.65624 12.6594L6.64999 7.49375L6.64061 2.32813L6.54061 2.11875C6.37811 1.775 6.15936 1.57188 5.78436 1.41563L5.60936 1.34375L7.25624 1.35313L8.89999 1.35938L9.03749 1.45313C9.10936 1.50625 9.20624 1.6125 9.24999 1.6875L9.32811 1.82813L9.34374 3.0375L9.35936 4.24375L9.45311 4.37813C9.59374 4.57813 9.77811 4.6625 10.0344 4.65C10.2719 4.6375 10.4312 4.55 10.5625 4.35313L10.6406 4.2375L10.65 2.99688C10.6594 1.59688 10.65 1.5125 10.4437 1.09375C10.275 0.750001 9.91874 0.396876 9.56249 0.221876C9.08749 -0.00937366 9.30936 9.53674e-07 5.01561 0.00312614C2.06874 0.00625134 1.13436 0.015626 1.01561 0.0437508Z" fill="#11AD97"/>
<path d="M12.3906 3.40312C12.2312 3.475 12.075 3.65 12.0343 3.80312C12.0125 3.875 12 4.33125 12 4.95937V6H10.6H9.19997L9.03435 6.08125C8.7531 6.22187 8.6156 6.51875 8.6906 6.825C8.7406 7.03437 8.95622 7.25625 9.16247 7.30625C9.26247 7.33125 9.7281 7.34375 10.6531 7.34375H12V8.37812C12 9.10938 12.0125 9.45312 12.0375 9.54375C12.1156 9.79688 12.4062 10 12.6906 10C12.9406 9.99687 13.025 9.925 14.4625 8.49063C15.9031 7.05312 16 6.9375 16 6.69375C16 6.39687 16.0187 6.41875 14.5031 4.89687C13.5625 3.95625 13.0343 3.44688 12.95 3.40625C12.7906 3.32812 12.5562 3.32812 12.3906 3.40312Z" fill="#11AD97"/>
</g>
<defs>
<clipPath id="clip0_7_1975">
<rect width="16" height="16" fill="white"/>
</clipPath>
</defs>
</svg>
