<svg width="69" height="69" viewBox="0 0 69 69" fill="none" xmlns="http://www.w3.org/2000/svg">
<path d="M34.5 63.6454C48.2485 63.6454 59.3938 62.5605 59.3938 61.2221C59.3938 59.8838 48.2485 58.7988 34.5 58.7988C20.7515 58.7988 9.6062 59.8838 9.6062 61.2221C9.6062 62.5605 20.7515 63.6454 34.5 63.6454Z" fill="#EBEBEB"/>
<path d="M29.532 44.73C29.532 42.522 29.8927 40.538 30.6139 38.7781C31.3352 37.0181 32.8229 35.4849 35.0769 34.1785C35.754 33.7728 36.5884 33.3128 37.5802 32.7985C38.6007 32.2626 39.5735 31.6402 40.4879 30.9383C41.4226 30.2315 42.2339 29.3749 42.8891 28.4032C43.5495 27.4128 43.8918 26.2443 43.8702 25.054C43.89 24.1871 43.7056 23.3277 43.332 22.5451C42.9874 21.8465 42.5043 21.2254 41.912 20.7194C41.3037 20.2125 40.5998 19.8328 39.842 19.603C39.0652 19.3578 38.2554 19.2326 37.4408 19.2318C36.5176 19.2191 35.601 19.3899 34.7443 19.7341C33.9562 20.0589 33.2168 20.4912 32.5473 21.0189C31.8948 21.5354 31.3044 22.1259 30.7878 22.7784C30.3123 23.3715 29.8722 23.9922 29.4699 24.6372H28.4515L23.5842 20.58C24.1472 19.2157 24.9361 17.9561 25.9178 16.854C26.8777 15.7795 27.9943 14.856 29.2298 14.1147C30.4867 13.3675 31.8428 12.8016 33.258 12.4339C34.7148 12.0491 36.2156 11.8557 37.7223 11.8584C39.4404 11.8594 41.1492 12.11 42.7952 12.6022C44.4366 13.0853 45.9655 13.8903 47.2926 14.9703C48.6636 16.1051 49.7715 17.5243 50.5398 19.1296C51.3733 20.8206 51.7901 22.8386 51.7901 25.1837C51.8109 26.4755 51.6402 27.7632 51.2836 29.0049C50.9598 30.079 50.4685 31.0953 49.8277 32.0161C49.1932 32.9213 48.443 33.7397 47.5962 34.4504C46.6768 35.2164 45.7047 35.9168 44.6872 36.5466C43.7847 37.0894 42.8831 37.6083 41.9824 38.1033C41.1107 38.5788 40.2843 39.1331 39.5136 39.7593C38.7878 40.3475 38.1696 41.0572 37.6865 41.8569C37.2136 42.6462 36.9771 43.6044 36.9771 44.7314L29.532 44.73ZM29.67 60.4883V51.1553H37.1772V60.4883H29.67Z" fill="#019267"/>
<g opacity="0.2">
<path opacity="0.2" d="M29.532 44.73C29.532 42.522 29.8927 40.538 30.6139 38.7781C31.3352 37.0181 32.8229 35.4849 35.0769 34.1785C35.754 33.7728 36.5884 33.3128 37.5802 32.7985C38.6007 32.2626 39.5735 31.6402 40.4879 30.9383C41.4226 30.2315 42.2339 29.3749 42.8891 28.4032C43.5495 27.4128 43.8918 26.2443 43.8702 25.054C43.89 24.1871 43.7056 23.3277 43.332 22.5451C42.9874 21.8465 42.5043 21.2254 41.912 20.7194C41.3037 20.2125 40.5998 19.8328 39.842 19.603C39.0652 19.3578 38.2554 19.2326 37.4408 19.2318C36.5176 19.2191 35.601 19.3899 34.7443 19.7341C33.9562 20.0589 33.2168 20.4912 32.5473 21.0189C31.8948 21.5354 31.3044 22.1259 30.7878 22.7784C30.3123 23.3715 29.8722 23.9922 29.4699 24.6372H28.4515L23.5842 20.58C24.1472 19.2157 24.9361 17.9561 25.9178 16.854C26.8777 15.7795 27.9943 14.856 29.2298 14.1147C30.4867 13.3675 31.8428 12.8016 33.258 12.4339C34.7148 12.0491 36.2156 11.8557 37.7223 11.8584C39.4404 11.8594 41.1492 12.11 42.7952 12.6022C44.4366 13.0853 45.9655 13.8903 47.2926 14.9703C48.6636 16.1051 49.7715 17.5243 50.5398 19.1296C51.3733 20.8206 51.7901 22.8386 51.7901 25.1837C51.8109 26.4755 51.6402 27.7632 51.2836 29.0049C50.9598 30.079 50.4685 31.0953 49.8277 32.0161C49.1932 32.9213 48.443 33.7397 47.5962 34.4504C46.6768 35.2164 45.7047 35.9168 44.6872 36.5466C43.7847 37.0894 42.8831 37.6083 41.9824 38.1033C41.1107 38.5788 40.2843 39.1331 39.5136 39.7593C38.7878 40.3475 38.1696 41.0572 37.6865 41.8569C37.2136 42.6462 36.9771 43.6044 36.9771 44.7314L29.532 44.73ZM29.67 60.4883V51.1553H37.1772V60.4883H29.67Z" fill="black"/>
</g>
<path d="M28.5191 44.73C28.5191 42.522 28.8797 40.5381 29.601 38.7781C30.3223 37.0181 31.8104 35.485 34.0653 34.1786C34.7415 33.7728 35.5755 33.3128 36.5672 32.7986C37.5884 32.263 38.5617 31.6406 39.4763 30.9383C40.4107 30.2311 41.222 29.3746 41.8775 28.4033C42.5369 27.4124 42.8787 26.2441 42.8573 25.054C42.8751 24.1892 42.6898 23.3323 42.3163 22.5521C41.9717 21.8535 41.4886 21.2323 40.8963 20.7263C40.288 20.2194 39.5841 19.8397 38.8263 19.6099C38.0495 19.3647 37.2397 19.2395 36.4251 19.2387C35.5019 19.2234 34.5848 19.3918 33.7272 19.7341C32.9387 20.0589 32.1989 20.4913 31.5289 21.0189C30.8768 21.5355 30.2868 22.1259 29.7707 22.7784C29.2948 23.3715 28.8543 23.9922 28.4515 24.6372L22.5671 20.58C23.1297 19.2155 23.9187 17.9558 24.9007 16.854C25.8602 15.7791 26.9769 14.8556 28.2127 14.1147C29.4692 13.3677 30.8249 12.8019 32.2396 12.4339C33.6977 12.0486 35.1998 11.8552 36.708 11.8584C38.4261 11.8593 40.1349 12.1099 41.7809 12.6023C43.4224 13.085 44.9513 13.8901 46.2783 14.9703C47.6496 16.1048 48.7576 17.5241 49.5254 19.1297C50.359 20.8206 50.7762 22.8386 50.7771 25.1837C50.7975 26.4756 50.6264 27.7633 50.2693 29.0049C49.9447 30.0795 49.4519 31.0958 48.8092 32.0161C48.1747 32.9213 47.4245 33.7397 46.5778 34.4504C45.6588 35.217 44.6867 35.9175 43.6687 36.5466C42.768 37.0894 41.8664 37.6083 40.9639 38.1033C40.0922 38.5788 39.2658 39.1332 38.4951 39.7593C37.7697 40.3476 37.152 41.0573 36.6694 41.8569C36.1965 42.6462 35.9596 43.6044 35.9587 44.7314L28.5191 44.73ZM28.6571 60.4883V51.1553H36.156V60.4883H28.6571Z" fill="#019267"/>
</svg>
