<svg width="13" height="13" viewBox="0 0 13 13" fill="none" xmlns="http://www.w3.org/2000/svg">
<path d="M12.6922 11.0563L10.4443 8.9375C11.1696 8.06404 11.5631 6.98541 11.5616 5.875C11.5616 4.8861 11.2514 3.9194 10.6703 3.09715C10.0891 2.27491 9.26305 1.63404 8.29659 1.2556C7.33013 0.877166 6.26666 0.77815 5.24068 0.971076C4.21469 1.164 3.27226 1.64021 2.53256 2.33947C1.79287 3.03873 1.28913 3.92965 1.08504 4.89955C0.880963 5.86946 0.985705 6.87479 1.38603 7.78842C1.78635 8.70205 2.46427 9.48294 3.33406 10.0324C4.20385 10.5818 5.22644 10.875 6.27253 10.875C7.44715 10.8764 8.58814 10.5044 9.51212 9.81875L11.7534 11.9438C11.8148 12.0023 11.888 12.0488 11.9685 12.0806C12.0491 12.1123 12.1355 12.1286 12.2228 12.1286C12.3101 12.1286 12.3965 12.1123 12.477 12.0806C12.5576 12.0488 12.6307 12.0023 12.6922 11.9438C12.7542 11.8856 12.8033 11.8165 12.8369 11.7404C12.8705 11.6642 12.8878 11.5825 12.8878 11.5C12.8878 11.4175 12.8705 11.3358 12.8369 11.2596C12.8033 11.1835 12.7542 11.1144 12.6922 11.0563ZM2.3057 5.875C2.3057 5.13332 2.53835 4.4083 2.97423 3.79161C3.41011 3.17493 4.02964 2.69428 4.75449 2.41045C5.47933 2.12663 6.27693 2.05236 7.04642 2.19706C7.81591 2.34175 8.52274 2.6989 9.07751 3.22335C9.63228 3.7478 10.0101 4.41599 10.1631 5.14341C10.3162 5.87084 10.2377 6.62484 9.93741 7.31007C9.63717 7.99529 9.12873 8.58096 8.47639 8.99301C7.82405 9.40507 7.0571 9.625 6.27253 9.625C5.22046 9.625 4.21148 9.22991 3.46755 8.52665C2.72363 7.82339 2.3057 6.86956 2.3057 5.875Z" fill="#C4C4C4"/>
</svg>
