<svg width="39" height="39" viewBox="0 0 39 39" fill="none" xmlns="http://www.w3.org/2000/svg">
<path d="M19.5 2.4375C24.0253 2.4375 28.3652 4.23515 31.565 7.43499C34.7648 10.6348 36.5625 14.9747 36.5625 19.5C36.5625 24.0253 34.7648 28.3652 31.565 31.565C28.3652 34.7648 24.0253 36.5625 19.5 36.5625C14.9747 36.5625 10.6348 34.7648 7.43499 31.565C4.23515 28.3652 2.4375 24.0253 2.4375 19.5C2.4375 14.9747 4.23515 10.6348 7.43499 7.43499C10.6348 4.23515 14.9747 2.4375 19.5 2.4375ZM19.5 9.75C19.1905 9.74974 18.8844 9.81402 18.6012 9.93874C18.318 10.0635 18.0639 10.2459 17.8551 10.4743C17.6464 10.7028 17.4876 10.9723 17.3889 11.2656C17.2902 11.5589 17.2537 11.8696 17.2819 12.1777L18.1716 21.9424C18.2061 22.2707 18.3609 22.5746 18.6062 22.7954C18.8515 23.0163 19.1699 23.1385 19.5 23.1385C19.8301 23.1385 20.1485 23.0163 20.3938 22.7954C20.6391 22.5746 20.7939 22.2707 20.8284 21.9424L21.7157 12.1777C21.7438 11.8698 21.7074 11.5593 21.6089 11.2662C21.5103 10.973 21.3517 10.7037 21.1432 10.4752C20.9348 10.2468 20.681 10.0643 20.398 9.93948C20.1151 9.81461 19.8093 9.75007 19.5 9.75ZM19.5 29.25C20.0172 29.25 20.5132 29.0446 20.8789 28.6789C21.2446 28.3132 21.45 27.8172 21.45 27.3C21.45 26.7828 21.2446 26.2868 20.8789 25.9211C20.5132 25.5554 20.0172 25.35 19.5 25.35C18.9828 25.35 18.4868 25.5554 18.1211 25.9211C17.7554 26.2868 17.55 26.7828 17.55 27.3C17.55 27.8172 17.7554 28.3132 18.1211 28.6789C18.4868 29.0446 18.9828 29.25 19.5 29.25Z" fill="#11AD97"/>
</svg>
